<svg width="14" height="14" viewBox="0 0 14 14" fill="none" xmlns="http://www.w3.org/2000/svg">
<path d="M0.390524 0.390524C-0.130175 0.911223 -0.130175 1.75544 0.390524 2.27614L5.10458 6.9902L0.390538 11.7042C-0.13016 12.2249 -0.130161 13.0692 0.390538 13.5899C0.911238 14.1106 1.75546 14.1106 2.27616 13.5899L6.9902 8.87582L11.7042 13.5899C12.2249 14.1105 13.0692 14.1105 13.5899 13.5899C14.1105 13.0692 14.1105 12.2249 13.5899 11.7042L8.87581 6.9902L13.5899 2.27615C14.1106 1.75545 14.1106 0.911226 13.5899 0.390527C13.0692 -0.130172 12.2249 -0.130172 11.7042 0.390528L6.9902 5.10458L2.27614 0.390524C1.75544 -0.130175 0.911223 -0.130175 0.390524 0.390524Z" fill="white"/>
</svg>
