<svg width="44" height="42" viewBox="0 0 44 42" fill="none" xmlns="http://www.w3.org/2000/svg">
<path d="M21.0825 1.11573C21.4307 0.312853 22.5693 0.312852 22.9175 1.11573L28.2825 13.488C28.4274 13.8221 28.7425 14.0511 29.1051 14.0856L42.5297 15.3648C43.4008 15.4479 43.7527 16.5307 43.0967 17.1099L32.9879 26.0356C32.7148 26.2767 32.5945 26.6471 32.6737 27.0026L35.6055 40.1655C35.7957 41.0197 34.8746 41.6889 34.121 41.244L22.5084 34.3881C22.1948 34.203 21.8052 34.203 21.4916 34.3881L9.87899 41.244C9.1254 41.6889 8.20426 41.0197 8.39451 40.1655L11.3263 27.0026C11.4055 26.6471 11.2852 26.2767 11.0121 26.0356L0.903317 17.1099C0.247319 16.5307 0.599164 15.4479 1.47033 15.3648L14.8949 14.0856C15.2575 14.0511 15.5726 13.8221 15.7175 13.488L21.0825 1.11573Z" fill="#B4B4CC"/>
</svg>
