<svg width="103" height="87" viewBox="0 0 103 87" fill="none" xmlns="http://www.w3.org/2000/svg">
<path d="M63.6406 0.320312H102.523V21.6133C102.523 35.1914 100.826 46.8665 97.4316 56.6387C94.14 66.4108 88.4824 76.4915 80.459 86.8809L65.4922 75C69.2982 69.4453 72.0755 64.6621 73.8242 60.6504C75.6758 56.5358 77.4245 51.1354 79.0703 44.4492H63.6406V0.320312ZM0.6875 0.320312H39.5703V21.6133C39.5703 35.1914 37.873 46.8665 34.4785 56.6387C31.1868 66.4108 25.5807 76.4915 17.6602 86.8809L2.53906 75C6.34505 69.4453 9.1224 64.6621 10.8711 60.6504C12.7227 56.5358 14.5228 51.1354 16.2715 44.4492H0.6875V0.320312Z" fill="#F7F2FF"/>
</svg>
