<svg width="275" height="151" viewBox="0 0 275 151" fill="none" xmlns="http://www.w3.org/2000/svg">
<path d="M36.6295 118.895L31.5913 123.702C28.164 120.086 24.3082 118.278 20.0241 118.278C16.4083 118.278 13.358 119.512 10.8732 121.979C8.40549 124.447 7.17166 127.489 7.17166 131.105C7.17166 133.624 7.72003 135.86 8.81677 137.814C9.91351 139.767 11.4644 141.301 13.4694 142.415C15.4743 143.529 17.7021 144.086 20.1526 144.086C22.2433 144.086 24.154 143.7 25.8848 142.929C27.6156 142.141 29.5178 140.718 31.5913 138.662L36.4752 143.751C33.682 146.476 31.0429 148.37 28.5581 149.432C26.0733 150.478 23.2372 151 20.0498 151C14.172 151 9.35658 149.141 5.60366 145.422C1.86789 141.686 0 136.905 0 131.079C0 127.309 0.848261 123.959 2.54478 121.028C4.25844 118.098 6.7004 115.742 9.87067 113.959C13.0581 112.177 16.4854 111.286 20.1526 111.286C23.2715 111.286 26.2704 111.946 29.1493 113.265C32.0454 114.585 34.5388 116.461 36.6295 118.895Z" fill="#CEC7DD"/>
<path d="M61.8706 111.286C67.2172 111.286 71.8098 113.223 75.6484 117.095C79.5042 120.968 81.432 125.689 81.432 131.259C81.432 136.777 79.5299 141.447 75.7255 145.268C71.9384 149.089 67.3372 151 61.922 151C56.2498 151 51.5373 149.038 47.7843 145.114C44.0314 141.189 42.155 136.528 42.155 131.13C42.155 127.514 43.0289 124.19 44.7769 121.157C46.5248 118.124 48.9239 115.725 51.9742 113.959C55.0417 112.177 58.3405 111.286 61.8706 111.286ZM61.7935 118.329C58.2976 118.329 55.3587 119.546 52.9767 121.979C50.5947 124.413 49.4037 127.506 49.4037 131.259C49.4037 135.44 50.9032 138.748 53.9021 141.181C56.2327 143.083 58.906 144.034 61.922 144.034C65.3322 144.034 68.2369 142.8 70.636 140.333C73.0351 137.865 74.2347 134.823 74.2347 131.207C74.2347 127.609 73.0265 124.567 70.6103 122.082C68.194 119.58 65.2551 118.329 61.7935 118.329Z" fill="#CEC7DD"/>
<path d="M89.271 150.049V112.237H95.2088C98.6533 112.237 101.172 112.46 102.766 112.906C105.028 113.505 106.827 114.619 108.164 116.247C109.501 117.875 110.169 119.794 110.169 122.005C110.169 123.445 109.861 124.755 109.244 125.938C108.644 127.103 107.659 128.2 106.288 129.228C108.584 130.308 110.263 131.662 111.326 133.29C112.388 134.9 112.919 136.811 112.919 139.022C112.919 141.147 112.371 143.083 111.274 144.831C110.178 146.579 108.764 147.89 107.033 148.764C105.302 149.621 102.912 150.049 99.8614 150.049H89.271ZM96.4684 119.1V127.069H98.0364C99.7843 127.069 101.078 126.7 101.918 125.964C102.775 125.227 103.203 124.224 103.203 122.956C103.203 121.774 102.8 120.84 101.995 120.154C101.189 119.452 99.9642 119.1 98.3191 119.1H96.4684ZM96.4684 133.495V143.186H98.2677C101.249 143.186 103.254 142.809 104.283 142.055C105.328 141.301 105.851 140.204 105.851 138.765C105.851 137.137 105.242 135.851 104.026 134.909C102.809 133.966 100.787 133.495 97.9592 133.495H96.4684Z" fill="#CEC7DD"/>
<path d="M120.887 112.237H141.528V119.28H128.033V126.118H141.528V133.032H128.033V142.98H141.528V150.049H120.887V112.237Z" fill="#CEC7DD"/>
<path d="M145.588 112.237H166.486V119.332H159.597V150.049H152.297V119.332H145.588V112.237Z" fill="#CEC7DD"/>
<path d="M172.449 112.237H179.749V126.503H192.396V112.237H199.67V150.049H192.396V133.469H179.749V150.049H172.449V112.237Z" fill="#CEC7DD"/>
<path d="M236.916 112.237V150.049H229.718V126.375L215.606 150.049H209.334V112.237H216.532V136.683L230.849 112.237H236.916Z" fill="#CEC7DD"/>
<path d="M246.657 112.237H253.931V125.244L264.188 112.237H272.85L259.638 129.1L274.135 150.049H265.601L253.931 133.264V150.049H246.657V112.237Z" fill="#CEC7DD"/>
<path d="M102.415 21.8552C101.945 21.5864 101.47 21.4263 101.014 21.2258C100.568 21.0299 100.117 20.8448 99.6692 20.6547C99.2064 20.4584 98.744 20.2614 98.281 20.0653C97.8183 19.8692 97.3551 19.6736 96.8922 19.4781C96.429 19.2825 95.9658 19.0878 95.5026 18.8922C95.054 18.7028 94.6052 18.5139 94.1571 18.3233C93.6951 18.1267 93.2338 17.9283 92.7393 17.7164C92.8036 17.6272 92.8428 17.5428 92.9072 17.4883C94.7576 15.9198 96.6426 14.3973 98.69 13.0896C99.7328 12.4234 100.842 11.9192 102.053 11.6522C103.107 11.4197 104.168 11.3402 105.228 11.6024C105.561 11.6849 105.888 11.8061 106.203 11.9438C107.34 12.4405 108.471 12.9519 109.605 13.4571C109.762 13.5273 109.922 13.5929 110.11 13.6735C110.254 13.5647 110.405 13.4554 110.551 13.3393C113.335 11.1224 116.353 9.29334 119.597 7.84031C121.435 7.01719 123.324 6.33205 125.261 5.78583C126.576 5.41504 127.908 5.11538 129.253 4.86859C130.956 4.55612 132.674 4.3814 134.397 4.24769C134.866 4.21118 135.339 4.21189 135.81 4.20525C136.297 4.19838 136.785 4.20786 137.272 4.20241C138.61 4.18747 139.939 4.31028 141.269 4.44541C142.348 4.55517 143.419 4.72041 144.485 4.91031C145.181 5.03406 145.872 5.1865 146.559 5.35056C148.102 5.71921 149.622 6.1706 151.113 6.7154C155.172 8.19806 158.923 10.2492 162.356 12.8843C162.742 13.1809 163.125 13.4817 163.526 13.7933C163.659 13.7418 163.791 13.6972 163.917 13.6413C165.239 13.0564 166.565 12.482 167.879 11.8798C168.932 11.3971 170.032 11.3206 171.154 11.4555C172.544 11.6226 173.834 12.0975 175.036 12.8227C176.183 13.5147 177.273 14.2894 178.328 15.1121C179.234 15.8183 180.119 16.5516 181.012 17.2749C181.12 17.3619 181.217 17.4615 181.345 17.5793C181.223 17.6953 181.091 17.733 180.967 17.7851C178.434 18.8512 175.9 19.9178 173.367 20.9847C172.715 21.259 172.064 21.5337 171.414 21.8106C171.33 21.8462 171.253 21.8972 171.173 21.9415C171.862 23.0384 172.551 24.1088 173.213 25.1953C173.878 26.2861 174.456 27.4253 175.001 28.5812C175.546 29.737 176.034 30.9167 176.472 32.1172C176.909 33.3175 177.292 34.5361 177.617 35.7719C177.942 37.0081 178.214 38.2567 178.423 39.5182C178.631 40.7797 178.765 42.0506 178.896 43.323C179.027 44.5992 179.036 45.8749 179.051 47.1537C179.066 48.4365 178.917 49.7062 178.802 50.9791C178.688 52.2375 178.5 53.4859 178.263 54.7265C178.023 55.9823 177.726 57.2243 177.375 58.4533C177.023 59.6821 176.615 60.8909 176.154 62.0827C175.693 63.2747 175.179 64.4425 174.612 65.5876C174.045 66.7332 173.427 67.8495 172.761 68.9398C172.094 70.0304 171.377 71.0863 170.615 72.1107C169.852 73.1353 169.044 74.1225 168.192 75.0746C167.341 76.0269 166.447 76.9361 165.515 77.8088C164.584 78.6815 163.613 79.5074 162.605 80.2905C146.378 92.9019 123.511 91.9946 108.305 78.1191C100.478 70.8054 95.8332 61.8449 94.7267 51.145C93.6213 40.4589 96.241 30.7031 102.415 21.8552ZM100.991 49.1906C100.967 49.371 100.942 49.4616 100.945 49.5514C100.965 50.151 100.961 50.7534 101.022 51.3489C101.176 52.8745 101.469 54.3766 101.877 55.8545C102.508 58.1413 103.36 60.3433 104.398 62.4748C104.526 62.7389 104.701 62.8838 104.966 62.9905C106.439 63.5817 107.874 64.2581 109.291 64.9748C112.945 66.8237 116.43 68.9543 119.763 71.3376C122.031 72.9592 124.209 74.6936 126.296 76.5452C128.383 78.3972 130.366 80.3543 132.229 82.4332C132.419 82.6449 132.617 82.7651 132.907 82.7938C134.19 82.9206 135.474 83.0185 136.763 83.0301C138.29 83.0439 139.809 82.95 141.326 82.7871C141.58 82.7598 141.756 82.6567 141.926 82.4711C142.66 81.6698 143.394 80.8666 144.155 80.0916C147.509 76.6777 151.157 73.6145 155.079 70.8789C157.792 68.9863 160.613 67.2734 163.541 65.7405C165.226 64.8586 166.939 64.0341 168.712 63.343C168.931 63.2579 169.08 63.1272 169.174 62.9061C169.328 62.5436 169.516 62.1955 169.674 61.8347C170.588 59.752 171.354 57.6193 171.863 55.3965C172.17 54.0554 172.392 52.7024 172.477 51.3288C172.502 50.9352 172.498 50.5398 172.499 50.1453C172.5 50.0794 172.458 50.0132 172.437 49.9511C172.389 49.9613 172.37 49.9599 172.359 49.9687C172.311 50.009 172.264 50.0505 172.219 50.0948C171.051 51.261 169.727 52.2138 168.27 52.9798C166.044 54.1497 163.662 54.8052 161.178 55.1049C159.249 55.3377 157.324 55.319 155.401 55.0086C154.359 54.8403 153.335 54.607 152.34 54.259C149.042 53.1052 146.307 51.1868 144.322 48.2575C144.274 48.1859 144.194 48.1354 144.114 48.0607C143.513 48.5562 142.931 49.0355 142.35 49.5161C141.755 50.0076 141.161 50.4997 140.567 50.9919C139.985 51.4741 139.409 51.9627 138.821 52.4378C138.225 52.92 137.654 53.4349 137.018 53.9062C136.424 53.401 135.849 52.9129 135.275 52.4248C134.699 51.9354 134.123 51.4459 133.547 50.9568C132.959 50.4575 132.376 49.9523 131.781 49.4613C131.202 48.9834 130.654 48.4668 130.029 48.0055C129.944 48.1093 129.875 48.1901 129.81 48.2745C129.522 48.6494 129.256 49.0434 128.945 49.3978C126.656 52.0085 123.771 53.6082 120.429 54.416C119.358 54.6748 118.268 54.8081 117.169 54.8896C115.545 55.0103 113.933 54.9008 112.329 54.6696C111.179 54.5039 110.047 54.2398 108.934 53.8934C106.036 52.9916 103.451 51.5542 101.27 49.4161C101.207 49.3528 101.131 49.3023 100.991 49.1906ZM173.604 37.6887C173.616 29.663 167.157 23.0975 159.14 23.037C151.092 22.9763 144.495 29.4831 144.453 37.6076C144.411 45.6681 150.836 52.2583 158.895 52.3302C167.108 52.4032 173.613 45.7262 173.604 37.6887ZM100.58 37.6799C100.573 45.6724 106.972 52.2716 115.046 52.3304C123.229 52.3899 129.77 45.7348 129.733 37.6164C129.695 29.5293 123.154 23.0318 115.148 23.0365C107.095 23.041 100.578 29.6097 100.58 37.6799ZM116.942 16.5732C117.07 16.636 117.205 16.7083 117.345 16.7692C120.743 18.2512 124.14 19.7355 127.541 21.2111C129.025 21.855 130.519 22.4759 132.004 23.1179C132.49 23.3281 132.997 23.4026 133.517 23.4251C134.055 23.4483 134.588 23.3912 135.111 23.2888C135.764 23.1612 136.382 22.9356 136.903 22.4944C136.948 22.456 137.009 22.436 137.075 22.4009C137.196 22.4851 137.313 22.5622 137.426 22.6458C137.719 22.8647 138.043 23.0249 138.387 23.1401C139.327 23.4557 140.296 23.5126 141.274 23.4109C141.52 23.3853 141.767 23.3089 141.999 23.2162C142.669 22.9479 143.334 22.6651 143.997 22.378C146.923 21.1106 149.848 19.8408 152.773 18.5691C154.156 17.9677 155.536 17.3603 156.917 16.7555C157.041 16.7012 157.179 16.6656 157.269 16.5225C157.197 16.4568 157.145 16.3994 157.083 16.3556C156.634 16.0367 156.193 15.706 155.732 15.4058C153.125 13.7081 150.285 12.546 147.297 11.7305C145.659 11.2831 143.997 10.9519 142.314 10.7191C141.083 10.5489 139.848 10.423 138.608 10.3711C137.179 10.3113 135.751 10.3313 134.322 10.4472C132.753 10.5745 131.197 10.7822 129.654 11.0764C128.559 11.285 127.476 11.5524 126.403 11.8599C124.206 12.4893 122.092 13.3212 120.081 14.4142C119.071 14.9632 118.104 15.581 117.184 16.2723C117.088 16.3442 116.954 16.3883 116.942 16.5732ZM137.074 50.4864C137.183 50.3864 137.256 50.3302 137.317 50.2624C137.747 49.7802 138.173 49.2951 138.602 48.8122C139.9 47.3514 141.198 45.891 142.495 44.4304C142.558 44.3597 142.619 44.2877 142.681 44.2158C142.772 44.1087 142.779 43.9923 142.729 43.8628C142.606 43.5454 142.401 43.2905 142.148 43.0705C141.724 42.7031 141.229 42.4698 140.704 42.2922C139.653 41.9364 138.563 41.8086 137.463 41.7412C136.706 41.695 135.954 41.783 135.208 41.8892C134.509 41.9888 133.817 42.1369 133.159 42.4105C132.721 42.5928 132.306 42.8123 131.957 43.1424C131.749 43.3394 131.582 43.5627 131.471 43.8318C131.401 44.0003 131.424 44.1343 131.544 44.2644C131.672 44.4034 131.794 44.5482 131.919 44.6897C133.32 46.2696 134.72 47.8499 136.121 49.4291C136.424 49.7695 136.731 50.1057 137.074 50.4864Z" fill="#CEC7DD"/>
<path d="M153.006 30.4971C154.946 30.168 158.13 31.1529 159.772 34.107C161.338 36.9254 160.843 40.3961 158.603 42.668C156.326 44.9766 152.862 45.4202 150.133 43.9375C147.101 42.2896 146.091 39.0164 146.436 36.9367C146.539 36.8469 146.642 36.9083 146.746 36.9356C147.613 37.1643 148.497 37.2032 149.355 36.969C151.265 36.4477 152.495 35.2021 153.045 33.2856C153.173 32.8422 153.228 32.393 153.214 31.9312C153.203 31.6142 153.186 31.3024 153.091 30.9966C153.042 30.8349 153.011 30.6654 153.006 30.4971Z" fill="#CEC7DD"/>
<path d="M121.328 30.4632C121.292 30.6685 121.28 30.8266 121.237 30.9755C121.023 31.7083 121.043 32.4345 121.249 33.167C121.352 33.5324 121.461 33.8932 121.629 34.2329C122.396 35.7777 123.63 36.7258 125.31 37.0408C126.035 37.1767 126.781 37.1468 127.508 36.9583C127.611 36.9315 127.716 36.9107 127.852 36.8801C127.88 36.9849 127.92 37.0686 127.925 37.1546C128.137 40.6048 125.87 43.673 122.651 44.5454C119.725 45.3387 116.714 44.186 115.034 41.8819C113.947 40.3909 113.462 38.7184 113.659 36.8915C113.897 34.6872 114.944 32.9236 116.773 31.6621C118.027 30.7975 119.424 30.3838 120.95 30.4314C121.057 30.4345 121.164 30.4492 121.328 30.4632Z" fill="#CEC7DD"/>
</svg>
