<svg width="18" height="18" viewBox="0 0 18 18" fill="none" xmlns="http://www.w3.org/2000/svg">
<path d="M8.94947 5.00781C6.55088 5.00781 4.56348 6.96095 4.56348 9.3938C4.56348 11.8267 6.51661 13.7798 8.94947 13.7798C11.3823 13.7798 13.3355 11.7924 13.3355 9.3938C13.3355 6.99521 11.3481 5.00781 8.94947 5.00781ZM8.94947 12.2036C7.40752 12.2036 6.13969 10.9358 6.13969 9.3938C6.13969 7.85185 7.40752 6.58403 8.94947 6.58403C10.4914 6.58403 11.7592 7.85185 11.7592 9.3938C11.7592 10.9358 10.4914 12.2036 8.94947 12.2036Z" fill="white"/>
<path d="M13.5064 5.89951C14.0552 5.89951 14.5001 5.45462 14.5001 4.90581C14.5001 4.357 14.0552 3.91211 13.5064 3.91211C12.9576 3.91211 12.5127 4.357 12.5127 4.90581C12.5127 5.45462 12.9576 5.89951 13.5064 5.89951Z" fill="white"/>
<path d="M16.0763 2.33555C15.1854 1.41038 13.9175 0.930664 12.4784 0.930664H5.41968C2.43857 0.930664 0.451172 2.91807 0.451172 5.89917V12.9236C0.451172 14.397 0.93089 15.6649 1.89033 16.59C2.8155 17.4809 4.04906 17.9264 5.45394 17.9264H12.4441C13.9175 17.9264 15.1511 17.4467 16.042 16.59C16.9672 15.6991 17.4469 14.4313 17.4469 12.9579V5.89917C17.4469 4.46002 16.9672 3.22646 16.0763 2.33555ZM15.9392 12.9579C15.9392 14.0201 15.5623 14.8767 14.9455 15.4593C14.3287 16.0418 13.4721 16.3502 12.4441 16.3502H5.45394C4.42598 16.3502 3.56934 16.0418 2.95256 15.4593C2.33578 14.8425 2.02739 13.9858 2.02739 12.9236V5.89917C2.02739 4.8712 2.33578 4.01456 2.95256 3.39778C3.53507 2.81527 4.42598 2.50688 5.45394 2.50688H12.5126C13.5406 2.50688 14.3973 2.81527 15.014 3.43205C15.5965 4.04883 15.9392 4.90547 15.9392 5.89917V12.9579Z" fill="white"/>
</svg>
