<svg width="22" height="13" viewBox="0 0 22 13" fill="none" xmlns="http://www.w3.org/2000/svg">
<path d="M20.6618 0.941161H17.3321C17.1962 0.94116 17.0629 0.978005 16.9463 1.04778C16.8296 1.11755 16.7341 1.21763 16.6698 1.33738C16.6698 1.33738 15.3418 3.78308 14.9153 4.60685C13.7677 6.82286 13.0246 6.12717 13.0246 5.0987V1.55252C13.0246 1.25619 12.9069 0.971999 12.6973 0.762462C12.4878 0.552925 12.2036 0.435208 11.9073 0.435208H9.40382C9.06289 0.40986 8.72114 0.472089 8.41103 0.615987C8.10092 0.759885 7.83274 0.980673 7.63197 1.25738C7.63197 1.25738 8.90319 1.05184 8.90319 2.76469C8.90319 3.18943 8.92506 4.4113 8.945 5.43612C8.94876 5.58714 8.90609 5.73568 8.82275 5.86168C8.73941 5.98768 8.61942 6.08507 8.47897 6.14071C8.33852 6.19635 8.18438 6.20756 8.03737 6.17282C7.89035 6.13807 7.75753 6.05906 7.65684 5.94644C6.63214 4.52126 5.78335 2.97751 5.1289 1.34876C5.0727 1.22692 4.98273 1.12375 4.86966 1.05151C4.75659 0.979262 4.62517 0.940965 4.49099 0.941161C3.76889 0.941161 2.32391 0.941161 1.46579 0.941161C1.38257 0.940594 1.30047 0.960238 1.22652 0.998405C1.15258 1.03657 1.089 1.09212 1.04126 1.16028C0.993517 1.22843 0.963035 1.30716 0.952432 1.3897C0.941829 1.47224 0.951422 1.55611 0.980387 1.63412C1.89898 4.15383 5.85601 12.0721 10.3726 12.0721H12.2736C12.4728 12.0721 12.6638 11.993 12.8046 11.8521C12.9455 11.7113 13.0246 11.5203 13.0246 11.3211V10.1732C13.0246 10.0292 13.0667 9.88834 13.1458 9.76799C13.2249 9.64763 13.3374 9.55305 13.4696 9.49587C13.6017 9.4387 13.7477 9.42144 13.8896 9.44623C14.0314 9.47102 14.1629 9.53676 14.2679 9.63537L16.5433 11.7732C16.7476 11.9652 17.0175 12.0721 17.2979 12.0721H20.2858C21.7269 12.0721 21.7269 11.0721 20.9412 10.2983C20.3883 9.75373 18.3929 7.65052 18.3929 7.65052C18.222 7.47351 18.1201 7.2412 18.1056 6.9956C18.091 6.74999 18.1648 6.50729 18.3136 6.31134C18.9586 5.46259 20.0135 4.07326 20.4609 3.47808C21.0724 2.66457 22.1792 0.941161 20.6618 0.941161Z" fill="white"/>
</svg>
