<svg width="18" height="13" viewBox="0 0 18 13" fill="none" xmlns="http://www.w3.org/2000/svg">
<path fill-rule="evenodd" clip-rule="evenodd" d="M17.1433 2.86325C17.1433 2.86325 16.9808 1.71811 16.4824 1.21367C15.8508 0.551918 15.1423 0.548779 14.8175 0.510005C12.4922 0.341797 9.00393 0.341797 9.00393 0.341797H8.99654C8.99654 0.341797 5.5085 0.341797 3.18295 0.510005C2.85816 0.548779 2.15007 0.551918 1.51804 1.21367C1.0197 1.71811 0.857583 2.86325 0.857583 2.86325C0.857583 2.86325 0.691406 4.20799 0.691406 5.55273V6.81364C0.691406 8.15819 0.857583 9.50293 0.857583 9.50293C0.857583 9.50293 1.0197 10.6481 1.51804 11.1525C2.15007 11.8144 2.9804 11.7932 3.35023 11.8626C4.67983 11.9902 9.00024 12.0297 9.00024 12.0297C9.00024 12.0297 12.4922 12.0244 14.8175 11.8564C15.1423 11.8176 15.8508 11.8144 16.4824 11.1525C16.9808 10.6481 17.1433 9.50293 17.1433 9.50293C17.1433 9.50293 17.3091 8.15819 17.3091 6.81364V5.55273C17.3091 4.20799 17.1433 2.86325 17.1433 2.86325ZM7.28474 8.34117L7.284 3.67216L11.7741 6.0147L7.28474 8.34117Z" fill="white"/>
</svg>
