<svg width="502" height="75" viewBox="0 0 502 75" fill="none" xmlns="http://www.w3.org/2000/svg">
<path d="M67.0763 15.1381L57.8504 23.9404C51.5742 17.3191 44.5136 14.0084 36.6684 14.0084C30.047 14.0084 24.4613 16.2678 19.9111 20.7867C15.3922 25.3055 13.1328 30.8756 13.1328 37.4969C13.1328 42.1099 14.137 46.2051 16.1454 49.7825C18.1538 53.3599 20.9937 56.1684 24.6653 58.2082C28.3368 60.2479 32.4163 61.2678 36.9037 61.2678C40.7322 61.2678 44.2311 60.5617 47.4006 59.1496C50.57 57.7061 54.0533 55.1015 57.8504 51.3358L66.7939 60.6559C61.6788 65.6454 56.8462 69.113 52.296 71.0586C47.7458 72.9728 42.5523 73.9299 36.7155 73.9299C25.9519 73.9299 17.1339 70.5251 10.2615 63.7155C3.4205 56.8745 0 48.1193 0 37.4498C0 30.5461 1.55335 24.4111 4.66004 19.045C7.79811 13.6789 12.2699 9.36407 18.0753 6.10047C23.9121 2.83688 30.1883 1.20508 36.9037 1.20508C42.615 1.20508 48.1067 2.41324 53.3786 4.82955C58.682 7.24587 63.2479 10.6821 67.0763 15.1381Z" fill="white"/>
<path d="M163.474 72.1883V2.94671H174.348C180.655 2.94671 185.268 3.35466 188.186 4.17056C192.329 5.26888 195.624 7.30863 198.071 10.2898C200.519 13.271 201.743 16.7856 201.743 20.8337C201.743 23.4697 201.178 25.8703 200.048 28.0356C198.95 30.1695 197.146 32.1779 194.635 34.0607C198.84 36.0377 201.916 38.5168 203.861 41.4979C205.807 44.4477 206.78 47.9467 206.78 51.9948C206.78 55.886 205.775 59.432 203.767 62.6329C201.759 65.8337 199.17 68.2343 196 69.8347C192.831 71.4038 188.453 72.1883 182.867 72.1883H163.474ZM176.654 15.5147V30.1067H179.525C182.726 30.1067 185.095 29.432 186.633 28.0827C188.202 26.7333 188.987 24.8975 188.987 22.5754C188.987 20.4101 188.249 18.6998 186.774 17.4446C185.299 16.158 183.056 15.5147 180.043 15.5147H176.654ZM176.654 41.8745V59.6203H179.949C185.409 59.6203 189.081 58.9299 190.964 57.5492C192.878 56.1684 193.835 54.1601 193.835 51.5241C193.835 48.5429 192.721 46.1894 190.493 44.4634C188.265 42.7375 184.562 41.8745 179.384 41.8745H176.654Z" fill="white"/>
<path d="M221.37 2.94671H259.168V15.8442H234.455V28.3651H259.168V41.0272H234.455V59.2437H259.168V72.1883H221.37V2.94671Z" fill="white"/>
<path d="M266.603 2.94671H304.872V15.9383H292.257V72.1883H278.889V15.9383H266.603V2.94671Z" fill="white"/>
<path d="M315.791 2.94671H329.159V29.0712H352.318V2.94671H365.639V72.1883H352.318V41.8274H329.159V72.1883H315.791V2.94671Z" fill="white"/>
<path d="M433.843 2.94671V72.1883H420.663V28.8358L394.821 72.1883H383.336V2.94671H396.516V47.7113L422.734 2.94671H433.843Z" fill="white"/>
<path d="M451.681 2.94671H465.002V26.7647L483.783 2.94671H499.646L475.452 33.8254L502 72.1883H486.372L465.002 41.4509V72.1883H451.681V2.94671Z" fill="white"/>
<path d="M86.1077 17.2423C85.721 17.0241 85.3296 16.8942 84.954 16.7315C84.5869 16.5725 84.2157 16.4222 83.8466 16.2679C83.4655 16.1086 83.0846 15.9487 82.7033 15.7896C82.3223 15.6305 81.9408 15.4717 81.5595 15.313C81.178 15.1542 80.7965 14.9963 80.415 14.8375C80.0456 14.6838 79.676 14.5304 79.3069 14.3757C78.9264 14.2162 78.5465 14.0552 78.1392 13.8832C78.1922 13.8108 78.2244 13.7423 78.2775 13.6981C79.8014 12.4251 81.354 11.1894 83.0402 10.128C83.8991 9.58736 84.8126 9.1781 85.8096 8.96144C86.6784 8.77269 87.5515 8.70823 88.4246 8.92104C88.6989 8.988 88.9685 9.08632 89.228 9.19811C90.1646 9.60121 91.0961 10.0162 92.0298 10.4263C92.1594 10.4832 92.2905 10.5365 92.4457 10.602C92.564 10.5136 92.6885 10.4249 92.8085 10.3307C95.1019 8.5314 97.5877 7.04694 100.259 5.86764C101.773 5.19958 103.328 4.64351 104.924 4.20019C106.007 3.89926 107.104 3.65605 108.212 3.45574C109.614 3.20214 111.029 3.06034 112.448 2.95182C112.835 2.92218 113.224 2.92276 113.613 2.91737C114.014 2.91179 114.415 2.91949 114.816 2.91507C115.918 2.90294 117.013 3.00261 118.108 3.11229C118.997 3.20138 119.879 3.33549 120.757 3.48961C121.33 3.59005 121.899 3.71377 122.465 3.84692C123.736 4.14612 124.988 4.51248 126.216 4.95464C129.559 6.15799 132.648 7.82274 135.476 9.96141C135.794 10.2021 136.109 10.4463 136.439 10.6991C136.549 10.6574 136.657 10.6212 136.761 10.5758C137.85 10.1011 138.942 9.63489 140.024 9.14616C140.891 8.75441 141.797 8.69226 142.721 8.80174C143.867 8.93739 144.929 9.32279 145.919 9.91138C146.863 10.473 147.761 11.1018 148.63 11.7695C149.376 12.3427 150.105 12.9378 150.841 13.5249C150.929 13.5955 151.01 13.6763 151.115 13.772C151.014 13.866 150.906 13.8966 150.804 13.939C148.717 14.8042 146.631 15.6699 144.544 16.5358C144.008 16.7584 143.471 16.9814 142.936 17.2061C142.867 17.235 142.803 17.2764 142.737 17.3123C143.305 18.2026 143.872 19.0714 144.418 19.9532C144.965 20.8385 145.441 21.763 145.89 22.7013C146.339 23.6393 146.741 24.5967 147.101 25.5711C147.461 26.5453 147.777 27.5343 148.044 28.5373C148.312 29.5406 148.536 30.554 148.708 31.5778C148.88 32.6017 148.99 33.6332 149.098 34.6659C149.206 35.7016 149.213 36.737 149.226 37.7749C149.238 38.816 149.116 39.8466 149.021 40.8796C148.927 41.901 148.772 42.9142 148.576 43.9211C148.379 44.9403 148.134 45.9484 147.845 46.9458C147.555 47.9431 147.219 48.9242 146.839 49.8915C146.46 50.8589 146.037 51.8068 145.57 52.7361C145.103 53.6658 144.593 54.5719 144.045 55.4568C143.496 56.3419 142.905 57.1989 142.277 58.0303C141.649 58.8619 140.984 59.6632 140.282 60.4359C139.581 61.2088 138.845 61.9467 138.077 62.655C137.31 63.3633 136.511 64.0336 135.681 64.6692C122.316 74.9047 103.483 74.1684 90.9588 62.9069C84.5129 56.9709 80.6874 49.6985 79.776 41.0143C78.8656 32.3413 81.0232 24.4233 86.1077 17.2423ZM84.9355 39.4281C84.9155 39.5745 84.8945 39.648 84.8971 39.7209C84.9138 40.2075 84.9109 40.6965 84.9606 41.1798C85.088 42.418 85.3289 43.6371 85.6647 44.8366C86.1845 46.6926 86.8862 48.4797 87.7413 50.2097C87.8471 50.4241 87.9905 50.5416 88.2092 50.6282C89.4224 51.1081 90.6043 51.6571 91.7709 52.2387C94.7808 53.7393 97.6513 55.4686 100.396 57.4029C102.264 58.719 104.058 60.1267 105.776 61.6294C107.495 63.1326 109.129 64.7209 110.663 66.4082C110.82 66.58 110.982 66.6776 111.221 66.7008C112.278 66.8038 113.335 66.8833 114.397 66.8927C115.655 66.9038 116.906 66.8276 118.156 66.6955C118.365 66.6733 118.509 66.5896 118.649 66.439C119.254 65.7886 119.858 65.1367 120.485 64.5077C123.248 61.737 126.252 59.2508 129.482 57.0306C131.717 55.4945 134.04 54.1044 136.452 52.8602C137.839 52.1444 139.25 51.4752 140.711 50.9143C140.891 50.8453 141.014 50.7392 141.091 50.5597C141.218 50.2655 141.373 49.9831 141.503 49.6902C142.255 47.9999 142.886 46.2689 143.305 44.4649C143.558 43.3764 143.741 42.2783 143.812 41.1634C143.832 40.844 143.829 40.5231 143.83 40.2029C143.83 40.1494 143.796 40.0957 143.779 40.0453C143.739 40.0536 143.723 40.0525 143.714 40.0596C143.675 40.0923 143.636 40.126 143.599 40.1619C142.637 41.1084 141.547 41.8817 140.346 42.5034C138.513 43.453 136.551 43.985 134.506 44.2282C132.917 44.4171 131.331 44.4019 129.747 44.1501C128.889 44.0135 128.046 43.8241 127.226 43.5417C124.51 42.6052 122.257 41.0482 120.623 38.6707C120.583 38.6126 120.517 38.5716 120.451 38.511C119.957 38.9132 119.477 39.3022 118.998 39.6923C118.509 40.0911 118.019 40.4906 117.53 40.89C117.051 41.2814 116.576 41.678 116.092 42.0636C115.601 42.4549 115.131 42.8728 114.607 43.2554C114.118 42.8453 113.645 42.4492 113.171 42.053C112.697 41.6558 112.223 41.2585 111.749 40.8616C111.264 40.4563 110.784 40.0463 110.294 39.6478C109.817 39.2599 109.366 38.8406 108.851 38.4662C108.781 38.5505 108.724 38.6161 108.67 38.6846C108.433 38.9888 108.214 39.3086 107.958 39.5962C106.073 41.7151 103.697 43.0135 100.945 43.669C100.063 43.8792 99.165 43.9873 98.2594 44.0535C96.9217 44.1514 95.5941 44.0625 94.2731 43.8749C93.3258 43.7404 92.3936 43.5261 91.4768 43.245C89.0901 42.513 86.9616 41.3464 85.1653 39.6111C85.1131 39.5597 85.0507 39.5187 84.9355 39.4281ZM144.739 30.093C144.75 23.5792 139.43 18.2506 132.827 18.2015C126.198 18.1522 120.765 23.4332 120.731 30.0272C120.696 36.5692 125.988 41.9179 132.625 41.9762C139.389 42.0355 144.747 36.6163 144.739 30.093ZM84.597 30.0859C84.5911 36.5727 89.861 41.9287 96.5111 41.9764C103.251 42.0247 108.638 36.6233 108.607 30.0343C108.576 23.4707 103.189 18.1973 96.595 18.2011C89.9626 18.2048 84.5954 23.5359 84.597 30.0859ZM98.0722 12.9554C98.178 13.0063 98.2891 13.065 98.4041 13.1145C101.203 14.3173 104.001 15.5219 106.802 16.7195C108.024 17.2421 109.254 17.746 110.478 18.2671C110.878 18.4378 111.295 18.4982 111.724 18.5165C112.167 18.5353 112.605 18.489 113.037 18.4058C113.574 18.3023 114.084 18.1191 114.512 17.7611C114.549 17.7299 114.6 17.7137 114.654 17.6852C114.754 17.7536 114.85 17.8161 114.943 17.884C115.184 18.0616 115.452 18.1917 115.734 18.2852C116.509 18.5413 117.307 18.5875 118.112 18.5049C118.315 18.4841 118.519 18.4222 118.709 18.347C119.262 18.1291 119.809 17.8996 120.355 17.6666C122.765 16.6379 125.174 15.6074 127.583 14.5753C128.722 14.0871 129.859 13.5942 130.996 13.1033C131.098 13.0593 131.211 13.0304 131.286 12.9142C131.226 12.8609 131.184 12.8143 131.133 12.7787C130.763 12.5199 130.4 12.2515 130.02 12.0079C127.873 10.63 125.534 9.68684 123.073 9.02494C121.724 8.66186 120.355 8.39306 118.969 8.20411C117.955 8.06595 116.938 7.96378 115.917 7.92164C114.74 7.87316 113.563 7.88932 112.386 7.98341C111.095 8.08673 109.813 8.25529 108.542 8.49407C107.64 8.6634 106.749 8.88044 105.865 9.13C104.055 9.64085 102.314 10.316 100.658 11.2031C99.8261 11.6487 99.0296 12.1501 98.2718 12.7112C98.1932 12.7695 98.0825 12.8053 98.0722 12.9554ZM114.653 40.4798C114.743 40.3986 114.804 40.353 114.853 40.298C115.207 39.9066 115.559 39.5129 115.912 39.121C116.981 37.9353 118.049 36.7501 119.118 35.5646C119.17 35.5073 119.22 35.4488 119.271 35.3905C119.346 35.3035 119.352 35.209 119.311 35.104C119.209 34.8463 119.041 34.6395 118.832 34.4609C118.483 34.1627 118.075 33.9734 117.643 33.8293C116.777 33.5404 115.879 33.4367 114.974 33.3821C114.35 33.3446 113.731 33.4159 113.117 33.5021C112.541 33.583 111.971 33.7032 111.429 33.9253C111.068 34.0732 110.726 34.2514 110.439 34.5192C110.268 34.6791 110.13 34.8604 110.038 35.0788C109.981 35.2156 110 35.3243 110.099 35.4299C110.204 35.5427 110.304 35.6603 110.408 35.7751C111.561 37.0574 112.714 38.34 113.869 39.6216C114.118 39.8979 114.371 40.1708 114.653 40.4798Z" fill="white"/>
<path d="M127.775 24.2562C129.372 23.9891 131.995 24.7884 133.347 27.1861C134.637 29.4735 134.229 32.2904 132.384 34.1343C130.509 36.008 127.656 36.368 125.409 35.1646C122.911 33.8272 122.079 31.1705 122.364 29.4827C122.448 29.4098 122.533 29.4596 122.619 29.4817C123.333 29.6674 124.061 29.699 124.767 29.5089C126.341 29.0858 127.354 28.0748 127.807 26.5194C127.912 26.1595 127.958 25.7949 127.946 25.4201C127.937 25.1628 127.923 24.9098 127.845 24.6616C127.804 24.5304 127.779 24.3928 127.775 24.2562Z" fill="white"/>
<path d="M101.685 24.228C101.655 24.3946 101.645 24.523 101.61 24.6438C101.434 25.2386 101.45 25.8279 101.62 26.4225C101.705 26.719 101.794 27.0118 101.933 27.2876C102.564 28.5413 103.581 29.3108 104.965 29.5665C105.562 29.6768 106.176 29.6525 106.774 29.4995C106.859 29.4778 106.946 29.4609 107.058 29.436C107.081 29.5211 107.114 29.589 107.118 29.6589C107.293 32.459 105.425 34.9493 102.774 35.6573C100.365 36.3011 97.8851 35.3656 96.5014 33.4956C95.6057 32.2855 95.206 30.928 95.3684 29.4453C95.5644 27.6562 96.427 26.2249 97.9337 25.201C98.9664 24.4993 100.117 24.1635 101.373 24.2022C101.462 24.2047 101.55 24.2166 101.685 24.228Z" fill="white"/>
</svg>
