<svg width="95" height="85" viewBox="0 0 95 85" fill="none" xmlns="http://www.w3.org/2000/svg">
<ellipse cx="57.7841" cy="35.9028" rx="36.4892" ry="35.9028" fill="#EDE7FF"/>
<path d="M51 36.5V41V41.5H30L29.5 38L31 35.5L34 33L36.5 32.5L37 31L34.5 28.5L32.5 22.5L33.5 15.5L38 12.5H42.5L46 14.5L48 19.5V24.5L46 28.5L43.5 30.5L45 33L50 34.5L51 36.5Z" fill="white"/>
<path d="M27.5 73V77.5V78H6.5L6 74.5L7.5 72L10.5 69.5L13 69L13.5 67.5L11 65L9 59L10 52L14.5 49H19L22.5 51L24.5 56V61L22.5 65L20 67L21.5 69.5L26.5 71L27.5 73Z" fill="white"/>
<path d="M72.5 74V78.5V79H51.5L51 75.5L52.5 73L55.5 70.5L58 70L58.5 68.5L56 66L54 60L55 53L59.5 50H64L67.5 52L69.5 57V62L67.5 66L65 68L66.5 70.5L71.5 72L72.5 74Z" fill="white"/>
<path d="M67.4065 69.5209C67.2326 69.4733 67.0597 69.4261 66.888 69.3783C66.6615 69.3152 66.4808 68.9942 66.3446 68.6759C68.9478 66.871 70.8868 63.7774 70.8868 61.0805V58.628C70.8868 55.6019 69.939 53.0322 68.1458 51.1968C66.5364 49.5495 64.3688 48.6213 62.0424 48.5829C62.0313 48.5827 62.02 48.5827 62.009 48.5829C59.6825 48.6214 57.5149 49.5497 55.9056 51.1968C54.1124 53.0322 53.1646 55.6019 53.1646 58.628V61.0805C53.1646 63.7776 55.104 66.8706 57.7079 68.6752C57.5723 68.9935 57.3913 69.3149 57.1624 69.3784C56.9904 69.4265 56.8166 69.474 56.6417 69.5218C55.7673 69.7609 54.7916 70.0279 53.8644 70.4336L46.8202 63.1487C47.9452 61.6985 48.6193 59.8699 48.6193 57.8829C48.6193 53.5114 45.3681 49.9003 41.1991 49.4212V42.4134H50.7254C51.6315 42.4134 52.3685 41.6703 52.3685 40.757V38.6407C52.3685 33.7334 48.5515 32.6939 45.7644 31.9347C45.5938 31.8882 45.4242 31.842 45.2557 31.7951C45.0273 31.7318 44.8466 31.4104 44.7108 31.0907C47.3155 29.2878 49.2554 26.1955 49.2554 23.4976V21.0453C49.2554 18.0188 48.3075 15.4491 46.5137 13.6139C44.9041 11.9669 42.7355 11.0385 40.4072 11.0001C40.3962 11 40.3849 11 40.3738 11.0001C38.0472 11.0386 35.8797 11.9669 34.2704 13.614C32.4772 15.4494 31.5294 18.0191 31.5294 21.0453V23.4979C31.5294 26.1959 33.4695 29.2883 36.074 31.0911C35.9383 31.4106 35.7573 31.732 35.5286 31.7955C35.3607 31.8423 35.1909 31.8884 35.0204 31.935C32.2333 32.6941 28.4163 33.7339 28.4163 38.6409V40.7573C28.4163 41.6706 29.1535 42.4137 30.0594 42.4137H39.1776V49.4389C35.0739 49.9796 31.8923 53.5588 31.8923 57.883C31.8923 59.8716 32.5675 61.7018 33.6942 63.1525L26.8482 70.3017C25.5264 69.2516 23.804 68.7789 22.3584 68.3836C22.1834 68.3359 22.0094 68.2882 21.8356 68.2397C21.608 68.1764 21.4274 67.8552 21.292 67.5368C23.896 65.7321 25.8353 62.6392 25.8353 59.9421V57.4897C25.8353 54.4635 24.8875 51.8938 23.0943 50.0584C21.4849 48.4112 19.3174 47.4829 16.9909 47.4445C16.9799 47.4444 16.9685 47.4444 16.9575 47.4445C14.631 47.483 12.4635 48.4113 10.8541 50.0584C9.06089 51.8938 8.11309 54.4635 8.11309 57.4897V59.9421C8.11309 62.6389 10.0517 65.7322 12.6552 67.5374C12.5191 67.8558 12.3383 68.1768 12.1113 68.2401C11.94 68.2878 11.7671 68.3351 11.5933 68.3826C8.81077 69.1424 5 70.1834 5 75.0888V77.2052C5 78.1185 5.73717 78.8616 6.64306 78.8616H14.6618C15.2201 78.8616 15.6725 78.4091 15.6725 77.8509C15.6725 77.2927 15.2201 76.8401 14.6618 76.8401H7.02148V75.0888C7.02148 72.3802 8.46119 71.4495 10.9 70.687L15.371 73.3668C15.9474 73.7429 16.4609 73.9308 16.9741 73.9308C17.4872 73.9308 18 73.7427 18.5745 73.3665L23.0478 70.6873C25.4871 71.45 26.927 72.3805 26.927 75.0888V76.8401H19.0583C18.5 76.8401 18.0476 77.2927 18.0476 77.8509C18.0476 78.4091 18.5 78.8616 19.0583 78.8616H27.3053C28.2114 78.8616 28.9484 78.1185 28.9484 77.2052V75.0888C28.9484 73.7347 28.6569 72.6763 28.1778 71.8357L35.1153 64.5911C36.5346 65.7207 38.3185 66.3965 40.2556 66.3965C42.1945 66.3965 43.9799 65.7195 45.3999 64.5882L52.0797 71.4963C50.8959 72.4664 50.0513 73.9187 50.0513 76.2273V78.3437C50.0513 79.257 50.7885 80.0001 51.6944 80.0001H59.9039C60.4623 80.0001 60.9147 79.5476 60.9147 78.9894C60.9147 78.4312 60.4623 77.9786 59.9039 77.9786H52.0728V76.2273C52.0728 73.5188 53.5129 72.5887 55.9521 71.8258L60.4253 74.505C60.9998 74.8812 61.5125 75.0693 62.0258 75.0693C62.539 75.0693 63.0524 74.8813 63.6288 74.5053L68.0997 71.8256C70.5388 72.5879 71.9785 73.5186 71.9785 76.2272V77.9785H64.4767C63.9183 77.9785 63.4659 78.431 63.4659 78.9892C63.4659 79.5474 63.9183 80 64.4767 80H72.3569C73.263 80 74 79.2569 74 78.3436V76.2272C74 71.3216 70.1891 70.2808 67.4065 69.5209ZM16.9743 49.4657C20.0022 49.5235 23.2366 51.6659 23.745 56.2169C23.2994 56.013 23.0147 55.7168 22.7043 55.3941C22.2329 54.9038 21.6209 54.2673 20.5363 54.2673C20.2765 54.2673 19.9894 54.3038 19.671 54.3876C19.2567 54.496 18.9057 54.5913 18.6024 54.6737C17.7459 54.9066 17.3157 55.0233 16.9742 55.0233C16.6327 55.0233 16.2025 54.9065 15.346 54.6737C15.0427 54.5914 14.6918 54.496 14.2786 54.388C12.626 53.954 11.8263 54.7868 11.2421 55.395C10.9324 55.7172 10.6482 56.0132 10.2036 56.2168C10.7122 51.6658 13.9464 49.5235 16.9743 49.4657ZM10.1347 59.942V58.3578C11.5003 58.0403 12.2056 57.3096 12.6998 56.7954C13.1977 56.2772 13.2614 56.2109 13.7664 56.3433C14.1734 56.4497 14.5181 56.5433 14.8161 56.6243C15.8135 56.8953 16.363 57.0447 16.9743 57.0447C17.5856 57.0447 18.1351 56.8953 19.1326 56.6243C19.4306 56.5433 19.7754 56.4497 20.1839 56.3429C20.6858 56.2106 20.7495 56.2774 21.2473 56.7951C21.7419 57.3095 22.4481 58.0403 23.8141 58.3578V59.942C23.8141 62.4922 21.3688 65.6547 18.5809 66.7097C17.3949 67.159 16.5529 67.1588 15.3644 66.7097C12.5783 65.6543 10.1347 62.4918 10.1347 59.942ZM17.5177 71.6432C17.5049 71.6508 17.4924 71.6587 17.48 71.6669C16.9928 71.9887 16.9548 71.989 16.4633 71.6657C16.4516 71.658 16.4396 71.6504 16.4275 71.6432L13.399 69.828C13.8959 69.4728 14.2165 68.9666 14.4312 68.5124C14.5037 68.5422 14.5759 68.5727 14.6488 68.6003C15.4751 68.9124 16.2245 69.0685 16.9738 69.0685C17.7232 69.0685 18.4721 68.9123 19.2963 68.6C19.3698 68.5723 19.4426 68.5417 19.5156 68.5116C19.7299 68.9662 20.0502 69.4728 20.5478 69.8281L17.5177 71.6432ZM40.3905 13.0216C43.4202 13.0794 46.6565 15.2215 47.1649 19.7731C46.7185 19.5688 46.4334 19.2717 46.1231 18.948C45.6522 18.457 45.041 17.8196 43.9554 17.8196C43.6953 17.8196 43.4079 17.8562 43.0889 17.9403C42.6846 18.0469 42.3405 18.1409 42.0421 18.2225C41.1737 18.4599 40.7377 18.5792 40.3905 18.5792C40.0467 18.5792 39.6123 18.4603 38.7461 18.2234C38.4471 18.1416 38.1018 18.0471 37.6954 17.94C36.0441 17.5055 35.2444 18.3397 34.6602 18.9483C34.3499 19.2715 34.0652 19.5681 33.6199 19.7723C34.1285 15.2215 37.3628 13.0795 40.3905 13.0216ZM33.5509 23.4979V21.9136C34.9176 21.5956 35.6237 20.8635 36.1185 20.3481C36.616 19.8297 36.68 19.7631 37.1805 19.8948C37.5796 20 37.9189 20.0929 38.2129 20.1732C39.2205 20.4487 39.7755 20.6005 40.3905 20.6005C41.0091 20.6005 41.5654 20.4484 42.5754 20.1722C42.8686 20.0921 43.2069 19.9996 43.6037 19.8949C44.1044 19.7631 44.1679 19.8297 44.6641 20.3472C45.1587 20.8629 45.8651 21.5958 47.2338 21.9137V23.4979C47.2338 26.0034 44.74 29.227 42.0006 30.2616C40.8134 30.7115 39.9715 30.7115 38.7832 30.2613C36.0447 29.227 33.5509 26.0034 33.5509 23.4979ZM43.9657 33.3825L40.9378 35.1951C40.925 35.2028 40.9125 35.2108 40.8999 35.219C40.4114 35.5417 40.3736 35.5417 39.885 35.219C39.8725 35.2106 39.8597 35.2027 39.8468 35.1948L36.818 33.3832C37.3159 33.0275 37.6366 32.5207 37.8511 32.0648C37.9234 32.0944 37.9953 32.1246 38.0681 32.1521C38.8938 32.4649 39.6433 32.6212 40.3928 32.6212C41.142 32.6212 41.8911 32.4649 42.716 32.1524C42.7891 32.1248 42.8613 32.0944 42.9338 32.0646C43.1482 32.5204 43.4686 33.0269 43.9657 33.3825ZM30.4378 40.3921V38.6409C30.4378 35.9347 31.8773 35.0035 34.3158 34.2421L38.7905 36.9186C39.366 37.2953 39.8792 37.4837 40.3924 37.4837C40.9057 37.4837 41.4189 37.2953 41.9945 36.9185L46.4667 34.2414C48.9068 35.0029 50.347 35.9339 50.347 38.6409V40.3921H30.4378ZM40.2558 64.375C36.7589 64.375 33.9138 61.4627 33.9138 57.8829C33.9138 54.3011 36.7587 51.3871 40.2558 51.3871C43.7528 51.3871 46.5978 54.3011 46.5978 57.8829C46.5978 61.4627 43.7529 64.375 40.2558 64.375ZM62.0257 50.6041C65.0536 50.6619 68.2878 52.8041 68.7963 57.355C68.3517 57.1514 68.0675 56.8555 67.7578 56.5332C67.1736 55.9252 66.3736 55.0922 64.7225 55.526C64.3082 55.6343 63.9571 55.7296 63.6539 55.8121C62.7973 56.045 62.3672 56.1617 62.0257 56.1617C61.6842 56.1617 61.254 56.0448 60.3973 55.812C60.0941 55.7296 59.7431 55.6342 59.3305 55.5264C57.6806 55.0922 56.8799 55.9246 56.2956 56.5324C55.9852 56.8552 55.7004 57.1514 55.2549 57.3553C55.7635 52.8044 58.9979 50.662 62.0257 50.6041ZM55.1862 61.0804V59.4962C56.5522 59.1787 57.2583 58.4478 57.7529 57.9334C58.2507 57.4157 58.3146 57.3494 58.8178 57.4817C59.2247 57.588 59.5694 57.6817 59.8673 57.7627C60.8649 58.0337 61.4145 58.183 62.0258 58.183C62.6371 58.183 63.1865 58.0337 64.1841 57.7627C64.482 57.6817 64.8269 57.588 65.235 57.4813C65.7387 57.3491 65.8027 57.4155 66.3003 57.9336C66.7945 58.448 67.4998 59.1787 68.8654 59.4961V61.0802C68.8654 63.63 66.4217 66.7925 63.6368 67.8476C62.4469 68.2971 61.6052 68.2972 60.419 67.8478C57.6314 66.7929 55.1862 63.6305 55.1862 61.0804ZM62.5725 72.7817C62.5604 72.7889 62.5484 72.7963 62.5367 72.8042C62.0455 73.1273 62.0075 73.1273 61.52 72.8054C61.5076 72.7972 61.495 72.7892 61.4823 72.7817L58.4518 70.9666C58.9496 70.6111 59.27 70.1047 59.4843 69.6504C59.5572 69.6803 59.6298 69.7109 59.7031 69.7387C60.5276 70.0509 61.2765 70.2071 62.0259 70.2071C62.7752 70.2071 63.5253 70.0509 64.352 69.7387C64.4246 69.7112 64.4966 69.6808 64.5688 69.6512C64.7835 70.1054 65.1041 70.6115 65.6009 70.9668L62.5725 72.7817Z" fill="#3B1788"/>
</svg>
