<svg width="64" height="64" viewBox="0 0 64 64" fill="none" xmlns="http://www.w3.org/2000/svg">
<circle cx="32" cy="36.1035" r="23.7949" fill="white"/>
<ellipse cx="32.0008" cy="36.1024" rx="3.28205" ry="3.28205" fill="#EDE7FF"/>
<path d="M27.4858 3.28199L36.9221 3.69225L36.9221 7.38456L34.4603 7.38455L34.4603 11.0769L29.9475 11.0769L29.9477 7.38456L27.4862 7.38456L27.4858 3.28199Z" fill="white"/>
<path d="M47.1768 15.6653L49.7063 11.2653C49.8219 11.0641 49.8529 10.8253 49.7924 10.6013C49.732 10.3773 49.585 10.1865 49.3838 10.0708L45.8073 8.0163C45.6061 7.90074 45.3672 7.86984 45.1432 7.93042C44.9192 7.99099 44.7284 8.13807 44.6128 8.3393L42.0873 12.7348C39.8102 11.7526 37.4012 11.11 34.9373 10.8278V8.1533H36.7123C36.9444 8.1533 37.167 8.06111 37.3311 7.89702C37.4952 7.73292 37.5873 7.51036 37.5873 7.2783V3.1543C37.5874 3.03937 37.5648 2.92556 37.5209 2.81937C37.4769 2.71318 37.4125 2.6167 37.3312 2.53543C37.2499 2.45417 37.1535 2.38972 37.0473 2.34577C36.9411 2.30182 36.8273 2.27923 36.7123 2.2793H27.2883C27.1734 2.27923 27.0596 2.30182 26.9534 2.34577C26.8472 2.38972 26.7507 2.45417 26.6695 2.53543C26.5882 2.6167 26.5238 2.71318 26.4798 2.81937C26.4359 2.92556 26.4133 3.03937 26.4133 3.1543V7.2783C26.4133 7.51036 26.5055 7.73292 26.6696 7.89702C26.8337 8.06111 27.0563 8.1533 27.2883 8.1533H29.0633V10.8253C26.5995 11.1075 24.1905 11.7501 21.9133 12.7323L19.3878 8.3368C19.3307 8.23711 19.2544 8.14967 19.1634 8.07948C19.0724 8.00928 18.9685 7.95772 18.8575 7.92772C18.7466 7.89772 18.6308 7.88988 18.5169 7.90465C18.4029 7.91942 18.293 7.95651 18.1933 8.0138L14.6168 10.0683C14.4157 10.184 14.2687 10.3748 14.2083 10.5988C14.1478 10.8228 14.1787 11.0616 14.2943 11.2628L16.8238 15.6653C12.5013 18.8597 9.29687 23.3367 7.66708 28.4585C6.03728 33.5803 6.0652 39.0858 7.74685 44.1909C9.4285 49.2959 12.6781 53.7401 17.0329 56.8906C21.3876 60.041 26.6255 61.737 32.0003 61.737C37.3752 61.737 42.613 60.041 46.9678 56.8906C51.3226 53.7401 54.5722 49.2959 56.2538 44.1909C57.9355 39.0858 57.9634 33.5803 56.3336 28.4585C54.7038 23.3367 51.4994 18.8597 47.1768 15.6653ZM45.6943 9.9653L47.7528 11.1508L45.7288 14.6738C45.0622 14.2478 44.3767 13.8525 43.6723 13.4878L45.6943 9.9653ZM28.1633 4.0293H35.8373V6.4033H28.1633V4.0293ZM30.8133 8.1533H33.1873V10.6818C32.7938 10.6633 32.4003 10.6508 32.0003 10.6508C31.6003 10.6508 31.2068 10.6628 30.8133 10.6813V8.1533ZM16.2478 11.1508L18.3063 9.9683L20.3283 13.4878C19.6233 13.8518 18.9378 14.2471 18.2718 14.6738L16.2478 11.1508ZM32.0003 59.9723C27.296 59.9723 22.6973 58.5773 18.7858 55.9637C14.8743 53.3501 11.8256 49.6353 10.0254 45.289C8.22511 40.9427 7.7541 36.1602 8.67191 31.5463C9.58972 26.9323 11.8551 22.6942 15.1816 19.3677C18.5081 16.0413 22.7464 13.776 27.3603 12.8583C31.9743 11.9406 36.7568 12.4117 41.103 14.212C45.4492 16.0123 49.164 19.0611 51.7775 22.9726C54.391 26.8842 55.7859 31.4829 55.7858 36.1873C55.7786 42.4933 53.2702 48.539 48.8112 52.998C44.3521 57.457 38.3064 59.9652 32.0003 59.9723Z" fill="#3B1788"/>
<path d="M49.2032 46.031C50.9337 43.0195 51.8398 39.6052 51.8303 36.132C51.8208 32.6587 50.8961 29.2494 49.1492 26.2475C49.1376 26.2175 49.1242 26.1883 49.1092 26.16C49.0937 26.1366 49.077 26.1141 49.0592 26.0925C47.3376 23.1963 44.9114 20.7827 42.0062 19.0765C41.9823 19.0568 41.9573 19.0386 41.9312 19.0219C41.9028 19.0072 41.8736 18.9942 41.8437 18.983C38.8325 17.2524 35.4183 16.3461 31.9453 16.3555C28.4722 16.3649 25.063 17.2896 22.0612 19.0364C22.0308 19.0485 22.0011 19.0622 21.9722 19.0775C21.9492 19.093 21.927 19.1097 21.9057 19.1275C19.0091 20.849 16.5951 23.2752 14.8882 26.1805C14.8467 26.2277 14.8151 26.2828 14.7952 26.3425C13.0647 29.3538 12.1586 32.7681 12.168 36.2412C12.1775 39.7143 13.1023 43.1236 14.8492 46.1255C14.8609 46.1555 14.8742 46.1849 14.8892 46.2135C14.9002 46.2325 14.9167 46.2465 14.9287 46.2635C16.6505 49.1665 19.0799 51.5859 21.9902 53.2955C22.0146 53.3153 22.0402 53.3339 22.0667 53.351C22.0887 53.3635 22.1127 53.3685 22.1352 53.3795C25.1519 55.117 28.574 56.0268 32.0553 56.0169C35.5366 56.007 38.9535 55.0776 41.9602 53.323C41.9817 53.3125 42.0047 53.308 42.0257 53.2955C42.0467 53.283 42.0697 53.263 42.0922 53.2455C44.9953 51.5202 47.4137 49.0871 49.1212 46.1735C49.1347 46.154 49.1517 46.1395 49.1637 46.1185C49.1788 46.0902 49.192 46.061 49.2032 46.031ZM41.8807 51.317L40.7562 49.4005C40.6388 49.2002 40.4467 49.0548 40.2222 48.9962C39.9976 48.9376 39.7589 48.9706 39.5587 49.088C39.3585 49.2053 39.213 49.3974 39.1544 49.622C39.0958 49.8466 39.1288 50.0852 39.2462 50.2855L40.3722 52.2065C38.0513 53.4264 35.4913 54.1231 32.8722 54.2475V52.015C32.8722 51.7829 32.78 51.5603 32.6159 51.3962C32.4518 51.2321 32.2293 51.14 31.9972 51.14C31.7651 51.14 31.5426 51.2321 31.3785 51.3962C31.2144 51.5603 31.1222 51.7829 31.1222 52.015V54.2475C28.5381 54.1235 26.0114 53.4422 23.7152 52.2505L24.8302 50.324C24.9428 50.1233 24.9718 49.8864 24.911 49.6646C24.8503 49.4427 24.7045 49.2537 24.5054 49.1384C24.3063 49.0232 24.0698 48.991 23.8472 49.0488C23.6245 49.1067 23.4336 49.2499 23.3157 49.4475L22.2022 51.372C20.0748 49.9941 18.2583 48.1877 16.8687 46.068L18.7872 44.944C18.9863 44.8261 19.1307 44.6342 19.1887 44.4102C19.2467 44.1862 19.2136 43.9483 19.0966 43.7487C18.9797 43.549 18.7884 43.4038 18.5646 43.3448C18.3409 43.2858 18.1029 43.3179 17.9027 43.434L15.9817 44.56C14.7616 42.2391 14.0647 39.6791 13.9402 37.06H16.1727C16.4048 37.06 16.6273 36.9678 16.7914 36.8037C16.9555 36.6396 17.0477 36.417 17.0477 36.185C17.0477 35.9529 16.9555 35.7303 16.7914 35.5662C16.6273 35.4021 16.4048 35.31 16.1727 35.31H13.9402C14.0636 32.7253 14.7443 30.1979 15.9357 27.901L17.8627 29.0155C18.0632 29.1257 18.2989 29.1531 18.5193 29.0917C18.7397 29.0303 18.9273 28.885 19.0418 28.6869C19.1564 28.4888 19.1888 28.2538 19.1322 28.0321C19.0755 27.8104 18.9342 27.6197 18.7387 27.501L16.8147 26.3875C18.1924 24.2609 19.9985 22.445 22.1177 21.056L23.2422 22.9745C23.36 23.1736 23.5519 23.318 23.776 23.3759C24 23.4339 24.2378 23.4008 24.4375 23.2839C24.6372 23.1669 24.7824 22.9756 24.8413 22.7519C24.9003 22.5281 24.8683 22.2901 24.7522 22.09L23.6262 20.169C25.947 18.9487 28.5071 18.2521 31.1262 18.128V20.36C31.1262 20.592 31.2184 20.8146 31.3825 20.9787C31.5466 21.1428 31.7691 21.235 32.0012 21.235C32.2333 21.235 32.4558 21.1428 32.6199 20.9787C32.784 20.8146 32.8762 20.592 32.8762 20.36V18.128C35.4608 18.2512 37.9882 18.9317 40.2852 20.1229L39.1682 22.0504C39.1088 22.15 39.0698 22.2603 39.0534 22.375C39.037 22.4897 39.0436 22.6066 39.0727 22.7187C39.1019 22.8309 39.153 22.9361 39.2231 23.0284C39.2933 23.1206 39.381 23.198 39.4813 23.2561C39.5816 23.3141 39.6925 23.3516 39.8074 23.3665C39.9223 23.3814 40.0391 23.3733 40.1508 23.3426C40.2626 23.312 40.3671 23.2595 40.4585 23.1882C40.5498 23.1168 40.626 23.028 40.6827 22.927L41.7962 21.0005C43.9237 22.3786 45.7402 24.1854 47.1297 26.3055L45.2112 27.4295C45.1115 27.4873 45.0242 27.5642 44.9543 27.6558C44.8845 27.7474 44.8334 27.852 44.804 27.9634C44.7746 28.0748 44.7676 28.1909 44.7832 28.3051C44.7988 28.4193 44.8369 28.5292 44.8951 28.6287C44.9533 28.7281 45.0307 28.815 45.1226 28.8845C45.2145 28.954 45.3193 29.0046 45.4308 29.0335C45.5424 29.0624 45.6585 29.0689 45.7726 29.0528C45.8867 29.0366 45.9965 28.9981 46.0957 28.9395L48.0172 27.8135C49.2369 30.1345 49.9335 32.6944 50.0582 35.3135H47.8257C47.5936 35.3135 47.3711 35.4056 47.207 35.5697C47.0429 35.7338 46.9507 35.9564 46.9507 36.1885C46.9507 36.4205 47.0429 36.6431 47.207 36.8072C47.3711 36.9713 47.5936 37.0635 47.8257 37.0635H50.0582C49.9345 39.6474 49.2538 42.1741 48.0627 44.4705L46.1362 43.3555C45.9353 43.2392 45.6964 43.2076 45.4722 43.2674C45.248 43.3273 45.0567 43.4738 44.9404 43.6747C44.8242 43.8756 44.7925 44.1145 44.8524 44.3387C44.9123 44.5629 45.0588 44.7542 45.2597 44.8705L47.1837 45.984C45.8062 48.1111 44 49.9275 41.8807 51.317Z" fill="#3B1788"/>
<path d="M45.1963 36.1872C45.1963 35.9552 45.1041 35.7326 44.94 35.5685C44.7759 35.4044 44.5534 35.3122 44.3213 35.3122H35.8963C35.7292 34.5745 35.3568 33.8992 34.822 33.3643C34.2872 32.8295 33.6119 32.4569 32.8743 32.2897V23.8652C32.8743 23.6332 32.7821 23.4106 32.618 23.2465C32.4539 23.0824 32.2314 22.9902 31.9993 22.9902C31.7672 22.9902 31.5447 23.0824 31.3806 23.2465C31.2165 23.4106 31.1243 23.6332 31.1243 23.8652V32.2897C30.4262 32.4461 29.7829 32.787 29.2615 33.2769C28.7401 33.7667 28.3599 34.3876 28.1604 35.0746C27.9609 35.7616 27.9496 36.4896 28.1275 37.1825C28.3055 37.8754 28.6662 38.5079 29.1721 39.0137C29.6779 39.5196 30.3103 39.8804 31.0032 40.0585C31.6961 40.2365 32.424 40.2252 33.1111 40.0258C33.7981 39.8264 34.419 39.4462 34.909 38.9249C35.3989 38.4036 35.7399 37.7603 35.8963 37.0622H44.3213C44.5533 37.0621 44.7758 36.9699 44.9399 36.8058C45.1039 36.6417 45.1962 36.4192 45.1963 36.1872ZM31.9993 38.4337C31.5548 38.4338 31.1203 38.3021 30.7507 38.0552C30.3811 37.8084 30.0931 37.4575 29.9229 37.0468C29.7528 36.6362 29.7083 36.1844 29.7949 35.7485C29.8816 35.3126 30.0956 34.9121 30.4099 34.5979C30.7242 34.2836 31.1246 34.0696 31.5605 33.9829C31.9965 33.8962 32.4483 33.9407 32.8589 34.1109C33.2695 34.281 33.6204 34.5691 33.8673 34.9387C34.1142 35.3083 34.2459 35.7428 34.2458 36.1872C34.2449 36.7828 34.0079 37.3536 33.5868 37.7747C33.1657 38.1958 32.5948 38.4328 31.9993 38.4337Z" fill="#3B1788"/>
</svg>
