<svg width="64" height="64" viewBox="0 0 64 64" fill="none" xmlns="http://www.w3.org/2000/svg">
<g clip-path="url(#clip0)">
<path d="M23.0697 55.069L16.7441 39.0689L34.2325 29.3945L36.4651 30.1387L37.5813 32.3713L36.093 35.7201L33.1162 38.6969L32.372 39.8131L33.1162 40.9294H40.5581L44.279 40.5573L53.5813 33.8596L55.8139 33.1155L58.7906 33.8596L60.279 37.5806L55.8139 42.0457L46.5116 49.4876L23.0697 55.069Z" fill="white"/>
<path d="M43.9062 10.0174L44.3642 39.3269V40.7008L52.6075 34.7473V14.139V10.9333L50.7757 8.18555H46.1961L43.9062 10.0174Z" fill="white"/>
<path d="M32 19.0485L32.4821 46.294V47.5711L41.1592 42.0369V22.8799V19.9L39.231 17.3457H34.4103L32 19.0485Z" fill="white"/>
<path d="M20.0918 25.9619L20.5739 46.6024V47.5699L29.251 43.3773V28.8645V26.6069L27.3228 24.6719H22.5021L20.0918 25.9619Z" fill="white"/>
<path d="M6.81129 41.6169L16.8864 38.8691L23.2979 54.8978V57.1876L21.466 60.8513L14.1387 63.1411H10.9329L8.18517 59.9353L5.43741 50.7761L4.52148 45.2806L6.81129 41.6169Z" fill="white"/>
<path d="M59.6515 33.4347C56.7106 30.507 53.3107 33.2472 53.3107 33.2472V17.8345C53.3107 17.317 52.8912 16.897 52.3736 16.897C51.8556 16.897 51.4361 17.317 51.4361 17.8345V34.5661C51.4361 34.5661 46.9659 38.09 45.0445 38.9514V11.2002C45.0445 9.91017 46.0938 8.86085 47.3839 8.86085H49.0968C50.3868 8.86085 51.4361 9.91017 51.4361 11.2002V13.9966C51.4361 14.5147 51.8556 14.9341 52.3736 14.9341C52.8912 14.9341 53.3107 14.5147 53.3107 13.9966V11.2002C53.3107 8.87648 51.4205 6.98633 49.0968 6.98633H47.3839C45.0601 6.98633 43.1695 8.87648 43.1695 11.2002V39.6945C42.6104 39.8513 42.0367 39.9577 41.4537 40.0139V20.2496C41.4537 17.9141 39.5537 16.0142 37.2188 16.0142H35.5474C33.2124 16.0142 31.3125 17.9141 31.3125 20.2496V29.8014L29.5962 30.7125V27.5338C29.5962 25.4313 27.8857 23.7208 25.7836 23.7208H23.268C21.1655 23.7208 19.4555 25.4313 19.4555 27.5338V36.0954L16.3944 37.7199L7.79868 40.1765C6.30307 40.6037 5.05404 41.5832 4.28255 42.9338C3.51057 44.2849 3.3011 45.8581 3.6927 47.3635L4.65413 51.0628C4.78402 51.5637 5.29574 51.864 5.79721 51.7342C6.29819 51.6038 6.59897 51.0921 6.4686 50.5906L5.50717 46.8918C4.94955 44.7463 6.18246 42.5881 8.31431 41.9792L16.1732 39.7331L22.08 55.4979C22.4755 56.5535 22.413 59.5653 19.2885 60.6751L13.3495 62.0243C11.2797 62.494 9.2401 61.2533 8.70591 59.1986L7.50034 54.5594C7.36997 54.0584 6.85825 53.7576 6.35727 53.8875C5.8558 54.0179 5.55551 54.5296 5.68539 55.0311L6.89145 59.6707C7.56919 62.2772 9.88463 63.9994 12.4623 63.9994C14.3563 63.9994 19.704 62.5033 19.704 62.5033C21.3315 62.1341 22.7192 61.0794 23.5107 59.6107C24.164 58.3988 24.3579 57.0042 24.0776 55.6756L44.6246 50.6453C46.3238 50.2288 47.9371 49.4216 49.2887 48.3108L59.2877 40.0949C62.3361 37.3913 60.548 34.3268 59.6515 33.4347ZM35.5474 17.8892H37.2188C38.52 17.8892 39.5786 18.9483 39.5786 20.2496V40.0607L33.6631 40.0583C33.1196 40.0534 33.4956 39.6945 33.5254 39.6701L35.229 38.2902C36.8184 37.0026 37.8565 35.2126 38.314 32.9689C38.6045 31.5456 38.0615 30.1207 36.898 29.2506C35.811 28.4381 34.4131 28.2819 33.1875 28.819V20.2496C33.1875 18.9483 34.2461 17.8892 35.5474 17.8892ZM21.3305 27.5338C21.3305 26.4655 22.1996 25.5958 23.268 25.5958H25.7836C26.852 25.5958 27.7216 26.4655 27.7216 27.5338V31.7077L21.33 35.1003V27.5338H21.3305ZM58.0978 38.6467L48.0982 46.8625C46.9625 47.7961 45.607 48.4744 44.1788 48.824L23.4804 53.8919L17.914 39.0368L33.8076 30.6002C34.4536 30.257 35.1895 30.3141 35.7749 30.7521C36.3604 31.1901 36.6231 31.8786 36.4771 32.5944C36.1084 34.4006 35.2915 35.8268 34.0488 36.8332L32.3452 38.2136C31.647 38.779 31.3896 39.6916 31.6894 40.5388C31.9892 41.3855 32.7637 41.9333 33.6621 41.9333L40.4927 41.9362H40.4976C42.9292 41.9362 45.2662 41.197 47.2554 39.798L54.8893 34.4299C55.9581 33.6779 57.3971 33.8107 58.3102 34.7453C58.8361 35.2824 59.8654 36.8786 58.0978 38.6467Z" fill="#3B1788"/>
<ellipse cx="14.5954" cy="55.8142" rx="2.74776" ry="2.74776" fill="#EDE7FF"/>
<path d="M18.4883 56.0982C18.4883 54.0615 16.8316 52.4043 14.7949 52.4043C12.7583 52.4043 11.1016 54.0615 11.1016 56.0982C11.1016 58.1343 12.7583 59.7915 14.7949 59.7915C16.8316 59.7915 18.4883 58.1343 18.4883 56.0982ZM12.9766 56.0982C12.9766 55.0952 13.792 54.2793 14.7949 54.2793C15.7974 54.2793 16.6133 55.0952 16.6133 56.0982C16.6133 57.1006 15.7979 57.9165 14.7949 57.9165C13.792 57.9165 12.9766 57.1006 12.9766 56.0982Z" fill="#3B1788"/>
<path d="M23.7548 20.5517L39.7834 4.52306L40.6994 2.69122L38.8675 0.859375L36.5777 1.7753L22.8389 15.5141L18.7172 13.6823H17.3434L8.18415 22.3835L7.72619 19.1778L5.89434 17.8039L4.0625 19.1778V27.8791L4.97842 29.7109H14.1376L15.5115 27.4211L14.1376 25.5892L11.3899 25.1313L18.7172 18.2619L23.7548 20.5517Z" fill="white"/>
<path d="M36.3284 0.885086L22.7004 14.6181L19.635 13.0326C18.5368 12.4647 17.2004 12.6591 16.3098 13.5165L8.89175 20.6572C8.89175 20.6572 9.09585 16.9897 6.00746 16.9897C4.4176 16.9897 3.12365 18.2836 3.12365 19.874L3.12365 27.4365C3.12365 27.4453 3.12413 27.4546 3.12413 27.4638C3.13439 29.437 4.57727 30.3203 6.00745 30.3203L13.5041 30.3203C15.0944 30.3203 16.3879 29.0264 16.3879 27.4365C16.3879 24.2666 13.1618 24.5527 13.1618 24.5527L18.821 19.1054L21.9309 20.7138C23.0554 21.2958 24.4104 21.0825 25.303 20.184L40.4222 4.9481C41.5423 3.81918 41.5355 1.98958 40.4066 0.869461C39.8626 0.329906 38.0052 -0.791682 36.3284 0.885086ZM39.0916 3.62729L23.9724 18.8632C23.7771 19.0595 23.4636 19.4033 22.7922 19.0483L19.0857 17.1313C18.7287 16.9467 18.2942 17.0097 18.0046 17.2885L10.1862 24.8144C9.9108 25.0796 9.82389 25.4858 9.96695 25.8403C10.11 26.1953 10.4538 26.4272 10.8366 26.4272L13.5041 26.4272C14.0602 26.4272 14.5129 26.8799 14.5129 27.4365C14.5129 27.9927 14.0602 28.4453 13.5041 28.4453L6.00745 28.4453C5.73157 28.4453 4.99915 28.4453 4.99915 27.4424C4.99915 27.4341 4.99866 27.4258 4.99866 27.417L4.99866 19.874C4.99866 19.3178 5.4513 18.8652 6.00745 18.8652C6.5641 18.8652 7.01674 19.3178 7.01674 19.874L7.01674 22.8608C7.01674 23.2368 7.24135 23.5766 7.58705 23.7236C7.93276 23.8711 8.33315 23.7968 8.60415 23.5361L17.6101 14.8671C17.9216 14.5673 18.3894 14.4989 18.7732 14.6977L22.4499 16.5995C22.8137 16.7875 23.2576 16.7177 23.5461 16.4272L37.659 2.20589C38.2743 1.59066 38.8958 2.01156 39.0863 2.20052C39.4808 2.59261 39.4832 3.23276 39.0916 3.62729Z" fill="#3B1788"/>
</g>
<defs>
<clipPath id="clip0">
<rect width="64" height="64" fill="white"/>
</clipPath>
</defs>
</svg>
