<svg width="86" height="80" viewBox="0 0 86 80" fill="none" xmlns="http://www.w3.org/2000/svg">
<circle cx="49.9028" cy="35.9028" r="35.9028" fill="#EDE7FF"/>
<g clip-path="url(#clip0)">
<circle cx="13.5" cy="23.5" r="7.5" fill="white"/>
<circle cx="34.5" cy="19.5" r="4.5" fill="white"/>
<circle cx="56.5" cy="30.5" r="9.5" fill="white"/>
<circle cx="59" cy="54" r="5" fill="white"/>
<circle cx="48.5" cy="70.5" r="5.5" fill="white"/>
<circle cx="10" cy="68" r="9" fill="white"/>
<circle cx="9.5" cy="41.5" r="4.5" fill="white"/>
<circle cx="33.5" cy="44.5" r="12.5" fill="white"/>
<path d="M63.6543 38.5264C64.3878 38.5264 64.9824 37.9317 64.9824 37.1982C64.9824 36.4647 64.3878 35.8701 63.6543 35.8701C62.9208 35.8701 62.3262 36.4647 62.3262 37.1982C62.3262 37.9317 62.9208 38.5264 63.6543 38.5264Z" fill="#3B1788"/>
<path d="M67.1128 25.6611C66.5444 24.317 65.7302 23.1098 64.693 22.0738C63.657 21.0366 62.4498 20.2224 61.1057 19.654C59.7138 19.0656 58.2356 18.7668 56.7109 18.7668C55.1862 18.7668 53.708 19.0656 52.3162 19.654C50.9721 20.2224 49.7648 21.0366 48.7289 22.0738C47.6916 23.1098 46.8775 24.317 46.3091 25.6611C45.7207 27.053 45.4219 28.5325 45.4219 30.0559C45.4219 31.5805 45.7207 33.0587 46.3091 34.4506C46.3913 34.6449 46.4801 34.8355 46.5724 35.024L44.3893 36.3757C42.2693 33.4973 39.0716 31.4597 35.3965 30.8634L35.6247 25.1793C38.3995 24.6639 40.5078 22.2266 40.5078 19.3047C40.5078 16.0092 37.8267 13.3281 34.5312 13.3281C31.2358 13.3281 28.5547 16.0092 28.5547 19.3047C28.5547 22.0603 30.4297 24.3849 32.9704 25.0731L32.7451 30.6887C29.6764 30.7777 26.8534 31.8628 24.5882 33.6313L20.6561 29.6044C21.8601 28.0371 22.5781 26.0779 22.5781 23.9531C22.5781 18.8268 18.4075 14.6562 13.2812 14.6562C8.15495 14.6562 3.98438 18.8268 3.98438 23.9531C3.98438 29.0794 8.15495 33.25 13.2812 33.25C15.3268 33.25 17.219 32.5845 18.7559 31.4606L22.6582 35.4568C21.1993 37.1245 20.1308 39.1417 19.5958 41.3646L15.9148 40.8446C15.6595 37.7825 13.0876 35.3684 9.9608 35.3684C6.66533 35.3684 3.98424 38.0494 3.98424 41.3449C3.98424 44.6404 6.66533 47.3215 9.9608 47.3215C12.5062 47.3215 14.6836 45.7215 15.5437 43.4748L19.2245 43.9948C19.215 44.2046 19.2095 44.4154 19.2095 44.6275C19.2095 48.1509 20.5236 51.3728 22.6866 53.8302L17.0471 59.5896C15.262 58.2308 13.0366 57.4219 10.625 57.4219C4.76638 57.4219 0 62.1883 0 68.0469C0 73.9055 4.76638 78.6719 10.625 78.6719C16.4836 78.6719 21.25 73.9055 21.25 68.0469C21.25 65.5552 20.3857 63.263 18.9441 61.4492L24.6224 55.65C26.9825 57.4811 29.9434 58.573 33.1548 58.573C35.3771 58.573 37.4792 58.0495 39.3456 57.1209L44.162 65.2496C42.6296 66.5897 41.6588 68.5567 41.6588 70.7475C41.6588 74.7753 44.9356 78.0522 48.9635 78.0522C52.9913 78.0522 56.2681 74.7753 56.2681 70.7475C56.2681 66.7197 52.9913 63.4428 48.9635 63.4428C48.0785 63.4428 47.23 63.6012 46.4444 63.8908L41.6009 55.7163C43.3618 54.3718 44.7943 52.6186 45.7552 50.5989L52.7955 53.1933C52.7501 53.4896 52.7266 53.7929 52.7266 54.1017C52.7266 57.3972 55.4076 60.0783 58.7031 60.0783C61.9986 60.0783 64.6797 57.3972 64.6797 54.1017C64.6797 50.8062 61.9986 48.1251 58.7031 48.1251C56.6605 48.1251 54.8546 49.1558 53.7762 50.7237L46.6619 48.102C46.9479 46.9909 47.1001 45.8267 47.1001 44.6276C47.1001 42.4915 46.6167 40.4662 45.7544 38.6548L48.0153 37.255C48.24 37.5255 48.4776 37.787 48.7289 38.0379C49.7648 39.0752 50.9721 39.8893 52.3162 40.4577C53.708 41.0461 55.1862 41.3449 56.7109 41.3449C57.3564 41.3449 58.0032 41.2905 58.6341 41.1816C58.9847 41.1218 59.2888 40.9292 59.4947 40.6397C59.6992 40.3488 59.7789 39.9969 59.7191 39.6476C59.6089 39.0087 59.0591 38.5439 58.4109 38.5439C58.3352 38.5439 58.2595 38.5505 58.1852 38.5638C57.7017 38.6462 57.205 38.6887 56.7109 38.6887C54.4066 38.6887 52.2391 37.7895 50.6069 36.1599C48.9773 34.5277 48.0781 32.3602 48.0781 30.0559C48.0781 27.7516 48.9773 25.5841 50.6069 23.9518C52.2391 22.3222 54.4066 21.423 56.7109 21.423C59.0152 21.423 61.1827 22.3222 62.815 23.9518C64.4446 25.5841 65.3438 27.7516 65.3438 30.0559C65.3438 30.6336 65.2866 31.2113 65.1738 31.7718C65.029 32.4903 65.4952 33.1916 66.2123 33.3363C66.3 33.3536 66.389 33.3629 66.4766 33.3629C67.1062 33.3629 67.6534 32.914 67.7769 32.2964C67.9256 31.5633 68 30.8102 68 30.0559C68 28.5325 67.7012 27.053 67.1128 25.6611ZM9.96094 44.6654C8.13012 44.6654 6.64062 43.1759 6.64062 41.3451C6.64062 39.5142 8.13012 38.0247 9.96094 38.0247C11.7918 38.0247 13.2812 39.5142 13.2812 41.3451C13.2812 43.1759 11.7918 44.6654 9.96094 44.6654ZM53.612 70.7474C53.612 73.3105 51.5267 75.3958 48.9636 75.3958C46.4004 75.3958 44.3151 73.3105 44.3151 70.7474C44.3151 68.1842 46.4004 66.0989 48.9636 66.0989C51.5267 66.0989 53.612 68.1843 53.612 70.7474ZM58.7031 50.7812C60.5339 50.7812 62.0234 52.2707 62.0234 54.1016C62.0234 55.9324 60.5339 57.4219 58.7031 57.4219C56.8723 57.4219 55.3828 55.9324 55.3828 54.1016C55.3828 52.2707 56.8723 50.7812 58.7031 50.7812ZM31.2109 19.3047C31.2109 17.4739 32.7004 15.9844 34.5312 15.9844C36.3621 15.9844 37.8516 17.4739 37.8516 19.3047C37.8516 21.1355 36.3621 22.625 34.5312 22.625C32.7004 22.625 31.2109 21.1355 31.2109 19.3047ZM6.64062 23.9531C6.64062 20.2915 9.61961 17.3125 13.2812 17.3125C16.9429 17.3125 19.9219 20.2915 19.9219 23.9531C19.9219 27.6148 16.9429 30.5938 13.2812 30.5938C9.61961 30.5938 6.64062 27.6148 6.64062 23.9531ZM10.625 76.0156C6.23103 76.0156 2.65625 72.4408 2.65625 68.0469C2.65625 63.6529 6.23103 60.0781 10.625 60.0781C15.019 60.0781 18.5938 63.6529 18.5938 68.0469C18.5938 72.4408 15.019 76.0156 10.625 76.0156ZM33.1548 55.9167C26.93 55.9167 21.8657 50.8524 21.8657 44.6276C21.8657 38.4029 26.93 33.3386 33.1548 33.3386C39.3796 33.3386 44.4438 38.4029 44.4438 44.6276C44.4438 50.8524 39.3796 55.9167 33.1548 55.9167Z" fill="#3B1788"/>
</g>
<defs>
<clipPath id="clip0">
<rect width="68" height="68" fill="white" transform="translate(0 12)"/>
</clipPath>
</defs>
</svg>
