<svg width="333" height="362" viewBox="0 0 333 362" fill="none" xmlns="http://www.w3.org/2000/svg">
<path d="M122.464 286.464L91.627 208.464L176.883 161.301L187.766 164.929L193.208 175.812L185.953 192.138L171.441 206.65L167.813 212.092L171.441 217.533H207.72L225.859 215.719L271.208 183.068L282.092 179.44L296.604 183.068L303.859 201.208L282.092 222.975L236.743 259.254L122.464 286.464Z" fill="white"/>
<path d="M224.043 66.8345L226.276 209.718V216.416L266.462 187.393V86.9276V71.2996L257.531 57.9043H235.206L224.043 66.8345Z" fill="white"/>
<path d="M166 110.864L168.35 243.685V249.91L210.651 222.931V129.541V115.015L201.251 102.562H177.75L166 110.864Z" fill="white"/>
<path d="M107.947 144.564L110.297 245.187V249.903L152.598 229.464V158.714V147.709L143.198 138.275H119.698L107.947 144.564Z" fill="white"/>
<path d="M43.2038 220.884L92.3201 207.488L123.576 285.628V296.791L114.646 314.651L78.9247 325.814H63.2968L49.9015 310.186L36.5061 265.535L32.041 238.744L43.2038 220.884Z" fill="white"/>
<path d="M300.801 180.995C286.464 166.722 269.889 180.08 269.889 180.08V104.944C269.889 102.42 267.845 100.373 265.321 100.373C262.796 100.373 260.751 102.42 260.751 104.944V186.51C260.751 186.51 238.959 203.689 229.592 207.888V72.6013C229.592 66.3123 234.707 61.1969 240.996 61.1969H249.347C255.636 61.1969 260.751 66.3123 260.751 72.6013V86.2338C260.751 88.7594 262.796 90.8041 265.321 90.8041C267.845 90.8041 269.889 88.7594 269.889 86.2338V72.6013C269.889 61.2731 260.675 52.0586 249.347 52.0586H240.996C229.668 52.0586 220.451 61.2731 220.451 72.6013V211.511C217.726 212.275 214.929 212.794 212.087 213.068V116.717C212.087 105.332 202.824 96.0695 191.441 96.0695H183.293C171.91 96.0695 162.648 105.332 162.648 116.717V163.282L154.281 167.724V152.228C154.281 141.978 145.943 133.639 135.695 133.639H123.432C113.182 133.639 104.845 141.978 104.845 152.228V193.965L89.9229 201.885L48.0186 213.861C40.7275 215.943 34.6384 220.718 30.8774 227.303C27.114 233.889 26.0929 241.559 28.0019 248.897L32.6889 266.931C33.3221 269.374 35.8167 270.837 38.2614 270.204C40.7037 269.569 42.17 267.074 41.5344 264.629L36.8474 246.598C34.129 236.139 40.1395 225.617 50.5323 222.649L88.8445 211.699L117.64 288.552C119.568 293.699 119.263 308.381 104.031 313.792L75.0788 320.369C64.9883 322.658 55.0455 316.61 52.4413 306.593L46.5642 283.977C45.9286 281.535 43.434 280.069 40.9917 280.702C38.547 281.337 37.0831 283.832 37.7163 286.277L43.5958 308.895C46.8998 321.602 58.1876 329.997 70.7536 329.997C79.9871 329.997 106.057 322.704 106.057 322.704C113.991 320.904 120.756 315.762 124.615 308.602C127.8 302.694 128.745 295.896 127.378 289.419L227.545 264.896C235.829 262.866 243.693 258.931 250.282 253.515L299.028 213.463C313.888 200.283 305.171 185.344 300.801 180.995ZM183.293 105.21H191.441C197.785 105.21 202.946 110.373 202.946 116.717V213.296L174.108 213.284C171.458 213.261 173.291 211.511 173.436 211.392L181.741 204.665C189.49 198.388 194.55 189.662 196.781 178.724C198.197 171.785 195.55 164.839 189.878 160.597C184.579 156.636 177.764 155.874 171.789 158.493V116.717C171.789 110.373 176.95 105.21 183.293 105.21ZM113.986 152.228C113.986 147.019 118.223 142.78 123.432 142.78H135.695C140.904 142.78 145.143 147.019 145.143 152.228V172.575L113.984 189.114V152.228H113.986ZM293.227 206.403L244.479 246.455C238.942 251.006 232.334 254.313 225.371 256.017L124.467 280.723L97.3306 208.305L174.812 167.176C177.961 165.503 181.549 165.782 184.403 167.917C187.257 170.052 188.537 173.408 187.826 176.898C186.028 185.703 182.046 192.656 175.988 197.562L167.683 204.291C164.279 207.048 163.024 211.497 164.486 215.627C165.948 219.754 169.723 222.425 174.103 222.425L207.402 222.439H207.426C219.28 222.439 230.673 218.836 240.37 212.016L277.585 185.846C282.796 182.18 289.811 182.827 294.262 187.384C296.826 190.002 301.844 197.783 293.227 206.403Z" fill="#3B1788"/>
<path d="M81.1531 303.492C88.5511 303.492 94.5484 297.495 94.5484 290.097C94.5484 282.699 88.5511 276.701 81.1531 276.701C73.7551 276.701 67.7578 282.699 67.7578 290.097C67.7578 297.495 73.7551 303.492 81.1531 303.492Z" fill="#EDE7FF"/>
<path d="M100.132 291.482C100.132 281.554 92.0549 273.475 82.1263 273.475C72.1977 273.475 64.1211 281.554 64.1211 291.482C64.1211 301.408 72.1977 309.488 82.1263 309.488C92.0549 309.488 100.132 301.408 100.132 291.482ZM73.2618 291.482C73.2618 286.593 77.237 282.615 82.1263 282.615C87.0133 282.615 90.9909 286.593 90.9909 291.482C90.9909 296.369 87.0156 300.347 82.1263 300.347C77.237 300.347 73.2618 296.369 73.2618 291.482Z" fill="#3B1788"/>
<path d="M125.805 118.191L203.944 40.0518L208.409 31.1216L199.479 22.1914L188.316 26.6565L121.34 93.6332L101.247 84.703H94.5489L49.8977 127.122L47.6652 111.494L38.7349 104.796L29.8047 111.494V153.912L34.2698 162.843H78.921L85.6186 151.68L78.921 142.75L65.5256 140.517L101.247 107.029L125.805 118.191Z" fill="white"/>
<path d="M187.102 22.3168L120.666 89.2651L105.721 81.536C100.368 78.7676 93.8527 79.715 89.5109 83.8949L53.348 118.706C53.348 118.706 54.343 100.827 39.2871 100.827C31.5366 100.827 25.2285 107.135 25.2285 114.888V151.755C25.2285 151.798 25.2309 151.843 25.2309 151.888C25.2809 161.507 32.3149 165.813 39.2871 165.813H75.8332C83.5861 165.813 89.8917 159.505 89.8917 151.755C89.8917 136.301 74.1645 137.696 74.1645 137.696L101.753 111.141L116.914 118.982C122.396 121.819 129.002 120.779 133.353 116.399L207.059 42.124C212.52 36.6205 212.487 27.7012 206.983 22.2406C204.331 19.6103 195.276 14.1425 187.102 22.3168ZM200.573 35.685L126.866 109.96C125.914 110.917 124.386 112.593 121.113 110.862L103.044 101.517C101.304 100.617 99.1848 100.924 97.7732 102.283L59.6584 138.972C58.3159 140.265 57.8922 142.245 58.5897 143.973C59.2871 145.704 60.9629 146.835 62.8291 146.835H75.8332C78.5444 146.835 80.751 149.041 80.751 151.755C80.751 154.466 78.5444 156.673 75.8332 156.673H39.2871C37.9422 156.673 34.3716 156.673 34.3716 151.783C34.3716 151.743 34.3692 151.703 34.3692 151.66V114.888C34.3692 112.176 36.5758 109.97 39.2871 109.97C42.0007 109.97 44.2074 112.176 44.2074 114.888V129.448C44.2074 131.281 45.3023 132.938 46.9876 133.654C48.673 134.373 50.6249 134.012 51.946 132.74L95.8498 90.4791C97.3685 89.0175 99.6489 88.6843 101.52 89.6531L119.444 98.9247C121.218 99.8411 123.382 99.5007 124.788 98.0844L193.589 28.7557C196.588 25.7564 199.618 27.8083 200.547 28.7295C202.47 30.641 202.482 33.7617 200.573 35.685Z" fill="#3B1788"/>
</svg>
