<svg width="92" height="92" viewBox="0 0 92 92" fill="none" xmlns="http://www.w3.org/2000/svg">
<g filter="url(#filter0_d)">
<path d="M66 20.5V36C64.1667 36.1667 60.4 36.5 60 36.5C59.6 36.5 60.1667 38.1667 60.5 39L59.5 41L61 42V45V55.5L60 58L58 59H43.5H28.5L26 57V41.5L25.5 27.5L26.5 26L28.5 24.5H43L43.5 30.5L46.5 30L48.5 30.5H52.5L54 29V27L53 25L51 24.5L48.5 25V19H63L66 20.5Z" fill="white"/>
<path d="M48.5 36L55 36.5L54.5 38.5L55.5 41.5L54.5 42L55 45.5L52.5 47L50 46.5L49 44L49.5 42L43.5 41.5V35.5L46.5 36H48.5Z" fill="#EDE7FF"/>
<path d="M62.8984 18H48.727C48.2739 18 47.9067 18.3673 47.9067 18.8203V25.5013C47.9067 25.8431 48.1186 26.1491 48.4387 26.2692C48.7585 26.3893 49.1196 26.2984 49.3447 26.0409C49.8154 25.5023 50.4961 25.2182 51.2108 25.2601C52.354 25.3279 53.2757 26.24 53.3548 27.3814C53.3995 28.0261 53.1831 28.6395 52.7453 29.1088C52.307 29.5785 51.712 29.8372 51.0699 29.8372C50.4094 29.8372 49.7806 29.5511 49.3447 29.0522C49.1197 28.7947 48.7586 28.7038 48.4387 28.8239C48.1187 28.944 47.9067 29.2501 47.9067 29.5919V29.8071C47.3213 29.3863 46.6166 29.1216 45.8541 29.0762C45.2396 29.0397 44.6402 29.1443 44.0933 29.3739V24.2742C44.0933 23.8212 43.7261 23.4539 43.273 23.4539H29.1016C26.84 23.4539 25 25.2939 25 27.5555V55.8984C25 58.16 26.84 60 29.1016 60H57.4445C59.7061 60 61.5461 58.16 61.5461 55.8984V54.1448C61.5461 53.6917 61.1788 53.3245 60.7258 53.3245C60.2727 53.3245 59.9054 53.6917 59.9054 54.1448V55.8984C59.9054 57.2554 58.8015 58.3594 57.4445 58.3594H44.0933V52.4987C44.0933 52.1569 43.8814 51.8509 43.5613 51.7308C43.2413 51.6105 42.8802 51.7016 42.6553 51.959C42.2194 52.458 41.5906 52.7441 40.9301 52.7441C40.288 52.7441 39.693 52.4854 39.2547 52.0157C38.8169 51.5464 38.6004 50.9329 38.6451 50.2882C38.7242 49.1467 39.6459 48.2347 40.7891 48.1669C41.5036 48.1246 42.1846 48.409 42.6553 48.9478C42.8803 49.2052 43.2412 49.2961 43.5613 49.1761C43.8813 49.056 44.0933 48.7499 44.0933 48.4081V42.5474H48.3754C48.1747 43.0243 48.068 43.5413 48.068 44.0701C48.068 45.156 48.5235 46.2039 49.3178 46.945C50.1233 47.6965 51.1744 48.0682 52.2781 47.9918C54.2398 47.8557 55.807 46.2722 55.9236 44.3082C55.96 43.6937 55.8556 43.0943 55.6259 42.5474H59.9054V46.7621C59.9054 47.2152 60.2726 47.5824 60.7257 47.5824C61.1787 47.5824 61.546 47.2152 61.546 46.7621V41.7271C61.546 41.2741 61.1787 40.9068 60.7257 40.9068H60.6467C61.1212 40.2436 61.3846 39.4411 61.3846 38.6162C61.3846 38.0873 61.2779 37.5704 61.0773 37.0935H66.1797C66.6327 37.0935 67 36.7263 67 36.2732V22.1016C67 19.84 65.16 18 62.8984 18ZM26.6406 27.5555C26.6406 26.1985 27.7446 25.0946 29.1016 25.0946H42.4527V30.9552C42.4527 31.297 42.6647 31.6031 42.9848 31.7232C43.3045 31.8432 43.6657 31.7523 43.8907 31.4949C44.3613 30.9563 45.0419 30.6717 45.7569 30.714C46.9 30.7819 47.8218 31.6939 47.9009 32.8354C47.9456 33.4801 47.7291 34.0935 47.2913 34.5628C46.853 35.0326 46.258 35.2913 45.6159 35.2913C44.9554 35.2913 44.3266 35.0052 43.8907 34.5063C43.6657 34.2488 43.3046 34.1579 42.9848 34.278C42.6647 34.3981 42.4527 34.7042 42.4527 35.046V40.9067H38.1706C38.3713 40.4298 38.478 39.9128 38.478 39.384C38.478 38.2981 38.0225 37.2503 37.2282 36.5091C36.4227 35.7576 35.3714 35.3861 34.2681 35.4623C32.3063 35.5984 30.7391 37.1819 30.6225 39.1458C30.586 39.7603 30.6905 40.3598 30.9201 40.9066H26.6406V27.5555ZM40.6919 46.5291C38.7281 46.6456 37.1445 48.2129 37.0085 50.1746C36.9319 51.278 37.3037 52.3293 38.0552 53.1347C38.7963 53.929 39.8442 54.3846 40.9301 54.3846C41.4589 54.3846 41.9758 54.2779 42.4527 54.0772V58.3594H29.1016C27.7446 58.3594 26.6406 57.2554 26.6406 55.8984V42.5473H32.5013C32.8431 42.5473 33.1491 42.3353 33.2692 42.0152C33.3893 41.6951 33.2984 41.3341 33.0409 41.1093C32.5023 40.6387 32.2177 39.9585 32.2601 39.2431C32.3279 38.1 33.24 37.1782 34.3814 37.0991C35.0261 37.0545 35.6395 37.2709 36.1088 37.7087C36.5785 38.147 36.8373 38.742 36.8373 39.3841C36.8373 40.0446 36.5511 40.6734 36.0523 41.1093C35.7949 41.3342 35.7039 41.6952 35.824 42.0152C35.9441 42.3353 36.2502 42.5473 36.592 42.5473H42.4526V46.8268C41.9059 46.597 41.3064 46.4923 40.6919 46.5291ZM53.505 42.3447C54.0437 42.8154 54.3283 43.4956 54.2859 44.2109C54.2181 45.354 53.306 46.2757 52.1646 46.3549C51.52 46.3993 50.9064 46.1831 50.4372 45.7453C49.9674 45.307 49.7087 44.712 49.7087 44.0699C49.7087 43.4094 49.9948 42.7806 50.4937 42.3447C50.7511 42.1197 50.8421 41.7587 50.722 41.4387C50.6019 41.1187 50.2958 40.9067 49.954 40.9067H44.0934V36.6246C44.5703 36.8253 45.0872 36.932 45.6161 36.932C46.441 36.932 47.2436 36.6686 47.9067 36.194V36.2731C47.9067 36.7262 48.274 37.0934 48.727 37.0934H53.8268C53.5972 37.6402 53.4927 38.2397 53.5292 38.8542C53.5744 39.6168 53.8392 40.3214 54.26 40.9067H54.0448C53.703 40.9067 53.3969 41.1187 53.2768 41.4388C53.1567 41.7588 53.2476 42.1198 53.505 42.3447ZM65.3594 35.4527H59.4988C59.157 35.4527 58.8509 35.6647 58.7308 35.9848C58.6107 36.3048 58.7017 36.6658 58.9591 36.8907C59.458 37.3266 59.7441 37.9554 59.7441 38.6159C59.7441 39.258 59.4854 39.853 59.0157 40.2913C58.5464 40.7291 57.9329 40.9456 57.2882 40.9009C56.1467 40.8218 55.2347 39.9 55.1669 38.7569C55.1244 38.0415 55.4091 37.3613 55.9477 36.8906C56.2051 36.6657 56.2961 36.3047 56.176 35.9847C56.0559 35.6647 55.7498 35.4526 55.408 35.4526H49.5474V31.1705C50.0243 31.3712 50.5413 31.4779 51.0701 31.4779C52.156 31.4779 53.2039 31.0224 53.945 30.2281C54.6965 29.4226 55.0682 28.3714 54.9917 27.268C54.8556 25.3062 53.2721 23.739 51.3082 23.6224C50.6934 23.5858 50.0942 23.6904 49.5474 23.9201V19.6406H62.8984C64.2554 19.6406 65.3594 20.7446 65.3594 22.1016V35.4527Z" fill="#3B1788"/>
<path d="M60.7246 49.6328C60.5089 49.6328 60.2972 49.7206 60.1446 49.8732C59.9921 50.0257 59.9043 50.2374 59.9043 50.4531C59.9043 50.6689 59.9921 50.8805 60.1446 51.0331C60.2972 51.1857 60.5089 51.2734 60.7246 51.2734C60.9404 51.2734 61.152 51.1857 61.3046 51.0331C61.458 50.8805 61.5449 50.6689 61.5449 50.4531C61.5449 50.2374 61.458 50.0257 61.3046 49.8732C61.152 49.7206 60.9412 49.6328 60.7246 49.6328Z" fill="#3B1788"/>
</g>
<defs>
<filter id="filter0_d" x="0" y="0" width="92" height="92" filterUnits="userSpaceOnUse" color-interpolation-filters="sRGB">
<feFlood flood-opacity="0" result="BackgroundImageFix"/>
<feColorMatrix in="SourceAlpha" type="matrix" values="0 0 0 0 0 0 0 0 0 0 0 0 0 0 0 0 0 0 127 0"/>
<feOffset dy="7"/>
<feGaussianBlur stdDeviation="12.5"/>
<feColorMatrix type="matrix" values="0 0 0 0 0.0810138 0 0 0 0 0.00659722 0 0 0 0 0.316667 0 0 0 0.15 0"/>
<feBlend mode="normal" in2="BackgroundImageFix" result="effect1_dropShadow"/>
<feBlend mode="normal" in="SourceGraphic" in2="effect1_dropShadow" result="shape"/>
</filter>
</defs>
</svg>
