<svg width="88" height="95" viewBox="0 0 88 95" fill="none" xmlns="http://www.w3.org/2000/svg">
<g filter="url(#filter0_d)">
<path d="M56 25.002V34.002V47.502V60.502L54.5 62.002H26.5L25.5 61.002V24.502L27 23.002H33.5L34.5 22.002H37L37.5 20.502L38 19.502H42.5L44 20.002V22.002H46.5L47.5 23.002H54.5L56 25.002Z" fill="white"/>
<path d="M31.5 30.002C31.5 29.4497 31.9477 29.002 32.5 29.002H37.5C38.0523 29.002 38.5 29.4497 38.5 30.002V34.502C38.5 35.0542 38.0523 35.502 37.5 35.502H32.5C31.9477 35.502 31.5 35.0542 31.5 34.502V30.002Z" fill="#EDE7FF"/>
<path d="M31.5 40.002C31.5 39.4497 31.9477 39.002 32.5 39.002H37.5C38.0523 39.002 38.5 39.4497 38.5 40.002V44.502C38.5 45.0542 38.0523 45.502 37.5 45.502H32.5C31.9477 45.502 31.5 45.0542 31.5 44.502V40.002Z" fill="#EDE7FF"/>
<path d="M31.5 50.002C31.5 49.4497 31.9477 49.002 32.5 49.002H37.5C38.0523 49.002 38.5 49.4497 38.5 50.002V54.502C38.5 55.0542 38.0523 55.502 37.5 55.502H32.5C31.9477 55.502 31.5 55.0542 31.5 54.502V50.002Z" fill="#EDE7FF"/>
<path d="M47 56.502L43.5 59.502H42L43 54.002L44 52.502L46.5 48.502L58 30.502L59.5 29.502L62 31.002V33.002L47 56.502Z" fill="white"/>
<path d="M36.6532 30.314C36.3687 30.1046 35.968 30.1655 35.7586 30.4498L34.4925 32.1681L34.0595 31.5741C33.8516 31.2889 33.4514 31.2258 33.1656 31.4336C32.88 31.6414 32.8169 32.0412 33.025 32.3266L33.7719 33.3511C33.9382 33.5792 34.2061 33.7158 34.4885 33.7166H34.4907C34.7724 33.7166 35.04 33.5815 35.207 33.3549L36.7893 31.2076C36.9986 30.9233 36.9377 30.5232 36.6532 30.314Z" fill="#3B1788"/>
<path d="M36.6533 40.7954C36.3688 40.5861 35.9681 40.6469 35.7587 40.9312L34.4925 42.6495L34.0596 42.0556C33.8516 41.7702 33.4515 41.7072 33.1656 41.915C32.88 42.1228 32.8169 42.5225 33.025 42.8078L33.7719 43.8326C33.9381 44.0606 34.206 44.1972 34.4884 44.1979C34.4892 44.198 34.49 44.198 34.4907 44.198C34.7723 44.198 35.04 44.0629 35.207 43.8363L36.7893 41.689C36.9987 41.4047 36.9378 41.0046 36.6533 40.7954Z" fill="#3B1788"/>
<path d="M36.6533 50.8306C36.3688 50.6212 35.9681 50.6821 35.7587 50.9664L34.4925 52.6846L34.0596 52.0907C33.8516 51.8055 33.4515 51.7423 33.1656 51.9501C32.88 52.1579 32.8169 52.5577 33.025 52.843L33.7719 53.8677C33.9381 54.0957 34.206 54.2324 34.4884 54.2331C34.4892 54.2332 34.49 54.2332 34.4907 54.2332C34.7723 54.2332 35.04 54.098 35.207 53.8714L36.7893 51.7242C36.9987 51.44 36.9378 51.0398 36.6533 50.8306Z" fill="#3B1788"/>
<path d="M41.5481 31.2573H49.4562C49.8095 31.2573 50.096 30.9711 50.096 30.6179C50.096 30.2647 49.8095 29.9785 49.4562 29.9785H41.5481C41.1947 29.9785 40.9082 30.2647 40.9082 30.6179C40.9082 30.9711 41.1947 31.2573 41.5481 31.2573Z" fill="#3B1788"/>
<path d="M41.5481 33.9272H45.5021C45.8555 33.9272 46.142 33.641 46.142 33.2878C46.142 32.9346 45.8555 32.6484 45.5021 32.6484H41.5481C41.1947 32.6484 40.9082 32.9346 40.9082 33.2878C40.9082 33.641 41.1947 33.9272 41.5481 33.9272Z" fill="#3B1788"/>
<path d="M41.5481 41.5156H46.854C47.2074 41.5156 47.4939 41.2295 47.4939 40.8765C47.4939 40.5234 47.2074 40.2373 46.854 40.2373H41.5481C41.1947 40.2373 40.9082 40.5234 40.9082 40.8765C40.9082 41.2295 41.1947 41.5156 41.5481 41.5156Z" fill="#3B1788"/>
<path d="M45.5021 44.1865C45.8555 44.1865 46.142 43.9002 46.142 43.5469C46.142 43.1935 45.8555 42.9072 45.5021 42.9072H41.5481C41.1947 42.9072 40.9082 43.1935 40.9082 43.5469C40.9082 43.9002 41.1947 44.1865 41.5481 44.1865H45.5021Z" fill="#3B1788"/>
<path d="M37.3727 27.8633H32.4432C31.5452 27.8633 30.8145 28.5932 30.8145 29.4903V34.4143C30.8145 35.3114 31.5452 36.0413 32.4432 36.0413H37.3727C38.2708 36.0413 39.0015 35.3114 39.0015 34.4143V29.4903C39.0015 28.5932 38.2708 27.8633 37.3727 27.8633ZM37.7218 34.4143C37.7218 34.6065 37.5652 34.7629 37.3728 34.7629H32.4433C32.2509 34.7629 32.0943 34.6066 32.0943 34.4143V29.4903C32.0943 29.298 32.2509 29.1416 32.4433 29.1416H37.3728C37.5652 29.1416 37.7218 29.298 37.7218 29.4903V34.4143Z" fill="#3B1788"/>
<path d="M37.3727 38.1221H32.4432C31.5452 38.1221 30.8145 38.852 30.8145 39.749V44.6731C30.8145 45.5701 31.5452 46.3 32.4432 46.3H37.3727C38.2708 46.3 39.0015 45.5701 39.0015 44.6731V39.749C39.0015 38.8519 38.2708 38.1221 37.3727 38.1221ZM37.7218 44.6731C37.7218 44.8653 37.5652 45.0217 37.3728 45.0217H32.4433C32.2509 45.0217 32.0943 44.8654 32.0943 44.6731V39.749C32.0943 39.5568 32.2509 39.4004 32.4433 39.4004H37.3728C37.5652 39.4004 37.7218 39.5567 37.7218 39.749V44.6731Z" fill="#3B1788"/>
<path d="M37.3727 48.3809H32.4432C31.5452 48.3809 30.8145 49.1107 30.8145 50.0078V54.9317C30.8145 55.8287 31.5452 56.5586 32.4432 56.5586H37.3727C38.2708 56.5586 39.0015 55.8287 39.0015 54.9317V50.0078C39.0015 49.1107 38.2708 48.3809 37.3727 48.3809ZM37.7218 54.9317C37.7218 55.1239 37.5652 55.2803 37.3728 55.2803H32.4433C32.2509 55.2803 32.0943 55.124 32.0943 54.9317V50.0078C32.0943 49.8156 32.2509 49.6592 32.4433 49.6592H37.3728C37.5652 49.6592 37.7218 49.8155 37.7218 50.0078V54.9317Z" fill="#3B1788"/>
<path d="M61.7815 29.5909L60.766 28.9484C60.2387 28.6148 59.6128 28.5065 59.004 28.6431C58.3951 28.7798 57.8759 29.1453 57.5422 29.672L56.6109 31.1419L55.3179 33.1829L53.8556 35.491V25.8969C53.8556 25.2361 53.3175 24.6986 52.656 24.6986H48.071V23.4204H54.2092C54.7199 23.4204 55.1353 23.8353 55.1353 24.3454V29.8806C55.1353 30.2337 55.4218 30.5198 55.7752 30.5198C56.1286 30.5198 56.4151 30.2337 56.4151 29.8806V24.3454C56.4151 23.1305 55.4256 22.142 54.2093 22.142H47.9387C47.6766 21.5101 47.0532 21.0642 46.327 21.0642H44.674V20.4205C44.674 19.4489 43.8826 18.6582 42.9097 18.6582H38.5053C37.5325 18.6582 36.741 19.4489 36.741 20.4206V21.0642H35.088C34.3619 21.0642 33.7384 21.5102 33.4765 22.1421H27.2058C25.9895 22.1421 25 23.1305 25 24.3455V60.0772C25 61.292 25.9895 62.2805 27.2058 62.2805H54.2094C55.4257 62.2805 56.4152 61.292 56.4152 60.0772V45.7459C56.4152 45.3928 56.1287 45.1067 55.7753 45.1067C55.4219 45.1067 55.1354 45.3928 55.1354 45.7459V60.0771C55.1354 60.5872 54.72 61.0021 54.2093 61.0021H27.2058C26.6951 61.0021 26.2797 60.5872 26.2797 60.0771V24.3454C26.2797 23.8353 26.6951 23.4204 27.2058 23.4204H33.344V24.6987H28.759C28.0975 24.6987 27.5594 25.2362 27.5594 25.8969V58.5256C27.5594 59.1863 28.0975 59.7238 28.759 59.7238H52.6561C53.3176 59.7238 53.8557 59.1863 53.8557 58.5256V46.4637L60.2809 36.3218C60.281 36.3216 60.2812 36.3214 60.2813 36.3212L61.5739 34.2809L62.5058 32.8101C63.1943 31.7231 62.8694 30.2789 61.7815 29.5909ZM59.2846 29.8903C59.56 29.8283 59.843 29.8775 60.0814 30.0284L61.0969 30.6708C61.5888 30.982 61.7357 31.635 61.4243 32.1265L60.8348 33.057L58.0344 31.2856L58.6236 30.3557C58.7745 30.1174 59.0092 29.9521 59.2846 29.8903ZM47.1659 54.6328C47.0448 54.8238 46.9092 55.004 46.7607 55.1726C46.5598 54.9035 46.3316 54.6599 46.0805 54.4452L58.0035 35.6379L58.8576 36.1782L47.1659 54.6328ZM42.7966 58.4447C42.7921 58.4432 42.7866 58.4402 42.7844 58.4402C42.784 58.4402 42.7838 58.4403 42.7836 58.4407C44.1696 52.6907 43.4949 55.4899 43.6875 54.6906C44.5188 54.8294 45.2917 55.2962 45.8002 56.0269C42.4121 58.754 42.8447 58.401 42.7966 58.4447ZM57.3501 32.3658L60.1504 34.1372L59.5418 35.0979L56.7414 33.3265L57.3501 32.3658ZM34.6237 22.8205C34.6241 22.8127 34.6246 22.8049 34.6248 22.7969C34.6249 22.7942 34.6246 22.7916 34.6246 22.7889C34.6339 22.5413 34.8379 22.3424 35.088 22.3424H36.9211C37.5274 22.3424 38.0208 21.8496 38.0208 21.2439V20.4205C38.0208 20.1535 38.2382 19.9365 38.5054 19.9365H42.9098C43.1771 19.9365 43.3945 20.1535 43.3945 20.4205V21.2439C43.3945 21.8496 43.8878 22.3424 44.4942 22.3424H46.3272C46.5774 22.3424 46.7814 22.5412 46.7906 22.7889C46.7906 22.7916 46.7904 22.7942 46.7904 22.7969C46.7906 22.8047 46.7911 22.8125 46.7916 22.8204V24.6986H34.6237V22.8205ZM28.8391 25.9769H52.5759V37.511L45.879 48.0819C45.69 48.3802 45.7789 48.7751 46.0775 48.9638C46.3748 49.1517 46.7706 49.0651 46.9604 48.7655L56.057 34.4067L56.9222 34.9539L44.9993 53.7613C44.6977 53.6264 44.3797 53.5245 44.0503 53.4582C44.1395 53.252 44.2444 53.0525 44.3655 52.8613L45.3602 51.2913C45.5492 50.993 45.4604 50.5982 45.1618 50.4094C44.8631 50.2207 44.4678 50.3095 44.2789 50.6077L43.2843 52.1776C42.9556 52.6961 42.7161 53.2612 42.5722 53.8574C42.5722 53.8576 42.5722 53.8577 42.5722 53.8578L41.5411 58.1307C41.5156 58.2363 41.5038 58.3418 41.504 58.4456H28.8391V25.9769ZM52.5759 58.4455H44.8353L47.0313 56.6779C47.5093 56.2931 47.9184 55.8352 48.2471 55.3166L52.5759 48.4837V58.4455Z" fill="#3B1788"/>
</g>
<defs>
<filter id="filter0_d" x="0" y="0.658203" width="87.8671" height="93.6223" filterUnits="userSpaceOnUse" color-interpolation-filters="sRGB">
<feFlood flood-opacity="0" result="BackgroundImageFix"/>
<feColorMatrix in="SourceAlpha" type="matrix" values="0 0 0 0 0 0 0 0 0 0 0 0 0 0 0 0 0 0 127 0"/>
<feOffset dy="7"/>
<feGaussianBlur stdDeviation="12.5"/>
<feColorMatrix type="matrix" values="0 0 0 0 0.0810138 0 0 0 0 0.00659722 0 0 0 0 0.316667 0 0 0 0.15 0"/>
<feBlend mode="normal" in2="BackgroundImageFix" result="effect1_dropShadow"/>
<feBlend mode="normal" in="SourceGraphic" in2="effect1_dropShadow" result="shape"/>
</filter>
</defs>
</svg>
