<svg width="87" height="75" viewBox="0 0 87 75" fill="none" xmlns="http://www.w3.org/2000/svg">
<circle cx="50.9028" cy="35.9028" r="35.9028" fill="#EDE7FF"/>
<path d="M14.8789 44.6266L9.37891 50.62L23.8789 65.104L30.3789 58.6112H39.3789L45.3789 65.104L45.501 69.3313L50.001 73.3269L62.001 63.3379L68.501 55.3467L63.001 49.3533L60.3789 50.62L54.8789 44.6266L56.3789 39.1326L52.3789 37.1348V32.6398L48.8789 31.1414V27.1458L45.3789 25.148V20.653L41.3789 19.1546L30.8789 17.6562H26.3789L23.3789 19.1546V23.6497L19.8789 26.1469V29.6431L15.8789 31.6409V34.1381L16.8789 37.1348L13.8789 38.1337L12.8789 41.6299L14.8789 44.6266Z" fill="white"/>
<path d="M68.4122 51.9217L65.9798 49.4988C65.1145 48.6356 63.9613 48.1601 62.7324 48.1601C61.9467 48.1601 61.1925 48.3554 60.524 48.7212L55.9404 44.1481L56.1637 43.9254C58.0232 42.0642 58.0225 39.0399 56.1635 37.185C55.4992 36.5202 54.6703 36.0769 53.7667 35.8903C53.8911 35.4614 53.9566 35.0121 53.9566 34.5522C53.9566 33.2747 53.4598 32.0767 52.5604 31.182C51.896 30.5172 51.0672 30.0739 50.1636 29.8873C50.288 29.4584 50.3535 29.0092 50.3535 28.5492C50.3535 27.2715 49.8567 26.0737 48.9558 25.1776C48.2755 24.4989 47.4392 24.0693 46.5611 23.8864C47.0308 22.2685 46.6294 20.4481 45.3552 19.1731C44.2946 18.1181 42.8553 17.6647 41.4683 17.8117L32.3854 16.0943C31.0002 15.8318 29.2703 15.6583 28.1783 16.6532C28.1094 16.716 28.0391 16.7882 27.9699 16.8687C26.2768 16.2522 24.302 16.6193 22.9462 17.9721C22.0467 18.8695 21.5513 20.067 21.5513 21.3439C21.5513 21.8039 21.6165 22.253 21.7407 22.6821C20.8381 22.8685 20.0103 23.3113 19.3482 23.9739C18.4469 24.8705 17.9499 26.0666 17.949 27.342C17.9486 27.803 18.0141 28.2537 18.139 28.6839C17.236 28.8699 16.4076 29.3118 15.7434 29.9745C14.8422 30.8738 14.3459 32.0719 14.3459 33.3481C14.3459 34.3257 14.6381 35.2569 15.1795 36.0436C14.4959 36.2751 13.8697 36.6603 13.3454 37.1835C11.4846 39.0399 11.484 42.0643 13.3466 43.9282L13.5691 44.1495L8.98488 48.7203C7.28123 47.919 5.18219 48.2192 3.77631 49.6218L1.34244 52.0461C0.476738 52.9098 0.000136719 54.0619 0 55.29C0 56.5183 0.476738 57.6706 1.34244 58.5344L4.37992 61.5648C4.91791 62.1017 5.78977 62.1011 6.32707 61.5637C6.86451 61.0263 6.86397 60.1554 6.32598 59.6187L3.2885 56.5883C2.94369 56.2442 2.75379 55.7832 2.75379 55.2902C2.75379 54.7973 2.94369 54.3364 3.28768 53.9932L5.72168 51.5687C6.32981 50.9619 7.26059 50.8715 7.96742 51.2936C8.01719 51.3683 8.07475 51.4394 8.14065 51.5053C8.25863 51.6234 8.3933 51.714 8.53631 51.7802L22.4943 65.7024C22.5606 65.8468 22.6517 65.9827 22.7705 66.1015C22.8862 66.2172 23.0181 66.3066 23.1581 66.3724C23.4533 66.7058 23.6164 67.1316 23.6164 67.5858C23.6164 68.0789 23.4265 68.5398 23.0817 68.8838L20.6501 71.3098C19.9317 72.0243 18.763 72.0242 18.0467 71.312L15.0093 68.2776C14.4715 67.7404 13.5998 67.7404 13.0621 68.2776C12.5244 68.8147 12.5244 69.6854 13.0621 70.2226L16.1018 73.2592C16.9965 74.1492 18.1714 74.594 19.3469 74.594C20.5227 74.594 21.699 74.1485 22.5948 73.2577L25.0279 70.8302C25.8936 69.9664 26.3703 68.8143 26.3703 67.5858C26.3703 66.7092 26.1263 65.872 25.6725 65.1501L30.8317 60.0029C30.8372 59.9973 30.8427 59.9917 30.8483 59.9861C31.439 59.376 33.0842 59.4902 34.6752 59.6006C35.8055 59.6791 37.0658 59.7663 38.2971 59.6246L43.9469 65.2615C43.5809 65.928 43.3855 66.6805 43.3855 67.4642C43.3855 68.6912 43.8623 69.8426 44.728 70.7064L47.1611 73.1339C48.0263 73.9972 49.1795 74.4727 50.4083 74.4727C51.637 74.4727 52.7903 73.9973 53.6556 73.1339L68.4131 58.4105C69.2788 57.5468 69.7556 56.3947 69.7556 55.1664C69.7554 53.9383 69.2787 52.7862 68.4122 51.9217ZM31.8727 18.797L37.8455 19.9263L34.2705 23.4961C33.7174 23.2306 32.9595 22.7354 32.128 21.9408C30.9898 20.8532 30.1756 19.5975 30.1015 18.8142L30.1014 18.813C30.096 18.7567 30.0945 18.7114 30.0952 18.6771C30.2753 18.6334 30.7535 18.5849 31.8727 18.797ZM24.8921 19.9184C25.5897 19.2223 26.6733 19.142 27.4615 19.6752C27.9081 21.5459 29.5057 23.2414 30.2244 23.9283C30.7571 24.4374 32.4662 25.9639 34.1913 26.3834C34.4247 26.7176 34.5517 27.116 34.5517 27.5363C34.5517 28.0778 34.3432 28.5841 33.9633 28.9632C33.5844 29.3423 33.0768 29.551 32.5337 29.551C31.9905 29.551 31.4829 29.3423 31.1023 28.9614L31.1015 28.9606L24.892 22.7691C24.5134 22.3915 24.3049 21.8852 24.3049 21.3439C24.305 20.8024 24.5135 20.2961 24.8921 19.9184ZM21.2942 25.9202C21.6731 25.5412 22.1802 25.3324 22.7224 25.3324C23.2653 25.3324 23.774 25.5416 24.1553 25.9221L29.1554 30.9067C29.9428 31.6944 29.9428 32.9762 29.1581 33.7612C28.7772 34.1402 28.2678 34.3489 27.7238 34.3489C27.1798 34.3489 26.6704 34.1402 26.2912 33.7629L22.4978 29.9745C22.4919 29.9686 22.4855 29.9631 22.4794 29.9571L21.2927 28.7723C20.912 28.3923 20.7024 27.8851 20.7028 27.344C20.7033 26.8047 20.9122 26.3001 21.2942 25.9202ZM17.6895 31.9207C18.0686 31.5426 18.5768 31.3343 19.1207 31.3343C19.66 31.3343 20.1638 31.5395 20.5413 31.9111L24.3462 35.7101C24.7256 36.0876 24.9346 36.5933 24.9346 37.1341C24.9346 37.6748 24.7256 38.1805 24.3447 38.5594C23.9657 38.9375 23.4581 39.1457 22.9152 39.1457C22.3714 39.1457 21.8622 38.9369 21.4826 38.5594L20.1033 37.1832L20.1023 37.1823L17.6896 34.7751C17.3093 34.3956 17.0998 33.8887 17.0998 33.3479C17.0998 32.8072 17.3093 32.3001 17.6895 31.9207ZM15.2914 39.1296C15.6722 38.7497 16.1811 38.5405 16.7243 38.5405C17.2673 38.5405 17.776 38.7495 18.1567 39.1292L19.5379 40.5073C19.9175 40.8848 20.1264 41.3905 20.1264 41.9313C20.1264 42.4721 19.9173 42.9777 19.5351 43.3582C19.1562 43.7372 18.6486 43.946 18.1055 43.946C17.5623 43.946 17.0547 43.7373 16.6731 43.3555L16.5002 43.1834C16.4979 43.1811 16.4961 43.1786 16.4939 43.1764C16.4913 43.174 16.4886 43.1718 16.486 43.1693L15.2928 41.9821C14.5055 41.194 14.5048 39.9145 15.2914 39.1296ZM43.3508 54.761C42.8133 54.2234 41.9415 54.223 41.4036 54.7597L40.1786 55.9819C39.0146 57.1446 36.9055 56.9982 34.8657 56.8569C32.6508 56.7031 30.3603 56.5444 28.8782 58.0644L23.8066 63.1243L11.1241 50.4744L15.6123 45.9991C16.3542 46.4534 17.2102 46.6969 18.1058 46.6969C19.3854 46.6969 20.5852 46.2014 21.4814 45.3046C22.3836 44.407 22.8806 43.2092 22.8806 41.9315C22.8806 41.9196 22.8797 41.9078 22.8797 41.8959C22.8916 41.8961 22.9035 41.8968 22.9154 41.8968C24.1932 41.8968 25.3921 41.4028 26.2895 40.5075C27.1917 39.6099 27.6887 38.4119 27.6887 37.1343C27.6887 37.1225 27.6879 37.1107 27.6879 37.0988C27.6999 37.0988 27.7119 37.0997 27.7241 37.0997C29.0015 37.0997 30.201 36.6062 31.1045 35.7075C32.0424 34.7691 32.5063 33.5337 32.4974 32.3009C32.5097 32.3011 32.522 32.3017 32.5343 32.3017C33.8138 32.3016 35.0135 31.8063 35.9111 30.9081C36.8106 30.0107 37.306 28.8132 37.306 27.5363C37.306 26.6433 37.063 25.7896 36.6097 25.0501L40.5435 21.1222C40.8367 20.8307 41.1981 20.6477 41.577 20.5721C41.618 20.5678 41.6585 20.5612 41.6985 20.5533C42.3064 20.4696 42.9447 20.657 43.4096 21.1194C44.1969 21.9072 44.1969 23.1891 43.4124 23.9741L42.2144 25.1659C42.2104 25.1699 42.2062 25.1734 42.2022 25.1774L40.8223 26.5534C40.2842 27.0901 40.2836 27.961 40.8211 28.4984C41.3587 29.036 42.2304 29.0364 42.7682 28.4997L43.9711 27.2998L43.9719 27.299L44.1537 27.118C44.9433 26.3366 46.2224 26.3382 47.0112 27.125C47.3907 27.5024 47.5997 28.0082 47.5997 28.549C47.5997 29.0896 47.3907 29.5954 47.0081 29.9758L45.8032 31.1819L44.4231 32.5551C43.8843 33.0911 43.8825 33.962 44.4191 34.5001C44.9557 35.0383 45.8274 35.0399 46.3663 34.504L47.7523 33.1251C48.1312 32.746 48.6388 32.5373 49.1818 32.5373C49.725 32.5373 50.2328 32.746 50.6144 33.1278C50.9939 33.5055 51.2028 34.0112 51.2028 34.552C51.2028 35.0927 50.9939 35.5984 50.6122 35.978L48.21 38.3785C47.6725 38.9157 47.6726 39.7865 48.2103 40.3235C48.4792 40.592 48.8314 40.7261 49.1838 40.7261C49.5362 40.7261 49.8887 40.5917 50.1575 40.3231L51.3348 39.1467C51.3414 39.1403 51.3487 39.1347 51.3554 39.128C51.7342 38.7489 52.2419 38.5402 52.7849 38.5402C53.3281 38.5402 53.8357 38.7489 54.216 39.1293C55.0025 39.9142 55.0018 41.1938 54.216 41.9802L53.019 43.1745L53.0176 43.1757L53.0164 43.1771L51.1165 45.0725C50.5786 45.6094 50.578 46.4803 51.1153 47.0177C51.3842 47.2866 51.737 47.4211 52.0896 47.4211C52.4416 47.4211 52.7938 47.287 53.0626 47.0189L53.9919 46.0917L58.4458 50.5355L45.7644 63.1875L41.2207 58.6543C41.5375 58.4508 41.8406 58.2115 42.1251 57.9273L43.3494 56.7058C43.8877 56.1693 43.8882 55.2984 43.3508 54.761ZM66.4669 56.4643L51.7094 71.1877C51.3641 71.5321 50.902 71.7218 50.4082 71.7218C49.9144 71.7218 49.4523 71.5321 49.1069 71.1876L46.6737 68.7601C46.3289 68.4162 46.139 67.9559 46.139 67.4642C46.139 66.9725 46.3289 66.5123 46.6737 66.1683L61.4313 51.4448C61.7766 51.1003 62.2386 50.9106 62.7326 50.9106C63.2264 50.9106 63.6885 51.1003 64.0347 51.4456L66.4671 53.8685C66.8119 54.2125 67.0018 54.6733 67.0018 55.1663C67.0016 55.6595 66.8117 56.1204 66.4669 56.4643Z" fill="#3B1788"/>
<path d="M33.8555 1.99819L33.8555 6.36839C33.8555 6.65815 33.7402 6.93605 33.5351 7.14094C33.33 7.34583 33.0518 7.46094 32.7617 7.46094C32.4716 7.46094 32.1934 7.34583 31.9883 7.14094C31.7832 6.93605 31.668 6.65815 31.668 6.36839L31.668 1.99819C31.668 1.70843 31.7832 1.43053 31.9883 1.22564C32.1934 1.02075 32.4716 0.90564 32.7617 0.90564C33.0518 0.90564 33.33 1.02075 33.5351 1.22564C33.7402 1.43053 33.8555 1.70843 33.8555 1.99819Z" fill="#3B1788"/>
<path d="M47.5271 5.65952C47.5271 5.85131 47.4765 6.03971 47.3805 6.2058L45.193 9.99041C45.1217 10.1157 45.0263 10.2256 44.9123 10.3139C44.7983 10.4022 44.668 10.467 44.5288 10.5048C44.3896 10.5426 44.2443 10.5524 44.1012 10.5339C43.9582 10.5153 43.8202 10.4686 43.6953 10.3966C43.5704 10.3245 43.461 10.2285 43.3733 10.1141C43.2857 9.99961 43.2216 9.86898 43.1848 9.72968C43.1479 9.59037 43.139 9.44517 43.1585 9.30241C43.1781 9.15965 43.2257 9.02216 43.2986 8.89786L45.4861 5.11324C45.6065 4.90497 45.7923 4.7422 46.0148 4.65017C46.2372 4.55814 46.4838 4.542 46.7164 4.60425C46.949 4.66649 47.1545 4.80365 47.301 4.99445C47.4476 5.18525 47.5271 5.41902 47.5271 5.65952Z" fill="#3B1788"/>
<path d="M22.3714 9.44263C22.3714 9.68313 22.2919 9.91691 22.1453 10.1077C21.9988 10.2985 21.7933 10.4357 21.5607 10.4979C21.3281 10.5602 21.0815 10.544 20.8591 10.452C20.6366 10.36 20.4508 10.1972 20.3304 9.98892L18.1429 6.20424C18.0002 5.95343 17.9625 5.6564 18.0382 5.37797C18.1139 5.09953 18.2967 4.8623 18.5469 4.71804C18.797 4.57378 19.0941 4.53421 19.3733 4.60795C19.6525 4.6817 19.8912 4.86277 20.0373 5.11167L22.2248 8.89634C22.3208 9.06243 22.3714 9.25084 22.3714 9.44263Z" fill="#3B1788"/>
<ellipse cx="18.5" cy="66.3342" rx="1.5" ry="1.49829" fill="#EDE7FF"/>
<path d="M18.5 68.8304C18.9945 68.8304 19.4778 68.684 19.8889 68.4096C20.3 68.1352 20.6205 67.7452 20.8097 67.2888C20.9989 66.8325 21.0484 66.3304 20.952 65.846C20.8555 65.3616 20.6174 64.9166 20.2678 64.5674C19.9181 64.2181 19.4727 63.9803 18.9877 63.8839C18.5028 63.7876 18.0001 63.837 17.5433 64.026C17.0865 64.215 16.696 64.5351 16.4213 64.9458C16.1466 65.3565 16 65.8393 16 66.3332C16 66.9955 16.2634 67.6307 16.7322 68.099C17.2011 68.5673 17.837 68.8304 18.5 68.8304ZM18.5 65.5008C18.6648 65.5008 18.8259 65.5496 18.963 65.6411C19.1 65.7325 19.2068 65.8625 19.2699 66.0146C19.333 66.1667 19.3495 66.3341 19.3173 66.4956C19.2852 66.6571 19.2058 66.8054 19.0893 66.9218C18.9727 67.0382 18.8242 67.1175 18.6626 67.1496C18.5009 67.1817 18.3334 67.1652 18.1811 67.1022C18.0288 67.0392 17.8987 66.9325 17.8071 66.7957C17.7155 66.6588 17.6667 66.4978 17.6667 66.3332C17.6667 66.1124 17.7545 65.9007 17.9107 65.7446C18.067 65.5885 18.279 65.5008 18.5 65.5008Z" fill="#3B1788"/>
<ellipse cx="61.5" cy="56.346" rx="1.5" ry="1.49835" fill="#EDE7FF"/>
<path d="M61.5 58.8422C61.9945 58.8422 62.4778 58.6957 62.8889 58.4213C63.3 58.1469 63.6205 57.7569 63.8097 57.3006C63.9989 56.8443 64.0484 56.3421 63.952 55.8577C63.8555 55.3733 63.6174 54.9283 63.2678 54.5791C62.9181 54.2298 62.4727 53.992 61.9877 53.8956C61.5028 53.7993 61.0001 53.8487 60.5433 54.0378C60.0865 54.2268 59.696 54.5468 59.4213 54.9575C59.1466 55.3682 59 55.851 59 56.3449C59 57.0072 59.2634 57.6424 59.7322 58.1107C60.2011 58.5791 60.837 58.8422 61.5 58.8422ZM61.5 55.5125C61.6648 55.5125 61.8259 55.5613 61.963 55.6528C62.1 55.7442 62.2068 55.8743 62.2699 56.0264C62.333 56.1785 62.3495 56.3458 62.3173 56.5073C62.2852 56.6688 62.2058 56.8171 62.0893 56.9335C61.9727 57.0499 61.8242 57.1292 61.6626 57.1613C61.5009 57.1935 61.3334 57.177 61.1811 57.114C61.0288 57.051 60.8987 56.9443 60.8071 56.8074C60.7155 56.6705 60.6667 56.5095 60.6667 56.3449C60.6667 56.1241 60.7545 55.9124 60.9107 55.7563C61.067 55.6002 61.279 55.5125 61.5 55.5125Z" fill="#3B1788"/>
<path d="M8.46531 63.8331C7.93224 64.3747 7.93963 65.2456 8.48199 65.7781L8.48595 65.7819C8.75351 66.0447 9.10091 66.1755 9.44817 66.1755C9.8046 66.1755 10.161 66.0377 10.431 65.7634C10.9641 65.2217 10.9547 64.3489 10.4124 63.8164C9.87036 63.2839 8.99864 63.2914 8.46531 63.8331Z" fill="#3B1788"/>
<path d="M46.7183 52.78C46.9277 52.78 47.1402 52.7324 47.3397 52.6319C48.0186 52.2897 48.2914 51.4624 47.949 50.7839C47.6065 50.1055 46.7784 49.8328 46.0996 50.1751L46.092 50.1789C45.413 50.5211 45.1441 51.3465 45.4864 52.025C45.7282 52.5042 46.2143 52.78 46.7183 52.78Z" fill="#3B1788"/>
</svg>
