<svg width="81" height="72" viewBox="0 0 81 72" fill="none" xmlns="http://www.w3.org/2000/svg">
<circle cx="44.9028" cy="35.9028" r="35.9028" fill="#EDE7FF"/>
<path d="M50.0996 21.7738V17.2787L43.0996 16.7793V21.7738L39.5996 22.7727L36.0996 19.776L31.0996 24.271L34.5996 27.7672L33.0996 31.2633H28.0996V38.2556H32.5996L34.5996 41.7518L31.0996 45.2479L36.0996 50.2424L39.5996 47.2457L43.0996 48.7441L43.5996 53.2391H49.5996L50.0996 48.7441L53.5996 47.2457L57.0996 50.2424L61.5996 45.7474L59.0996 41.7518L60.0996 38.7551L65.0996 38.2556V31.7628L60.0996 31.2633L59.0996 27.7672L61.5996 24.271L57.0996 19.776L53.5996 22.7727L50.0996 21.7738Z" fill="white"/>
<path d="M46.5492 24.4717C40.8329 24.4717 36.1992 29.1003 36.1992 34.8103C36.1992 40.5203 40.8329 45.1489 46.5492 45.1489C52.2655 45.1489 56.8992 40.5203 56.8992 34.8103C56.893 29.1031 52.2627 24.4778 46.5492 24.4717ZM46.5492 42.8515C42.1031 42.8515 38.4992 39.2516 38.4992 34.8103C38.4992 30.369 42.1031 26.7692 46.5492 26.7692C50.9953 26.7692 54.5992 30.369 54.5992 34.8103C54.5941 39.2493 50.9931 42.8464 46.5492 42.8515Z" fill="#3B1788"/>
<path d="M64.95 39.4048C65.5851 39.4048 66.1 38.8904 66.1 38.256V31.3636C66.1 30.7292 65.5851 30.2149 64.95 30.2149H60.7605C60.5151 29.461 60.2107 28.7273 59.8508 28.0206L62.8179 25.0674C63.0341 24.852 63.1559 24.5592 63.1559 24.2541C63.1559 23.949 63.0341 23.6562 62.8179 23.4408L57.9349 18.5586C57.7192 18.3432 57.4267 18.2221 57.1218 18.2221C56.8169 18.2227 56.5243 18.3438 56.3087 18.5598L53.3467 21.5236C52.6391 21.1641 51.9047 20.8606 51.15 20.6149V16.43C51.15 15.7956 50.6351 15.2812 50 15.2812H43.1C42.4649 15.2812 41.95 15.7956 41.95 16.43V20.6149C41.1953 20.8606 40.4608 21.1641 39.7533 21.5236L36.7958 18.5598C36.5801 18.3438 36.2876 18.2227 35.9827 18.2221C35.6778 18.2221 35.3852 18.3432 35.1696 18.5586L30.281 23.4374C30.0648 23.6528 29.9429 23.9456 29.9429 24.2507C29.9429 24.5559 30.0648 24.8487 30.281 25.064L33.2481 28.0172C32.8881 28.7251 32.5843 29.4599 32.3395 30.2149H28.15C27.5149 30.2149 27 30.7292 27 31.3636V38.256C27 38.8904 27.5149 39.4048 28.15 39.4048H32.3395C32.5849 40.1586 32.8893 40.8923 33.2492 41.599L30.2821 44.5522C30.0654 44.7676 29.9435 45.061 29.9435 45.3661C29.9435 45.6718 30.0654 45.9646 30.2821 46.18L35.1651 51.0498C35.6143 51.4979 36.3421 51.4979 36.7913 51.0498L39.7488 48.096C40.458 48.4556 41.1942 48.759 41.95 49.0047V53.1896C41.95 53.824 42.4649 54.3384 43.1 54.3384H50C50.6351 54.3384 51.15 53.824 51.15 53.1896V49.0047C51.9052 48.759 52.6397 48.4556 53.3478 48.096L56.3053 51.0498C56.7545 51.4974 57.4812 51.4974 57.9304 51.0498L62.8179 46.1789C63.0346 45.9635 63.1565 45.6707 63.1565 45.365C63.1565 45.0593 63.0346 44.7665 62.8179 44.5511L59.8508 41.5979C60.2107 40.8917 60.5151 40.1581 60.7605 39.4048H64.95ZM58.7906 37.9632C58.488 39.1069 58.0326 40.2046 57.4357 41.2266C57.1723 41.6781 57.247 42.2503 57.6176 42.6188L60.3775 45.3667L57.1195 48.6143L54.3698 45.8642C54.0008 45.4951 53.4286 45.4211 52.9772 45.6836C51.9546 46.2798 50.8552 46.7347 49.7102 47.0359C49.2037 47.1677 48.8505 47.6243 48.85 48.1465V52.0409H44.25V48.1465C44.25 47.6249 43.8979 47.1689 43.3931 47.0359C42.2482 46.7347 41.1487 46.2798 40.1262 45.6836C39.6747 45.4211 39.1025 45.4951 38.7336 45.8642L35.9816 48.6132L32.7236 45.3667L35.4835 42.6188C35.8541 42.2503 35.9288 41.6781 35.6654 41.2266C35.0685 40.2046 34.6131 39.1069 34.3105 37.9632C34.1774 37.459 33.7209 37.1073 33.1987 37.1073H29.3V32.5123H33.1987C33.7203 32.5118 34.1763 32.1606 34.3093 31.6564C34.612 30.5127 35.0674 29.415 35.6643 28.393C35.9277 27.9415 35.853 27.3694 35.4824 27.0009L32.7225 24.2518L35.9816 20.9963L38.7336 23.7532C39.1025 24.1234 39.6753 24.198 40.1273 23.9349C41.1498 23.3387 42.2493 22.8838 43.3942 22.5826C43.8985 22.4491 44.2494 21.9936 44.25 21.4731V17.5787H48.85V21.4731C48.85 21.9948 49.2021 22.4508 49.7069 22.5837C50.8518 22.8849 51.9513 23.3398 52.9738 23.9361C53.4264 24.2002 54.0003 24.1256 54.3698 23.7543L57.1218 20.9975L60.3809 24.253L57.621 27.002C57.2504 27.3705 57.1757 27.9426 57.4396 28.3942C58.0359 29.4161 58.4913 30.5138 58.794 31.6575C58.9271 32.1601 59.3814 32.5107 59.9013 32.5123H63.8V37.1073H59.9013C59.3797 37.1079 58.9237 37.459 58.7906 37.9632Z" fill="#3B1788"/>
<ellipse cx="46.5996" cy="34.76" rx="2.5" ry="2.49731" fill="#EDE7FF"/>
<path d="M46.5492 30.2148C44.0089 30.2148 41.9492 32.2723 41.9492 34.8098C41.9492 37.3474 44.0089 39.4048 46.5492 39.4048C49.0895 39.4048 51.1492 37.3474 51.1492 34.8098C51.1492 32.2723 49.0895 30.2148 46.5492 30.2148ZM46.5492 37.1073C45.279 37.1073 44.2492 36.0786 44.2492 34.8098C44.2492 33.541 45.279 32.5123 46.5492 32.5123C47.8194 32.5123 48.8492 33.541 48.8492 34.8098C48.8492 36.0786 47.8194 37.1073 46.5492 37.1073Z" fill="#3B1788"/>
<path d="M18.8378 44.2221V40.6507L13.1622 40.2539V44.2221L10.3243 45.0158L7.48649 42.6348L3.43243 46.2062L6.27027 48.984L5.05405 51.7617H1V57.3173H4.64865L6.27027 60.095L3.43243 62.8728L7.48649 66.841L10.3243 64.4601L13.1622 65.6505L13.5676 69.2219H18.4324L18.8378 65.6505L21.6757 64.4601L24.5135 66.841L28.1622 63.2696L26.1351 60.095L26.9459 57.7141L31 57.3173V52.1586L26.9459 51.7617L26.1351 48.984L28.1622 46.2062L24.5135 42.6348L21.6757 45.0158L18.8378 44.2221Z" fill="white"/>
<path d="M15.5 46.2471C10.8054 46.2471 7 50.0484 7 54.7378C7 59.4272 10.8054 63.2285 15.5 63.2285C20.1946 63.2285 24 59.4272 24 54.7378C23.9949 50.0507 20.1922 46.2521 15.5 46.2471ZM15.5 61.3417C11.8486 61.3417 8.88889 58.3852 8.88889 54.7378C8.88889 51.0904 11.8486 48.1339 15.5 48.1339C19.1514 48.1339 22.1111 51.0904 22.1111 54.7378C22.107 58.3834 19.1496 61.3375 15.5 61.3417Z" fill="#3B1788"/>
<path d="M30.0882 58.3808C30.5918 58.3808 31 57.973 31 57.4701V52.0055C31 51.5026 30.5918 51.0948 30.0882 51.0948H26.7666C26.5721 50.4971 26.3308 49.9154 26.0454 49.3551L28.3978 47.0137C28.5692 46.8429 28.6658 46.6108 28.6658 46.3689C28.6658 46.1269 28.5692 45.8948 28.3978 45.724L24.5264 41.8533C24.3554 41.6825 24.1235 41.5865 23.8817 41.5865C23.64 41.5869 23.408 41.683 23.2371 41.8542L20.8887 44.204C20.3277 43.919 19.7454 43.6784 19.1471 43.4836V40.1656C19.1471 39.6627 18.7388 39.2549 18.2353 39.2549H12.7647C12.2612 39.2549 11.8529 39.6627 11.8529 40.1656V43.4836C11.2546 43.6784 10.6723 43.919 10.1113 44.204L7.76647 41.8542C7.59552 41.683 7.36357 41.5869 7.12183 41.5865C6.88008 41.5865 6.64814 41.6825 6.47718 41.8533L2.60129 45.7214C2.42989 45.8921 2.33328 46.1243 2.33328 46.3662C2.33328 46.6081 2.42989 46.8402 2.60129 47.011L4.95371 49.3524C4.66834 49.9136 4.42749 50.4962 4.23338 51.0948H0.911765C0.408246 51.0948 0 51.5026 0 52.0055V57.4701C0 57.973 0.408246 58.3808 0.911765 58.3808H4.23338C4.42794 58.9785 4.66923 59.5602 4.9546 60.1205L2.60218 62.4619C2.43033 62.6327 2.33373 62.8653 2.33373 63.1072C2.33373 63.3495 2.43033 63.5817 2.60218 63.7524L6.47362 67.6134C6.82978 67.9687 7.40675 67.9687 7.76291 67.6134L10.1078 65.2716C10.6701 65.5566 11.2537 65.7972 11.8529 65.992V69.3099C11.8529 69.8129 12.2612 70.2207 12.7647 70.2207H18.2353C18.7388 70.2207 19.1471 69.8129 19.1471 69.3099V65.992C19.7458 65.7972 20.3282 65.5566 20.8896 65.2716L23.2344 67.6134C23.5906 67.9683 24.1667 67.9683 24.5228 67.6134L28.3978 63.7516C28.5697 63.5808 28.6663 63.3486 28.6663 63.1063C28.6663 62.8639 28.5697 62.6318 28.3978 62.461L26.0454 60.1196C26.3308 59.5597 26.5721 58.9781 26.7666 58.3808H30.0882ZM25.2049 57.2379C24.9649 58.1447 24.6038 59.015 24.1306 59.8252C23.9218 60.1832 23.981 60.6368 24.2748 60.929L26.463 63.1076L23.88 65.6825L21.6998 63.5021C21.4073 63.2095 20.9537 63.1508 20.5957 63.3589C19.785 63.8316 18.9133 64.1923 18.0056 64.4311C17.604 64.5356 17.324 64.8976 17.3235 65.3116V68.3992H13.6765V65.3116C13.6765 64.898 13.3973 64.5365 12.9971 64.4311C12.0893 64.1923 11.2176 63.8316 10.4069 63.3589C10.049 63.1508 9.59534 63.2095 9.30285 63.5021L7.12094 65.6816L4.5379 63.1076L6.72605 60.929C7.01988 60.6368 7.07909 60.1832 6.87029 59.8252C6.39704 59.015 6.03599 58.1447 5.79603 57.2379C5.69052 56.8381 5.32857 56.5593 4.91454 56.5593H1.82353V52.9163H4.91454C5.32812 52.9158 5.68963 52.6374 5.79514 52.2377C6.0351 51.3309 6.39615 50.4606 6.8694 49.6503C7.0782 49.2924 7.01899 48.8388 6.72515 48.5466L4.53701 46.3671L7.12094 43.786L9.30285 45.9717C9.59534 46.2652 10.0494 46.3244 10.4078 46.1158C11.2185 45.6431 12.0902 45.2824 12.998 45.0436C13.3978 44.9378 13.676 44.5767 13.6765 44.164V41.0764H17.3235V44.164C17.3235 44.5776 17.6027 44.9391 18.0029 45.0445C18.9107 45.2833 19.7824 45.644 20.5931 46.1167C20.9519 46.3262 21.4069 46.267 21.6998 45.9726L23.8817 43.7869L26.4657 46.368L24.2775 48.5475C23.9837 48.8396 23.9245 49.2932 24.1337 49.6512C24.6065 50.4615 24.9676 51.3318 25.2075 52.2385C25.313 52.637 25.6732 52.9149 26.0855 52.9163H29.1765V56.5593H26.0855C25.6719 56.5598 25.3104 56.8381 25.2049 57.2379Z" fill="#3B1788"/>
<ellipse cx="15.5" cy="54.7377" rx="1.5" ry="1.49841" fill="#EDE7FF"/>
<path d="M15.5 52.2402C14.1194 52.2402 13 53.3584 13 54.7375C13 56.1167 14.1194 57.2349 15.5 57.2349C16.8806 57.2349 18 56.1167 18 54.7375C18 53.3584 16.8806 52.2402 15.5 52.2402ZM15.5 55.9862C14.8097 55.9862 14.25 55.4271 14.25 54.7375C14.25 54.048 14.8097 53.4889 15.5 53.4889C16.1903 53.4889 16.75 54.048 16.75 54.7375C16.75 55.4271 16.1903 55.9862 15.5 55.9862Z" fill="#3B1788"/>
</svg>
