<svg width="88" height="80" viewBox="0 0 88 80" fill="none" xmlns="http://www.w3.org/2000/svg">
<ellipse cx="50.7841" cy="35.9028" rx="36.4892" ry="35.9028" fill="#EDE7FF"/>
<g clip-path="url(#clip0)">
<path d="M8 34H26.5H34.5L53.5 43.5H57.5V79H4.5L1 75.5V29L3.5 25H8V34Z" fill="white"/>
<path d="M5.75 80.0004H57.5C58.1351 80.0004 58.65 79.4855 58.65 78.8504V48.9504H56.35V77.7004H5.75C3.84475 77.7004 2.3 76.1556 2.3 74.2504C2.3 72.3451 3.84475 70.8004 5.75 70.8004H8.05C8.68508 70.8004 9.2 70.2855 9.2 69.6504V35.1504H27.6V32.8504H9.2V24.8004C9.2 24.1653 8.68508 23.6504 8.05 23.6504H5.75C2.57571 23.6543 0.00393067 26.2261 0 29.4004V74.2504C0.00393067 77.4247 2.57571 79.9965 5.75 80.0004ZM2.3 34.0004V29.4004C2.3 27.4951 3.84475 25.9504 5.75 25.9504H6.9V68.5004H5.75C4.50566 68.4987 3.29446 68.9024 2.3 69.6504V34.0004Z" fill="#3B1788"/>
<path d="M12.5 49.5V40.5H26V49.5H12.5Z" fill="#EDE7FF"/>
<path d="M12.5 70V61H26V70H12.5Z" fill="#EDE7FF"/>
<path d="M39 70V61H52.5V70H39Z" fill="#EDE7FF"/>
<path d="M53 17.5V13L46 12.5V17.5L42.5 18.5L39 15.5L34 20L37.5 23.5L36 27H31V34H35.5L37.5 37.5L34 41L39 46L42.5 43L46 44.5L46.5 49H52.5L53 44.5L56.5 43L60 46L64.5 41.5L62 37.5L63 34.5L68 34V27.5L63 27L62 23.5L64.5 20L60 15.5L56.5 18.5L53 17.5Z" fill="white"/>
<path d="M26.45 38.5996H12.65C12.0149 38.5996 11.5 39.1145 11.5 39.7496V48.9496C11.5 49.5847 12.0149 50.0996 12.65 50.0996H26.45C27.0851 50.0996 27.6 49.5847 27.6 48.9496V45.4996H32.2V43.1996H27.6V39.7496C27.6 39.1145 27.0851 38.5996 26.45 38.5996ZM25.3 47.7996H13.8V40.8996H25.3V47.7996Z" fill="#3B1788"/>
<path d="M37.95 70.8004H51.75C52.3851 70.8004 52.9 70.2855 52.9 69.6504V60.4504C52.9 59.8153 52.3851 59.3004 51.75 59.3004H46V52.4004H43.7V59.3004H37.95C37.3149 59.3004 36.8 59.8153 36.8 60.4504V63.9004H27.6V60.4504C27.6 59.8153 27.0851 59.3004 26.45 59.3004H12.65C12.0149 59.3004 11.5 59.8153 11.5 60.4504V69.6504C11.5 70.2855 12.0149 70.8004 12.65 70.8004H26.45C27.0851 70.8004 27.6 70.2855 27.6 69.6504V66.2004H36.8V69.6504C36.8 70.2855 37.3149 70.8004 37.95 70.8004ZM39.1 61.6004H50.6V68.5004H39.1V61.6004ZM25.3 68.5004H13.8V61.6004H25.3V68.5004Z" fill="#3B1788"/>
<path d="M49.4496 20.2002C43.7333 20.2002 39.0996 24.8339 39.0996 30.5502C39.0996 36.2665 43.7333 40.9002 49.4496 40.9002C55.1659 40.9002 59.7996 36.2665 59.7996 30.5502C59.7934 24.8367 55.1631 20.2064 49.4496 20.2002ZM49.4496 38.6002C45.0035 38.6002 41.3996 34.9963 41.3996 30.5502C41.3996 26.1041 45.0035 22.5002 49.4496 22.5002C53.8958 22.5002 57.4996 26.1041 57.4996 30.5502C57.4946 34.9941 53.8935 38.5951 49.4496 38.6002Z" fill="#3B1788"/>
<path d="M67.8504 35.15C68.4855 35.15 69.0004 34.6351 69.0004 34V27.1C69.0004 26.4649 68.4855 25.95 67.8504 25.95H63.6609C63.4155 25.1953 63.1111 24.4608 62.7512 23.7533L65.7183 20.7969C65.9345 20.5813 66.0563 20.2882 66.0563 19.9827C66.0563 19.6772 65.9345 19.3841 65.7183 19.1685L60.8353 14.281C60.6197 14.0654 60.3271 13.9441 60.0222 13.9441C59.7173 13.9446 59.4247 14.0659 59.2091 14.2821L56.2471 17.2492C55.5396 16.8893 54.8051 16.5855 54.0504 16.3395V12.15C54.0504 11.5149 53.5355 11 52.9004 11H46.0004C45.3653 11 44.8504 11.5149 44.8504 12.15V16.3395C44.0957 16.5855 43.3612 16.8893 42.6537 17.2492L39.6962 14.2821C39.4805 14.0659 39.188 13.9446 38.8831 13.9441C38.5782 13.9441 38.2856 14.0654 38.07 14.281L33.1814 19.1651C32.9652 19.3807 32.8433 19.6739 32.8433 19.9793C32.8433 20.2848 32.9652 20.5779 33.1814 20.7935L36.1485 23.75C35.7885 24.4586 35.4847 25.1942 35.2399 25.95H31.0504C30.4153 25.95 29.9004 26.4649 29.9004 27.1V34C29.9004 34.6351 30.4153 35.15 31.0504 35.15H35.2399C35.4853 35.9047 35.7896 36.6392 36.1496 37.3467L33.1825 40.3031C32.9657 40.5187 32.8439 40.8124 32.8439 41.1179C32.8439 41.4239 32.9657 41.717 33.1825 41.9326L38.0655 46.8078C38.5147 47.2564 39.2425 47.2564 39.6917 46.8078L42.6492 43.8508C43.3584 44.2107 44.0946 44.5145 44.8504 44.7605V48.95C44.8504 49.5851 45.3653 50.1 46.0004 50.1H52.9004C53.5355 50.1 54.0504 49.5851 54.0504 48.95V44.7605C54.8056 44.5145 55.5401 44.2107 56.2482 43.8508L59.2057 46.8078C59.655 47.2559 60.3816 47.2559 60.8308 46.8078L65.7183 41.9315C65.935 41.7159 66.0569 41.4228 66.0569 41.1167C66.0569 40.8107 65.935 40.5176 65.7183 40.302L62.7512 37.3456C63.1111 36.6386 63.4155 35.9041 63.6609 35.15H67.8504ZM61.691 33.7069C61.3884 34.8518 60.933 35.9507 60.3361 36.9738C60.0727 37.4259 60.1474 37.9986 60.518 38.3675L63.2779 41.1184L60.0199 44.3697L57.2702 41.6165C56.9012 41.247 56.3291 41.1729 55.8776 41.4357C54.8551 42.0326 53.7556 42.488 52.6106 42.7895C52.1042 42.9215 51.751 43.3786 51.7504 43.9013V47.8H47.1504V43.9013C47.1504 43.3791 46.7983 42.9226 46.2935 42.7895C45.1486 42.488 44.0491 42.0326 43.0266 41.4357C42.5751 41.1729 42.0029 41.247 41.634 41.6165L38.882 44.3685L35.624 41.1184L38.3839 38.3675C38.7545 37.9986 38.8292 37.4259 38.5658 36.9738C37.9689 35.9507 37.5135 34.8518 37.2109 33.7069C37.0778 33.2021 36.6213 32.85 36.099 32.85H32.2004V28.25H36.099C36.6207 28.2494 37.0767 27.8979 37.2097 27.3931C37.5124 26.2482 37.9678 25.1493 38.5647 24.1262C38.8281 23.6741 38.7534 23.1014 38.3828 22.7325L35.6229 19.9804L38.882 16.7214L41.634 19.4812C42.0029 19.8519 42.5757 19.9265 43.0277 19.6632C44.0502 19.0663 45.1497 18.6109 46.2946 18.3094C46.7989 18.1757 47.1498 17.7198 47.1504 17.1987V13.3H51.7504V17.1987C51.7504 17.7209 52.1025 18.1774 52.6073 18.3105C53.7522 18.612 54.8517 19.0674 55.8742 19.6643C56.3268 19.9288 56.9007 19.8541 57.2702 19.4824L60.0222 16.7225L63.2813 19.9816L60.5214 22.7336C60.1508 23.1025 60.0761 23.6753 60.34 24.1273C60.9364 25.1504 61.3917 26.2493 61.6944 27.3942C61.8275 27.8974 62.2818 28.2483 62.8017 28.25H66.7004V32.85H62.8017C62.2801 32.8506 61.8241 33.2021 61.691 33.7069Z" fill="#3B1788"/>
<circle cx="49.5" cy="30.5" r="2.5" fill="#EDE7FF"/>
<path d="M49.4496 25.9502C46.9093 25.9502 44.8496 28.0099 44.8496 30.5502C44.8496 33.0905 46.9093 35.1502 49.4496 35.1502C51.9899 35.1502 54.0496 33.0905 54.0496 30.5502C54.0496 28.0099 51.9899 25.9502 49.4496 25.9502ZM49.4496 32.8502C48.1794 32.8502 47.1496 31.8204 47.1496 30.5502C47.1496 29.28 48.1794 28.2502 49.4496 28.2502C50.7198 28.2502 51.7496 29.28 51.7496 30.5502C51.7496 31.8204 50.7198 32.8502 49.4496 32.8502Z" fill="#3B1788"/>
</g>
<defs>
<clipPath id="clip0">
<rect width="69" height="69" fill="white" transform="translate(0 11)"/>
</clipPath>
</defs>
</svg>
