<svg width="64" height="64" viewBox="0 0 64 64" fill="none" xmlns="http://www.w3.org/2000/svg">
<path d="M16.4088 10.6652V8.61388L6.15234 9.02414V30.3575H16.819V28.4996H19.2805L20.9216 29.537H32.819L40.6139 29.1267L42.2549 26.6652L41.0241 24.2036L43.0754 22.9729L43.4857 20.5113L42.6652 18.8703L45.537 16.819L44.7164 14.3575L42.2549 13.1267L43.8959 10.2549L42.2549 7.79337H36.5113L34.46 6.15234H25.4344C25.1062 6.15234 21.1951 9.16089 19.2805 10.6652H16.4088Z" fill="white"/>
<path d="M47.9994 38.1534V36.1022L58.2559 36.5124V57.8458H47.5892V55.9879H45.1277L43.4866 57.0252H31.5892L23.7943 56.615L22.1533 54.1534L23.3841 51.6919L21.3328 50.4611L20.9225 47.9996L21.743 46.3586L18.8712 44.3073L19.6918 41.8458L22.1533 40.615L20.5123 37.7432L22.1533 35.2817H27.8969L29.9482 33.6406H38.9738C39.302 33.6406 43.2131 36.6492 45.1277 38.1534H47.9994Z" fill="white"/>
<path d="M58.0255 35.5888H47.2563C47.0183 35.5888 46.79 35.6834 46.6217 35.8517C46.4534 36.02 46.3589 36.2482 46.3589 36.4862V37.3837H45.1393C44.9521 37.3842 44.7696 37.3255 44.6179 37.2159L39.7403 33.7329C38.98 33.1873 38.0673 32.8946 37.1314 32.8965H31.1025C30.4089 32.8981 29.7253 33.0611 29.1057 33.3726C28.486 33.6842 27.9474 34.1357 27.5325 34.6914C27.5253 34.6914 27.5199 34.6914 27.5127 34.6914H23.0255C22.3741 34.6918 21.7351 34.8695 21.177 35.2053C20.6189 35.5412 20.1627 36.0226 19.8572 36.5979C19.5518 37.1733 19.4087 37.8209 19.4432 38.4714C19.4777 39.1219 19.6886 39.7507 20.0532 40.2905C19.3494 40.5313 18.7384 40.9861 18.3058 41.5913C17.8732 42.1965 17.6406 42.9218 17.6406 43.6657C17.6406 44.4096 17.8732 45.1349 18.3058 45.7402C18.7384 46.3454 19.3494 46.8002 20.0532 47.041C19.7446 47.4952 19.5449 48.0144 19.4696 48.5583C19.3943 49.1022 19.4455 49.6562 19.6191 50.1771C19.7928 50.6981 20.0842 51.1719 20.4708 51.5619C20.8574 51.9519 21.3287 52.2474 21.8481 52.4256C21.4835 52.9654 21.2726 53.5942 21.2381 54.2447C21.2036 54.8952 21.3467 55.5428 21.6521 56.1181C21.9575 56.6935 22.4138 57.1749 22.9719 57.5107C23.53 57.8466 24.169 58.0243 24.8204 58.0247H42.3455C42.7636 58.0244 43.1759 57.927 43.5499 57.7402L44.5855 57.2215C44.7111 57.1616 44.8485 57.1309 44.9876 57.1317H46.3589V58.0292C46.3589 58.2672 46.4534 58.4955 46.6217 58.6638C46.79 58.8321 47.0183 58.9266 47.2563 58.9266H58.0255C58.2636 58.9266 58.4918 58.8321 58.6601 58.6638C58.8284 58.4955 58.923 58.2672 58.923 58.0292V36.4862C58.923 36.2482 58.8284 36.02 58.6601 35.8517C58.4918 35.6834 58.2636 35.5888 58.0255 35.5888ZM21.7575 37.013C21.9234 36.8456 22.121 36.7128 22.3386 36.6224C22.5563 36.532 22.7898 36.4857 23.0255 36.4862H26.705C26.6451 36.7816 26.615 37.0823 26.6153 37.3837V40.076H23.0255C22.6709 40.0755 22.3243 39.97 22.0295 39.7728C21.7347 39.5755 21.505 39.2954 21.3694 38.9677C21.2337 38.64 21.1981 38.2794 21.2672 37.9315C21.3363 37.5837 21.5069 37.264 21.7575 37.013ZM19.4358 43.6657C19.4358 43.1897 19.6249 42.7332 19.9615 42.3966C20.2981 42.0599 20.7546 41.8708 21.2307 41.8708H26.6153V43.6657C26.6162 43.9794 26.6996 44.2873 26.8572 44.5585C27.0147 44.8298 27.2408 45.0548 27.5127 45.2111C27.2411 45.3726 26.9313 45.4587 26.6153 45.4606H21.2307C20.7546 45.4606 20.2981 45.2715 19.9615 44.9349C19.6249 44.5983 19.4358 44.1418 19.4358 43.6657ZM21.2307 49.0503C21.2307 48.5743 21.4198 48.1178 21.7564 47.7812C22.093 47.4446 22.5495 47.2555 23.0255 47.2555H28.4102C28.8862 47.2555 29.3427 47.4446 29.6793 47.7812C30.0159 48.1178 30.205 48.5743 30.205 49.0503C30.205 49.5264 30.0159 49.9829 29.6793 50.3195C29.3427 50.6561 28.8862 50.8452 28.4102 50.8452H23.0255C22.5495 50.8452 22.093 50.6561 21.7564 50.3195C21.4198 49.9829 21.2307 49.5264 21.2307 49.0503ZM24.8204 56.2298C24.3444 56.2298 23.8879 56.0407 23.5512 55.7041C23.2146 55.3675 23.0255 54.911 23.0255 54.4349C23.0255 53.9589 23.2146 53.5024 23.5512 53.1658C23.8879 52.8292 24.3444 52.6401 24.8204 52.6401H30.205C30.6811 52.6401 31.1376 52.8292 31.4742 53.1658C31.8108 53.5024 31.9999 53.9589 31.9999 54.4349C31.9999 54.911 31.8108 55.3675 31.4742 55.7041C31.1376 56.0407 30.6811 56.2298 30.205 56.2298H24.8204ZM44.9876 55.3324C44.5695 55.3327 44.1573 55.4301 43.7832 55.6169L42.7476 56.1356C42.6221 56.1955 42.4846 56.2261 42.3455 56.2253H33.2958C33.5664 55.7712 33.7318 55.2622 33.7801 54.7358C33.8284 54.2094 33.7582 53.6788 33.5747 53.183C33.3912 52.6872 33.0991 52.2388 32.7198 51.8706C32.3404 51.5024 31.8835 51.2238 31.3825 51.0552C31.691 50.6003 31.8904 50.0802 31.9649 49.5355C32.0395 48.9909 31.9873 48.4364 31.8124 47.9152C31.6374 47.3941 31.3445 46.9204 30.9564 46.531C30.5684 46.1417 30.0956 45.8472 29.575 45.6706C29.6226 45.6006 29.6648 45.5324 29.7096 45.4597H30.205C31.3947 45.4583 32.5352 44.9851 33.3764 44.1439C34.2176 43.3027 34.6908 42.1622 34.6922 40.9725H35.5896C35.8277 40.9725 36.0559 41.0671 36.2242 41.2354C36.3925 41.4037 36.4871 41.6319 36.4871 41.87V44.5623C36.4885 45.7519 36.9617 46.8924 37.8029 47.7336C38.6441 48.5748 39.7846 49.048 40.9743 49.0494H41.8717C42.1097 49.0494 42.338 48.9549 42.5063 48.7866C42.6746 48.6183 42.7691 48.39 42.7691 48.152C42.7691 47.914 42.6746 47.6857 42.5063 47.5174C42.338 47.3491 42.1097 47.2546 41.8717 47.2546H40.9743C40.2602 47.2546 39.5754 46.9709 39.0705 46.466C38.5656 45.9611 38.282 45.2763 38.282 44.5623V41.8708C38.282 41.1568 37.9983 40.472 37.4934 39.9671C36.9885 39.4622 36.3037 39.1785 35.5896 39.1785H34.6922C34.2162 39.1785 33.7596 39.3676 33.423 39.7042C33.0864 40.0409 32.8973 40.4974 32.8973 40.9734C32.8973 41.6875 32.6137 42.3723 32.1088 42.8772C31.6039 43.3821 30.9191 43.6657 30.205 43.6657H28.4102V37.3837C28.4102 36.6696 28.6938 35.9848 29.1987 35.4799C29.7036 34.975 30.3884 34.6914 31.1025 34.6914H37.1314C37.6929 34.6901 38.2405 34.8656 38.6966 35.193L43.5768 38.6769C44.0324 39.0034 44.5788 39.1788 45.1393 39.1785H46.3589V55.3324H44.9876ZM57.1281 57.1273H48.1537V37.3837H57.1281V57.1273Z" fill="#3B1788"/>
<ellipse cx="11.0765" cy="25.0257" rx="1.23077" ry="1.23077" fill="#EDE7FF"/>
<circle cx="52.5121" cy="52.5121" r="1.64103" fill="#EDE7FF"/>
<path d="M52.6396 55.3319C53.1721 55.3319 53.6926 55.174 54.1353 54.8781C54.5781 54.5823 54.9232 54.1618 55.1269 53.6699C55.3307 53.1779 55.384 52.6366 55.2802 52.1143C55.1763 51.5921 54.9199 51.1124 54.5433 50.7358C54.1668 50.3593 53.6871 50.1029 53.1648 49.999C52.6426 49.8951 52.1012 49.9484 51.6093 50.1522C51.1173 50.356 50.6968 50.7011 50.401 51.1438C50.1052 51.5866 49.9473 52.1071 49.9473 52.6396C49.9473 53.3536 50.2309 54.0384 50.7358 54.5433C51.2407 55.0482 51.9255 55.3319 52.6396 55.3319ZM52.6396 51.7421C52.8171 51.7421 52.9906 51.7948 53.1382 51.8934C53.2857 51.992 53.4008 52.1322 53.4687 52.2961C53.5366 52.4601 53.5544 52.6406 53.5198 52.8147C53.4851 52.9887 53.3997 53.1487 53.2742 53.2742C53.1487 53.3997 52.9887 53.4851 52.8147 53.5198C52.6406 53.5544 52.4601 53.5366 52.2961 53.4687C52.1322 53.4008 51.992 53.2857 51.8934 53.1382C51.7948 52.9906 51.7421 52.8171 51.7421 52.6396C51.7421 52.4016 51.8367 52.1733 52.005 52.005C52.1733 51.8367 52.4016 51.7421 52.6396 51.7421Z" fill="#3B1788"/>
<path d="M11.3583 22.127C10.8258 22.127 10.3053 22.2849 9.86256 22.5807C9.41981 22.8765 9.07473 23.297 8.87096 23.789C8.66718 24.2809 8.61387 24.8222 8.71775 25.3445C8.82163 25.8668 9.07805 26.3465 9.45458 26.723C9.8311 27.0995 10.3108 27.356 10.8331 27.4598C11.3553 27.5637 11.8967 27.5104 12.3886 27.3066C12.8806 27.1029 13.3011 26.7578 13.5969 26.315C13.8927 25.8723 14.0506 25.3517 14.0506 24.8193C14.0506 24.1052 13.767 23.4204 13.2621 22.9155C12.7572 22.4106 12.0724 22.127 11.3583 22.127ZM11.3583 25.7167C11.1808 25.7167 11.0073 25.6641 10.8597 25.5655C10.7122 25.4668 10.5971 25.3267 10.5292 25.1627C10.4613 24.9987 10.4435 24.8183 10.4781 24.6442C10.5128 24.4701 10.5982 24.3102 10.7237 24.1847C10.8493 24.0592 11.0092 23.9737 11.1832 23.9391C11.3573 23.9044 11.5378 23.9222 11.7018 23.9901C11.8657 24.0581 12.0059 24.1731 12.1045 24.3207C12.2031 24.4683 12.2558 24.6418 12.2558 24.8193C12.2558 25.0573 12.1612 25.2855 11.9929 25.4538C11.8246 25.6221 11.5963 25.7167 11.3583 25.7167Z" fill="#3B1788"/>
<path d="M46.3582 15.8454C46.3559 15.1021 46.1224 14.3779 45.6902 13.7732C45.258 13.1685 44.6484 12.7131 43.9459 12.4702C44.3105 11.9304 44.5214 11.3015 44.5559 10.6511C44.5905 10.0006 44.4473 9.35298 44.1419 8.77763C43.8365 8.20228 43.3803 7.72088 42.8221 7.38501C42.264 7.04915 41.625 6.87148 40.9736 6.87105H36.4864C36.4792 6.87105 36.4739 6.87105 36.4667 6.87105C36.0517 6.31535 35.5131 5.86386 34.8935 5.55233C34.2739 5.2408 33.5902 5.07778 32.8967 5.07618H26.8677C25.9323 5.07426 25.0199 5.36655 24.2598 5.91169L19.3813 9.39554C19.2296 9.50517 19.0471 9.56391 18.8599 9.56336H17.6403V8.66593C17.6403 8.42791 17.5457 8.19964 17.3774 8.03134C17.2091 7.86304 16.9809 7.76849 16.7428 7.76849H5.97361C5.73559 7.76849 5.50733 7.86304 5.33902 8.03134C5.17072 8.19964 5.07617 8.42791 5.07617 8.66593V30.2044C5.07617 30.4424 5.17072 30.6707 5.33902 30.839C5.50733 31.0073 5.73559 31.1018 5.97361 31.1018H16.7428C16.9809 31.1018 17.2091 31.0073 17.3774 30.839C17.5457 30.6707 17.6403 30.4424 17.6403 30.2044V29.307H19.0116C19.1507 29.3074 19.2879 29.3397 19.4127 29.4012L20.4501 29.9208C20.824 30.107 21.2359 30.204 21.6536 30.2044H39.1787C39.8301 30.204 40.4691 30.0263 41.0273 29.6904C41.5854 29.3546 42.0416 28.8732 42.347 28.2978C42.6525 27.7225 42.7956 27.0749 42.7611 26.4244C42.7265 25.7739 42.5157 25.1451 42.151 24.6053C42.6704 24.4271 43.1418 24.1316 43.5283 23.7416C43.9149 23.3516 44.2064 22.8778 44.38 22.3568C44.5536 21.8359 44.6048 21.2819 44.5295 20.738C44.4542 20.1941 44.2545 19.6748 43.9459 19.2207C44.6484 18.9777 45.258 18.5224 45.6902 17.9176C46.1224 17.3129 46.3559 16.5887 46.3582 15.8454ZM40.9736 8.66593C41.4496 8.66593 41.9062 8.85503 42.2428 9.19163C42.5794 9.52823 42.7685 9.98477 42.7685 10.4608C42.7685 10.9368 42.5794 11.3934 42.2428 11.73C41.9062 12.0666 41.4496 12.2557 40.9736 12.2557H37.3839V9.56336C37.3842 9.26196 37.3541 8.9613 37.2941 8.66593H40.9736ZM15.8454 29.307H6.87104V9.56336H15.8454V29.307ZM21.2525 28.3198L20.215 27.8002C19.8415 27.6124 19.4296 27.5138 19.0116 27.5121H17.6403V11.3582H18.8599C19.4203 11.3585 19.9668 11.1831 20.4223 10.8566L25.3008 7.37272C25.7572 7.04467 26.3056 6.8691 26.8677 6.87105H32.8967C33.6107 6.87105 34.2955 7.15471 34.8004 7.65961C35.3053 8.16452 35.589 8.84932 35.589 9.56336V15.8454H33.7941C33.0801 15.8454 32.3953 15.5618 31.8904 15.0569C31.3855 14.5519 31.1018 13.8671 31.1018 13.1531C31.1018 12.6771 30.9127 12.2205 30.5761 11.8839C30.2395 11.5473 29.783 11.3582 29.3069 11.3582H28.4095C27.6955 11.3582 27.0107 11.6419 26.5058 12.1468C26.0009 12.6517 25.7172 13.3365 25.7172 14.0505V16.7428C25.7172 17.4569 25.4335 18.1417 24.9286 18.6466C24.4237 19.1515 23.7389 19.4352 23.0249 19.4352H22.1275C21.8894 19.4352 21.6612 19.5297 21.4929 19.698C21.3246 19.8663 21.23 20.0946 21.23 20.3326C21.23 20.5706 21.3246 20.7989 21.4929 20.9672C21.6612 21.1355 21.8894 21.23 22.1275 21.23H23.0249C24.2145 21.2286 25.355 20.7554 26.1962 19.9142C27.0374 19.073 27.5106 17.9325 27.5121 16.7428V14.0505C27.5121 13.8125 27.6066 13.5843 27.7749 13.416C27.9432 13.2477 28.1715 13.1531 28.4095 13.1531H29.3069C29.3084 14.3427 29.7816 15.4832 30.6228 16.3244C31.464 17.1656 32.6045 17.6389 33.7941 17.6403H34.2895C34.3317 17.713 34.3792 17.7812 34.4241 17.8512C33.9035 18.0278 33.4308 18.3223 33.0427 18.7116C32.6546 19.101 32.3617 19.5747 32.1868 20.0958C32.0119 20.617 31.9596 21.1715 32.0342 21.7161C32.1088 22.2608 32.3081 22.7808 32.6167 23.2358C32.1151 23.4043 31.6577 23.683 31.278 24.0514C30.8982 24.4199 30.6059 24.8687 30.4224 25.365C30.2388 25.8612 30.1688 26.3923 30.2175 26.9191C30.2661 27.446 30.4321 27.9552 30.7034 28.4095H21.6536C21.5148 28.4104 21.3776 28.3797 21.2525 28.3198ZM39.1787 28.4095H33.7941C33.3181 28.4095 32.8616 28.2204 32.525 27.8838C32.1883 27.5472 31.9992 27.0907 31.9992 26.6146C31.9992 26.1386 32.1883 25.6821 32.525 25.3455C32.8616 25.0089 33.3181 24.8198 33.7941 24.8198H39.1787C39.6548 24.8198 40.1113 25.0089 40.4479 25.3455C40.7845 25.6821 40.9736 26.1386 40.9736 26.6146C40.9736 27.0907 40.7845 27.5472 40.4479 27.8838C40.1113 28.2204 39.6548 28.4095 39.1787 28.4095ZM40.9736 23.0249H35.589C35.113 23.0249 34.6564 22.8358 34.3198 22.4992C33.9832 22.1626 33.7941 21.7061 33.7941 21.23C33.7941 20.754 33.9832 20.2975 34.3198 19.9609C34.6564 19.6243 35.113 19.4352 35.589 19.4352H40.9736C41.4496 19.4352 41.9062 19.6243 42.2428 19.9609C42.5794 20.2975 42.7685 20.754 42.7685 21.23C42.7685 21.7061 42.5794 22.1626 42.2428 22.4992C41.9062 22.8358 41.4496 23.0249 40.9736 23.0249ZM42.7685 17.6403H37.3839C37.0679 17.6384 36.7581 17.5523 36.4864 17.3908C36.7584 17.2345 36.9845 17.0095 37.142 16.7382C37.2995 16.467 37.3829 16.1591 37.3839 15.8454V14.0505H42.7685C43.2445 14.0505 43.701 14.2396 44.0376 14.5762C44.3743 14.9129 44.5634 15.3694 44.5634 15.8454C44.5634 16.3214 44.3743 16.778 44.0376 17.1146C43.701 17.4512 43.2445 17.6403 42.7685 17.6403Z" fill="#3B1788"/>
<path d="M13.1532 47.2558H9.56345C9.32544 47.2558 9.09717 47.1613 8.92887 46.993C8.76057 46.8247 8.66602 46.5964 8.66602 46.3584C8.66602 46.1204 8.76057 45.8921 8.92887 45.7238C9.09717 45.5555 9.32544 45.4609 9.56345 45.4609H13.1532C13.3912 45.4609 13.6195 45.5555 13.7878 45.7238C13.9561 45.8921 14.0506 46.1204 14.0506 46.3584C14.0506 46.5964 13.9561 46.8247 13.7878 46.993C13.6195 47.1613 13.3912 47.2558 13.1532 47.2558Z" fill="#3B1788"/>
<path d="M12.5693 58.4736C12.3717 58.4736 12.1797 58.4084 12.023 58.2881C11.8662 58.1678 11.7536 57.9992 11.7025 57.8084C11.6513 57.6176 11.6646 57.4152 11.7402 57.2327C11.8158 57.0502 11.9495 56.8977 12.1206 56.799L15.2293 55.0041C15.3314 54.9442 15.4443 54.9052 15.5616 54.8891C15.6788 54.8731 15.7981 54.8804 15.9125 54.9107C16.027 54.9409 16.1343 54.9935 16.2283 55.0654C16.3223 55.1373 16.4012 55.2271 16.4603 55.3296C16.5195 55.4321 16.5578 55.5453 16.5731 55.6626C16.5883 55.78 16.5802 55.8992 16.5492 56.0134C16.5182 56.1276 16.4649 56.2346 16.3924 56.3281C16.3199 56.4217 16.2296 56.5 16.1267 56.5584L13.018 58.3533C12.8816 58.4321 12.7268 58.4736 12.5693 58.4736Z" fill="#3B1788"/>
<path d="M15.6768 37.8329C15.5193 37.8328 15.3645 37.7914 15.2281 37.7126L12.1193 35.9177C11.9149 35.7979 11.7662 35.602 11.7056 35.3729C11.645 35.1438 11.6775 34.9 11.796 34.6948C11.9145 34.4896 12.1094 34.3395 12.3381 34.2774C12.5668 34.2154 12.8108 34.2462 13.0168 34.3634L16.1255 36.1582C16.2966 36.257 16.4303 36.4095 16.5059 36.592C16.5815 36.7745 16.5947 36.9769 16.5436 37.1677C16.4925 37.3585 16.3798 37.5271 16.2231 37.6474C16.0664 37.7677 15.8743 37.8328 15.6768 37.8329Z" fill="#3B1788"/>
<path d="M54.4344 18.5371H50.8447C50.6067 18.5371 50.3784 18.4425 50.2101 18.2742C50.0418 18.1059 49.9473 17.8776 49.9473 17.6396C49.9473 17.4016 50.0418 17.1733 50.2101 17.005C50.3784 16.8367 50.6067 16.7422 50.8447 16.7422H54.4344C54.6725 16.7422 54.9007 16.8367 55.069 17.005C55.2373 17.1733 55.3319 17.4016 55.3319 17.6396C55.3319 17.8776 55.2373 18.1059 55.069 18.2742C54.9007 18.4425 54.6725 18.5371 54.4344 18.5371Z" fill="#3B1788"/>
<path d="M51.4293 29.7548C51.2717 29.7548 51.117 29.7133 50.9806 29.6346L47.8718 27.8397C47.769 27.7812 47.6787 27.7029 47.6061 27.6094C47.5336 27.5159 47.4803 27.4089 47.4493 27.2947C47.4183 27.1805 47.4102 27.0612 47.4255 26.9439C47.4407 26.8265 47.479 26.7133 47.5382 26.6108C47.5974 26.5083 47.6763 26.4185 47.7703 26.3467C47.8643 26.2748 47.9716 26.2222 48.086 26.1919C48.2004 26.1617 48.3197 26.1543 48.437 26.1704C48.5542 26.1864 48.6672 26.2255 48.7693 26.2853L51.878 28.0802C52.0491 28.179 52.1828 28.3315 52.2584 28.514C52.334 28.6965 52.3472 28.8989 52.2961 29.0897C52.245 29.2805 52.1323 29.4491 51.9756 29.5694C51.8189 29.6896 51.6268 29.7548 51.4293 29.7548Z" fill="#3B1788"/>
<path d="M48.3212 9.11411C48.1237 9.1141 47.9316 9.04891 47.7749 8.92865C47.6182 8.80839 47.5055 8.63977 47.4544 8.44895C47.4033 8.25814 47.4165 8.05578 47.4921 7.87327C47.5677 7.69075 47.7014 7.53828 47.8725 7.4395L50.9812 5.64463C51.1872 5.5275 51.4312 5.49661 51.6599 5.5587C51.8886 5.62079 52.0835 5.77082 52.202 5.97605C52.3205 6.18129 52.353 6.42506 52.2924 6.65417C52.2318 6.88328 52.0831 7.07913 51.8787 7.19898L48.7699 8.99386C48.6335 9.07263 48.4788 9.11411 48.3212 9.11411Z" fill="#3B1788"/>
</svg>
