<svg width="96" height="96" viewBox="0 0 96 96" fill="none" xmlns="http://www.w3.org/2000/svg">
<g filter="url(#filter0_d)">
<g clip-path="url(#clip0)">
<path d="M50.0911 24.2732L50.6138 30.5459H45.9093V23.7504H43.8184L48.0002 19.0459L51.6593 23.7504L50.0911 24.2732Z" fill="white"/>
<path d="M31.2722 39.4314L37.5449 38.9086L37.5449 43.6132L30.7495 43.6132L30.7495 45.7041L26.0449 41.5223L30.7495 37.8632L31.2722 39.4314Z" fill="white"/>
<path d="M64.7278 39.4314L58.4551 38.9086L58.4551 43.6132L65.2505 43.6132L65.2505 45.7041L69.9551 41.5223L65.2505 37.8632L64.7278 39.4314Z" fill="white"/>
<path d="M46.4324 57.7268L45.9096 51.4541L50.6142 51.4541L50.6142 58.2496L52.7051 58.2496L48.5233 62.9541L44.8642 58.2496L46.4324 57.7268Z" fill="white"/>
<ellipse cx="47.4773" cy="41.5232" rx="10.9773" ry="10.9773" fill="white"/>
<circle cx="48.0002" cy="38.9094" r="4.18182" fill="#EDE7FF"/>
<path d="M55.5977 34.2991C55.2221 34.2991 54.8791 34.0557 54.7527 33.7029C54.6281 33.3552 54.7345 32.9547 55.0165 32.7154C55.3108 32.4658 55.7441 32.4337 56.0718 32.6374C56.386 32.8326 56.5515 33.2129 56.4791 33.5759C56.3963 33.9903 56.0207 34.2991 55.5977 34.2991Z" fill="#3B1788"/>
<path d="M70.6565 40.2935L65.627 36.3429C65.3565 36.1305 64.9885 36.0911 64.6792 36.2415C64.37 36.3919 64.1736 36.7056 64.1736 37.0496V37.9731H59.2483C59.1119 37.4655 58.9405 36.9664 58.7343 36.4775C58.5415 36.0204 58.0144 35.8062 57.5573 35.9988C57.1001 36.1917 56.8857 36.7186 57.0786 37.1758C57.5894 38.3867 57.8482 39.6732 57.8482 40.9996C57.8482 43.5906 56.8248 46.0552 55.0462 47.8795V47.8413C55.0462 45.6329 53.6711 43.7396 51.7322 42.9727C52.8702 41.9493 53.587 40.4661 53.587 38.8186C53.587 35.738 51.0807 33.2317 48.0002 33.2317C44.9196 33.2317 42.4133 35.738 42.4133 38.8186C42.4133 40.466 43.1301 41.9492 44.2682 42.9726C42.3295 43.7395 40.9546 45.6329 40.9546 47.8413V47.8801C39.1754 46.056 38.1517 43.5912 38.1517 40.9996C38.1517 35.5696 42.5698 31.1518 48.0004 31.1518C49.3146 31.1518 50.5904 31.4062 51.792 31.908C52.2503 32.0993 52.7762 31.883 52.9673 31.4251C53.1585 30.9672 52.9423 30.441 52.4845 30.2498C52.0078 30.0508 51.5214 29.8847 51.0269 29.7518V24.8264H51.9503C52.2943 24.8264 52.608 24.6301 52.7583 24.3208C52.9087 24.0114 52.8693 23.6434 52.6569 23.373L48.7065 18.3435C48.5363 18.1266 48.2757 18 48 18C47.7243 18 47.4637 18.1266 47.2935 18.3435L43.3429 23.373C43.1306 23.6434 43.0911 24.0114 43.2415 24.3208C43.3918 24.6301 43.7056 24.8264 44.0495 24.8264H44.9729V29.7539C40.9801 30.8297 37.8294 33.9803 36.7537 37.973H31.8264V37.0495C31.8264 36.7056 31.63 36.3918 31.3208 36.2414C31.0114 36.0911 30.6434 36.1304 30.373 36.3429L25.3435 40.2935C25.1266 40.4638 25 40.7243 25 41C25 41.2757 25.1266 41.5362 25.3435 41.7065L30.373 45.657C30.5344 45.7838 30.7305 45.849 30.9281 45.849C31.0617 45.849 31.196 45.8191 31.3208 45.7586C31.63 45.6082 31.8264 45.2944 31.8264 44.9505V44.027H36.7561C37.4611 46.6405 39.0658 48.9644 41.3368 50.551C41.3374 50.5514 41.3379 50.5517 41.3384 50.5522C42.4536 51.3316 43.6804 51.9018 44.9729 52.2484V57.1736H44.0495C43.7056 57.1736 43.3918 57.3699 43.2415 57.6792C43.0911 57.9886 43.1306 58.3566 43.3429 58.627L47.2935 63.6565C47.4638 63.8734 47.7243 64 48 64C48.2757 64 48.5363 63.8734 48.7065 63.6565L52.657 58.627C52.8694 58.3566 52.9089 57.9886 52.7585 57.6792C52.6082 57.3699 52.2944 57.1736 51.9505 57.1736H51.0271V52.2487C52.3199 51.9021 53.547 51.3318 54.6625 50.5522C54.6634 50.5515 54.6645 50.5508 54.6655 50.55C56.9353 48.9631 58.5391 46.6397 59.2439 44.0271H64.1737V44.9506C64.1737 45.2945 64.3701 45.6083 64.6793 45.7587C64.8041 45.8193 64.9384 45.849 65.072 45.849C65.2696 45.849 65.4657 45.7839 65.6271 45.6571L70.6566 41.7066C70.8735 41.5363 71.0001 41.2758 71.0001 41.0001C71.0001 40.7244 70.8734 40.4638 70.6565 40.2935ZM45.8974 23.0299L48 20.3529L50.1026 23.0299C49.6184 23.0436 49.2301 23.4405 49.2301 23.928V29.4187C48.824 29.3762 48.4137 29.3549 48.0004 29.3549C47.5847 29.3549 47.1742 29.3768 46.7698 29.4195V23.928C46.7699 23.4405 46.3815 23.0437 45.8974 23.0299ZM30.928 42.2301C30.4404 42.2301 30.0436 42.6184 30.0299 43.1026L27.3529 41L30.0299 38.8974C30.0436 39.3816 30.4404 39.7699 30.928 39.7699H36.4194C36.3768 40.1741 36.3549 40.5843 36.3549 40.9996C36.3549 41.413 36.3769 41.8237 36.4202 42.2301H30.928ZM48.0003 35.0287C50.09 35.0287 51.7902 36.7288 51.7902 38.8187C51.7902 40.8925 50.116 42.5825 48.0483 42.6083H47.9522C45.8845 42.5825 44.2103 40.8925 44.2103 38.8187C44.2103 36.7288 45.9105 35.0287 48.0003 35.0287ZM42.7516 47.8413C42.7516 45.9466 44.2927 44.4051 46.187 44.4051H47.9441C47.9628 44.4053 47.9815 44.4053 48.0002 44.4053C48.0189 44.4053 48.0376 44.4053 48.0562 44.4051H49.8129C51.7077 44.4051 53.2491 45.9466 53.2491 47.8413V49.3344C51.6795 50.3263 49.8746 50.8482 48.0003 50.8482C46.1259 50.8482 44.321 50.3262 42.7514 49.3344V47.8413H42.7516ZM50.1026 58.9701L48 61.6471L45.8974 58.9701C46.3816 58.9564 46.7699 58.5595 46.7699 58.072V52.581C47.1764 52.6236 47.587 52.6451 48.0005 52.6451C48.4136 52.6451 48.824 52.6236 49.2302 52.5811V58.072C49.2301 58.5595 49.6185 58.9563 50.1026 58.9701ZM65.9701 43.1026C65.9564 42.6184 65.5596 42.2301 65.072 42.2301H59.5799C59.6232 41.8237 59.6452 41.413 59.6452 40.9996C59.6452 40.5863 59.6238 40.1761 59.5814 39.7699H65.0721C65.5597 39.7699 65.9565 39.3816 65.9702 38.8974L68.6471 41L65.9701 43.1026Z" fill="#3B1788"/>
</g>
</g>
<defs>
<filter id="filter0_d" x="0" y="0" width="96" height="96" filterUnits="userSpaceOnUse" color-interpolation-filters="sRGB">
<feFlood flood-opacity="0" result="BackgroundImageFix"/>
<feColorMatrix in="SourceAlpha" type="matrix" values="0 0 0 0 0 0 0 0 0 0 0 0 0 0 0 0 0 0 127 0"/>
<feOffset dy="7"/>
<feGaussianBlur stdDeviation="12.5"/>
<feColorMatrix type="matrix" values="0 0 0 0 0.0810138 0 0 0 0 0.00659722 0 0 0 0 0.316667 0 0 0 0.15 0"/>
<feBlend mode="normal" in2="BackgroundImageFix" result="effect1_dropShadow"/>
<feBlend mode="normal" in="SourceGraphic" in2="effect1_dropShadow" result="shape"/>
</filter>
<clipPath id="clip0">
<rect width="46" height="46" fill="white" transform="translate(25 18)"/>
</clipPath>
</defs>
</svg>
