<svg width="64" height="64" viewBox="0 0 64 64" fill="none" xmlns="http://www.w3.org/2000/svg">
<path d="M42.6647 23.6534V27.8273V28.2911H23.1864L22.7227 25.0447L24.114 22.7259L26.8966 20.407L29.2154 19.9433L29.6792 18.552L27.3603 16.2331L25.5053 10.6679L26.4328 4.17518L30.6067 1.39258H34.7806L38.027 3.24765L39.882 7.88532V12.523L38.027 16.2331L35.7081 18.0882L37.0994 20.407L41.7371 21.7983L42.6647 23.6534Z" fill="white"/>
<path d="M20.8736 57.5069V61.6808V62.1446H1.39541L0.931641 58.8982L2.32294 56.5794L5.10555 54.2606L7.42438 53.7968L7.88815 52.4055L5.56931 50.0866L3.71424 44.5214L4.64178 38.0287L8.81569 35.2461H12.9896L16.236 37.1012L18.091 41.7388V46.3765L16.236 50.0866L13.9171 51.9417L15.3084 54.2606L19.9461 55.6519L20.8736 57.5069Z" fill="white"/>
<path d="M62.6119 58.4386V62.6125V63.0762H43.1337L42.6699 59.8299L44.0612 57.511L46.8438 55.1922L49.1627 54.7284L49.6264 53.3371L47.3076 51.0183L45.4525 45.4531L46.3801 38.9603L50.554 36.1777H54.7279L57.9742 38.0328L59.8293 42.6705V47.3082L57.9742 51.0183L55.6554 52.8734L57.0467 55.1922L61.6844 56.5835L62.6119 58.4386Z" fill="white"/>
<path d="M57.8842 54.2801C57.7229 54.236 57.5625 54.1923 57.4033 54.1479C57.1932 54.0894 57.0255 53.7916 56.8993 53.4964C59.3138 51.8223 61.1123 48.9529 61.1123 46.4514V44.1767C61.1123 41.3698 60.2331 38.9863 58.5699 37.2839C57.0772 35.756 55.0667 34.895 52.9088 34.8594C52.8985 34.8593 52.888 34.8593 52.8778 34.8594C50.7199 34.8952 48.7094 35.7562 47.2167 37.2839C45.5534 38.9863 44.6743 41.3698 44.6743 44.1767V46.4514C44.6743 48.953 46.4732 51.8219 48.8884 53.4958C48.7627 53.791 48.5948 54.0891 48.3824 54.148C48.2229 54.1926 48.0617 54.2366 47.8994 54.281C47.0884 54.5028 46.1834 54.7504 45.3234 55.1268L38.7897 48.3698C39.8332 47.0247 40.4584 45.3285 40.4584 43.4855C40.4584 39.4308 37.4428 36.0814 33.5759 35.637V29.1371H42.4119C43.2523 29.1371 43.9359 28.4478 43.9359 27.6007V25.6377C43.9359 21.0861 40.3956 20.1218 37.8104 19.4177C37.6522 19.3746 37.4948 19.3317 37.3386 19.2882C37.1267 19.2294 36.9591 18.9313 36.8332 18.6348C39.2491 16.9626 41.0484 14.0943 41.0484 11.592V9.31733C41.0484 6.51021 40.1692 4.12671 38.5054 2.42447C37.0124 0.896843 35.0009 0.0357187 32.8414 9.37499e-05C32.8312 -3.125e-05 32.8207 -3.125e-05 32.8104 9.37499e-05C30.6524 0.0358437 28.642 0.896842 27.1493 2.42459C25.4861 4.12696 24.607 6.51046 24.607 9.31733V11.5922C24.607 14.0947 26.4065 16.9631 28.8222 18.6352C28.6963 18.9316 28.5285 19.2297 28.3163 19.2886C28.1606 19.3319 28.0031 19.3747 27.845 19.4179C25.2598 20.1221 21.7195 21.0864 21.7195 25.6379V27.6009C21.7195 28.4481 22.4032 29.1373 23.2435 29.1373H31.7009V35.6534C27.8946 36.1549 24.9436 39.4748 24.9436 43.4857C24.9436 45.3302 25.5698 47.0277 26.6148 48.3733L20.265 55.0044C19.039 54.0304 17.4413 53.5919 16.1005 53.2253C15.9382 53.181 15.7768 53.1368 15.6156 53.0918C15.4045 53.0331 15.237 52.7351 15.1113 52.4399C17.5267 50.7659 19.3255 47.8972 19.3255 45.3955V43.1208C19.3255 40.3139 18.4463 37.9304 16.7831 36.228C15.2903 34.7002 13.2799 33.8392 11.122 33.8035C11.1117 33.8034 11.1012 33.8034 11.091 33.8035C8.93311 33.8393 6.92261 34.7003 5.42987 36.228C3.76662 37.9304 2.8875 40.3139 2.8875 43.1208V45.3955C2.8875 47.8969 4.68562 50.766 7.10049 52.4404C6.97424 52.7358 6.80649 53.0335 6.59599 53.0921C6.43711 53.1364 6.27674 53.1803 6.11549 53.2244C3.53462 53.9291 0 54.8946 0 59.4446V61.4076C0 62.2548 0.683749 62.944 1.524 62.944H8.96161C9.47948 62.944 9.89911 62.5243 9.89911 62.0065C9.89911 61.4888 9.47948 61.069 8.96161 61.069H1.875V59.4446C1.875 56.9323 3.21037 56.069 5.47249 55.3618L9.61948 57.8474C10.1541 58.1963 10.6304 58.3705 11.1064 58.3705C11.5824 58.3705 12.058 58.196 12.5909 57.8471L16.74 55.362C19.0025 56.0695 20.3381 56.9325 20.3381 59.4446V61.069H13.0396C12.5217 61.069 12.1021 61.4888 12.1021 62.0065C12.1021 62.5243 12.5217 62.944 13.0396 62.944H20.689C21.5293 62.944 22.213 62.2548 22.213 61.4076V59.4446C22.213 58.1886 21.9426 57.2069 21.4982 56.4273L27.933 49.7076C29.2495 50.7554 30.9041 51.3821 32.7008 51.3821C34.4992 51.3821 36.1552 50.7543 37.4723 49.7049L43.6681 56.1124C42.5701 57.0123 41.7867 58.3593 41.7867 60.5006V62.4636C41.7867 63.3108 42.4704 64 43.3107 64H50.9253C51.4432 64 51.8628 63.5803 51.8628 63.0625C51.8628 62.5448 51.4432 62.125 50.9253 62.125H43.6617V60.5006C43.6617 57.9884 44.9974 57.1256 47.2598 56.418L51.4089 58.9031C51.9418 59.252 52.4173 59.4265 52.8934 59.4265C53.3694 59.4265 53.8457 59.2521 54.3803 58.9034L58.5272 56.4179C60.7895 57.1249 62.1249 57.9881 62.1249 60.5005V62.1249H55.1667C54.6488 62.1249 54.2292 62.5446 54.2292 63.0624C54.2292 63.5801 54.6488 63.9999 55.1667 63.9999H62.4759C63.3163 63.9999 63.9999 63.3106 63.9999 62.4635V60.5005C63.9999 55.9504 60.4651 54.985 57.8842 54.2801V54.2801ZM11.1066 35.6783C13.9151 35.7319 16.9151 37.719 17.3866 41.9403C16.9733 41.7512 16.7092 41.4764 16.4213 41.177C15.9841 40.7223 15.4165 40.1319 14.4105 40.1319C14.1695 40.1319 13.9032 40.1658 13.6079 40.2435C13.2236 40.344 12.898 40.4324 12.6167 40.5089C11.8222 40.7249 11.4232 40.8332 11.1065 40.8332C10.7897 40.8332 10.3907 40.7248 9.59623 40.5089C9.31498 40.4325 8.98948 40.344 8.60624 40.2439C7.07336 39.8413 6.33161 40.6138 5.78974 41.1779C5.50249 41.4768 5.23887 41.7513 4.82649 41.9402C5.29824 37.7189 8.29811 35.7319 11.1066 35.6783ZM4.76262 45.3954V43.926C6.02924 43.6315 6.68349 42.9538 7.14186 42.4768C7.60361 41.9962 7.66274 41.9347 8.13111 42.0575C8.50861 42.1562 8.82836 42.243 9.10473 42.3182C10.0299 42.5695 10.5396 42.708 11.1066 42.708C11.6736 42.708 12.1832 42.5695 13.1085 42.3182C13.3849 42.243 13.7047 42.1562 14.0836 42.0572C14.5491 41.9344 14.6082 41.9964 15.07 42.4765C15.5287 42.9537 16.1837 43.6315 17.4507 43.926V45.3954C17.4507 47.7608 15.1826 50.6941 12.5967 51.6726C11.4967 52.0894 10.7157 52.0893 9.61336 51.6726C7.02911 50.6938 4.76262 47.7604 4.76262 45.3954V45.3954ZM11.6106 56.2486C11.5987 56.2558 11.5871 56.263 11.5756 56.2706C11.1237 56.5691 11.0885 56.5694 10.6326 56.2695C10.6217 56.2624 10.6106 56.2554 10.5994 56.2486L7.79036 54.565C8.25124 54.2355 8.54861 53.766 8.74774 53.3448C8.81499 53.3724 8.88199 53.4006 8.94961 53.4263C9.71598 53.7158 10.4111 53.8605 11.1061 53.8605C11.8012 53.8605 12.4959 53.7156 13.2604 53.426C13.3285 53.4003 13.396 53.3719 13.4637 53.344C13.6625 53.7656 13.9596 54.2355 14.4211 54.5651L11.6106 56.2486ZM32.8259 1.87509C35.6361 1.92872 38.6378 3.91559 39.1094 8.13733C38.6953 7.94783 38.4309 7.67233 38.1431 7.37208C37.7063 6.91658 37.1394 6.32546 36.1324 6.32546C35.8912 6.32546 35.6247 6.35933 35.3288 6.43733C34.9538 6.53621 34.6346 6.62346 34.3578 6.69908C33.5523 6.91933 33.1479 7.02996 32.8259 7.02996C32.5071 7.02996 32.1041 6.91971 31.3007 6.69996C31.0233 6.62408 30.7031 6.53646 30.3261 6.43708C28.7945 6.03409 28.0527 6.80783 27.5108 7.37233C27.2231 7.67208 26.959 7.94721 26.546 8.13658C27.0177 3.91559 30.0176 1.92884 32.8259 1.87509V1.87509ZM26.482 11.5922V10.1227C27.7496 9.82783 28.4046 9.14871 28.8635 8.67071C29.325 8.18983 29.3843 8.12808 29.8486 8.25021C30.2187 8.34783 30.5334 8.43396 30.8061 8.50846C31.7407 8.76396 32.2554 8.90483 32.8259 8.90483C33.3997 8.90483 33.9157 8.76371 34.8524 8.50758C35.1244 8.43321 35.4382 8.34746 35.8063 8.25033C36.2707 8.12808 36.3296 8.18983 36.7898 8.66983C37.2486 9.14821 37.9038 9.82795 39.1733 10.1228V11.5922C39.1733 13.9162 36.8602 16.9062 34.3193 17.8658C33.2182 18.2831 32.4373 18.2831 31.3351 17.8656C28.7951 16.9062 26.482 13.9162 26.482 11.5922V11.5922ZM36.1421 20.7606L33.3336 22.4418C33.3217 22.4489 33.3101 22.4563 33.2984 22.4639C32.8453 22.7633 32.8102 22.7633 32.3571 22.4639C32.3454 22.4562 32.3336 22.4488 32.3216 22.4416L29.5123 20.7612C29.9741 20.4313 30.2716 19.9612 30.4706 19.5383C30.5376 19.5658 30.6043 19.5938 30.6718 19.6193C31.4377 19.9094 32.1328 20.0544 32.8281 20.0544C33.5229 20.0544 34.2178 19.9094 34.9829 19.6196C35.0507 19.5939 35.1177 19.5658 35.1849 19.5382C35.3838 19.9609 35.6809 20.4307 36.1421 20.7606V20.7606ZM23.5945 27.2622V25.6379C23.5945 23.1278 24.9296 22.2641 27.1915 21.5578L31.3418 24.0404C31.8757 24.3898 32.3517 24.5646 32.8277 24.5646C33.3038 24.5646 33.7798 24.3898 34.3137 24.0403L38.4618 21.5572C40.7251 22.2636 42.0609 23.1271 42.0609 25.6379V27.2622H23.5945ZM32.7009 49.5072C29.4575 49.5072 26.8186 46.8059 26.8186 43.4855C26.8186 40.1633 29.4573 37.4604 32.7009 37.4604C35.9446 37.4604 38.5834 40.1633 38.5834 43.4855C38.5834 46.8059 35.9447 49.5072 32.7009 49.5072ZM52.8933 36.7342C55.7018 36.7878 58.7017 38.7748 59.1733 42.9959C58.7609 42.807 58.4973 42.5325 58.21 42.2337C57.6682 41.6697 56.9262 40.897 55.3947 41.2994C55.0104 41.3999 54.6848 41.4883 54.4035 41.5648C53.609 41.7808 53.21 41.889 52.8933 41.889C52.5765 41.889 52.1775 41.7807 51.3829 41.5647C51.1017 41.4883 50.7762 41.3998 50.3934 41.2998C48.863 40.897 48.1204 41.6692 47.5784 42.2329C47.2905 42.5323 47.0264 42.807 46.6132 42.9962C47.0849 38.775 50.0849 36.7879 52.8933 36.7342V36.7342ZM46.5494 46.4513V44.9819C47.8164 44.6874 48.4714 44.0095 48.9302 43.5324C49.3919 43.0522 49.4512 42.9907 49.9179 43.1134C50.2953 43.212 50.615 43.2989 50.8913 43.374C51.8167 43.6254 52.3264 43.7639 52.8934 43.7639C53.4604 43.7639 53.97 43.6254 54.8953 43.374C55.1717 43.2989 55.4915 43.212 55.87 43.113C56.3373 42.9904 56.3967 43.052 56.8582 43.5325C57.3165 44.0097 57.9708 44.6874 59.2374 44.9818V46.4512C59.2374 48.8161 56.9708 51.7495 54.3877 52.7281C53.284 53.145 52.5033 53.1451 51.403 52.7283C48.8174 51.7499 46.5494 48.8166 46.5494 46.4513V46.4513ZM53.4005 57.3046C53.3893 57.3114 53.3782 57.3183 53.3673 57.3255C52.9117 57.6253 52.8764 57.6253 52.4243 57.3266C52.4128 57.319 52.401 57.3116 52.3893 57.3046L49.5784 55.6211C50.0402 55.2914 50.3373 54.8216 50.536 54.4003C50.6037 54.428 50.671 54.4564 50.739 54.4821C51.5038 54.7718 52.1984 54.9166 52.8935 54.9166C53.5885 54.9166 54.2843 54.7718 55.051 54.4821C55.1184 54.4566 55.1852 54.4285 55.2522 54.401C55.4513 54.8223 55.7487 55.2918 56.2094 55.6213L53.4005 57.3046Z" fill="#3B1788"/>
</svg>
