<svg width="84" height="81" viewBox="0 0 84 81" fill="none" xmlns="http://www.w3.org/2000/svg">
<circle cx="47.9028" cy="35.9028" r="35.9028" fill="#EDE7FF"/>
<g clip-path="url(#clip0)">
<path d="M38.5 30.5L40.5 32.5L42.5 31.5L58 29.5L59 26L61.5 25L68.5 29.5V31.5L61.5 37.5H60L59 35H54L51.5 36L53 40L46.5 44V49L53 52L50.5 59L48.5 60L42.5 58L39 61.5L41.5 68.5L37 70.5L33 71.5L29.5 65.5H24.5L22.5 70.5L21 72L13.5 68.5L15.5 61.5L11.5 58L4.5 60L1.5 52.5L8 49V44.5L1.5 40.5L3.5 34L6 32.5L12.5 34L15 30.5L12.5 24L15.5 22.5L21.5 21L24.5 27L29.5 27.5L31 23L33.5 20.5L40 23L41.5 25L38.5 30.5Z" fill="white"/>
<circle cx="26.5" cy="46.5" r="12.5" fill="#EDE7FF"/>
<path d="M32 43L37 37.5H37.5L41 40L36.5 47L32.5 49L26 46.5L18 54L16 50L25 40L32 43Z" fill="white"/>
<path d="M68.3723 27.5426L62.5441 23.7198C61.3718 22.9507 59.8983 22.9246 58.6989 23.6514C57.4994 24.3788 56.8414 25.6974 56.9813 27.0929L57.086 28.1354L42.8256 29.7963C42.0224 29.8898 41.256 30.1797 40.5943 30.6273C40.5297 30.5717 40.465 30.5162 40.4004 30.4612L42.1692 26.0825C42.9431 24.1673 42.0197 21.9905 40.1035 21.2166L35.1212 19.2032C33.2056 18.4294 31.0288 19.3533 30.2549 21.269L28.4861 25.6472C27.4821 25.5815 26.4738 25.59 25.4708 25.6734L23.6262 21.3267C23.2358 20.4075 22.5111 19.6956 21.585 19.3218C20.6595 18.9474 19.6432 18.9565 18.7246 19.3464L13.7781 21.4463C11.8806 22.2516 10.9925 24.4504 11.7979 26.3479L13.643 30.694C12.8863 31.3579 12.1797 32.0773 11.5298 32.8447L7.15101 31.0759C5.24068 30.3036 3.05745 31.2302 2.28521 33.1416L0.27234 38.1239C-0.499909 40.0353 0.426682 42.218 2.33754 42.9902L6.71575 44.759C6.65006 45.763 6.65914 46.7708 6.74192 47.7738L2.39576 49.6189C0.493973 50.4264 -0.392029 52.6182 0.415467 54.5205L2.51485 59.467C3.32021 61.3645 5.51946 62.2526 7.41644 61.4473L11.7626 59.6021C12.4264 60.3588 13.1458 61.0654 13.9133 61.7154L12.1445 66.0936C11.7706 67.0196 11.7792 68.0354 12.1696 68.9545C12.5594 69.8736 13.2841 70.5861 14.2102 70.9599C19.0584 72.8339 19.3708 73.2451 20.5885 73.2451C22.0678 73.2451 23.4713 72.3607 24.0588 70.9076L25.8276 66.5288C26.8316 66.595 27.8399 66.586 28.8429 66.5032L30.6875 70.8494C31.4929 72.7469 33.6916 73.635 35.5891 72.8296L40.5355 70.7303C42.4373 69.9233 43.3233 67.731 42.5158 65.8287L40.6706 61.4825C41.4274 60.8187 42.134 60.0993 42.7839 59.3313L47.1621 61.1007C49.0778 61.8745 51.2546 60.9506 52.0285 59.0349L54.0413 54.0527C54.8136 52.1413 53.887 49.9586 51.9761 49.1863L47.5979 47.4175C47.6636 46.4135 47.6545 45.4052 47.5718 44.4028L51.9179 42.5576C53.8154 41.7523 54.7036 39.5535 53.8987 37.656L53.3006 36.2472L57.8502 35.7558L57.8566 35.8199C57.9966 37.216 58.9034 38.3775 60.2231 38.8518C61.5432 39.3266 62.982 39.0083 63.9786 38.0219L68.9314 33.1176C70.5624 31.5026 70.2874 28.7987 68.3723 27.5426ZM51.3545 38.7359C51.5644 39.2304 51.3326 39.8035 50.8381 40.0134L45.5471 42.2591C44.9736 42.5026 44.6339 43.0997 44.7177 43.7171C44.9169 45.1868 44.9298 46.6789 44.7557 48.1519C44.6825 48.7703 45.0328 49.3621 45.6107 49.5954L50.9406 51.7488C51.4389 51.9501 51.6803 52.5189 51.4789 53.0166C49.3763 57.9732 49.5937 58.2552 48.9432 58.5313C48.704 58.6328 48.4391 58.6354 48.1977 58.5377L42.8672 56.3839C42.2894 56.1505 41.6271 56.3326 41.2501 56.8287C40.3518 58.009 39.3061 59.0734 38.1419 59.9925C37.6527 60.3781 37.4823 61.0435 37.7258 61.6171C39.9032 66.9876 40.2429 66.9983 39.9785 67.6541C39.8808 67.8955 39.6949 68.084 39.4557 68.186L34.5092 70.2854C34.0147 70.4953 33.4416 70.264 33.2318 69.7695L30.9855 64.478C30.742 63.9045 30.1454 63.5643 29.5275 63.6486C28.0578 63.8479 26.5656 63.8612 25.0932 63.6871C24.4743 63.6134 23.8831 63.9637 23.6497 64.5416L21.4964 69.872C21.295 70.3698 20.7262 70.6117 20.228 70.4104C15.2719 68.3078 14.9894 68.5246 14.7138 67.8747C14.6118 67.6349 14.6097 67.3705 14.7069 67.1286L16.8607 61.7987C17.0941 61.2208 16.912 60.5581 16.4159 60.181C15.2356 59.2833 14.1712 58.2376 13.2521 57.0728C12.8665 56.5836 12.2005 56.4138 11.6275 56.6568L6.33657 58.903C5.8415 59.1129 5.26845 58.8811 5.05857 58.3866L2.95919 53.4401C2.74877 52.9445 2.97948 52.3731 3.47509 52.1627L8.76654 49.9169C9.34012 49.6734 9.67978 49.0763 9.59593 48.459C9.39619 46.9887 9.38337 45.4971 9.55748 44.0241C9.63064 43.4052 9.28084 42.814 8.70298 42.5806L3.37308 40.4273C2.87481 40.2259 2.63341 39.6571 2.83422 39.1589L4.84762 34.1766C5.04896 33.6789 5.6172 33.437 6.11547 33.6383L11.4459 35.7916C12.0232 36.025 12.686 35.8429 13.0636 35.3473C13.9608 34.167 15.0065 33.1026 16.1713 32.1835C16.6605 31.7979 16.8308 31.132 16.5878 30.5589L14.3416 25.2675C14.1317 24.7729 14.3629 24.1999 14.8575 23.99L19.8039 21.8906C20.3006 21.6797 20.8715 21.912 21.0814 22.4065L23.3276 27.698C23.5712 28.2716 24.1698 28.6112 24.7856 28.5274C26.2559 28.3282 27.748 28.3148 29.2204 28.4889C29.8399 28.5621 30.4306 28.2123 30.664 27.6344C32.9241 22.2912 32.6886 22.0487 33.3402 21.7726C33.5794 21.6711 33.8443 21.6685 34.0857 21.7662C39.0241 23.8608 39.3243 23.6514 39.5999 24.3019C39.8765 24.9529 39.5384 24.9647 37.4529 30.3773C37.2196 30.9552 37.4017 31.618 37.8978 31.995C38.1766 32.207 38.4506 32.4287 38.7176 32.6588L36.3053 35.836C33.7338 33.5464 30.3404 32.3523 27.5131 32.3523C26.7686 32.3523 26.1544 32.9446 26.1325 33.6933C26.1101 34.4565 26.7104 35.0931 27.473 35.1155C30.1385 35.194 32.6902 36.2493 34.6278 38.0459L32.115 41.3549C31.9853 41.5258 31.7428 41.568 31.5628 41.451L28.6063 39.5252C26.689 38.2766 24.1442 38.5661 22.5559 40.2136L16.2038 46.806C16.0073 43.7902 17.0669 40.7717 19.201 38.5244C19.7265 37.9711 19.7041 37.0963 19.1508 36.5708C18.597 36.0453 17.7222 36.0683 17.1966 36.6216C13.8038 40.1949 12.5808 45.3272 13.996 50.0328C14.0078 50.0793 14.3336 51.0379 14.5109 51.4561C16.7299 56.6835 21.8253 59.8269 27.1755 59.8264C28.9625 59.8259 30.7788 59.475 32.5247 58.7342C35.5832 57.4359 38.0655 55.0765 39.5144 52.0906C40.8501 49.338 41.2293 46.2277 40.6028 43.2599C44.9543 37.3708 44.6125 37.8323 44.6414 37.7954C44.965 37.3805 45.4537 37.0953 46.007 37.0355L50.4295 36.5575L51.3545 38.7359ZM38.12 46.6197C38.0479 48.0867 37.6805 49.5388 37.0278 50.8836C34.5455 55.9999 28.4738 58.456 23.0457 56.2632C21.7329 55.7328 20.558 54.9707 19.5647 54.0201L25.5536 47.7049C25.7523 47.4955 26.0636 47.4523 26.3114 47.6007L28.7932 49.0849C31.7604 50.8596 35.5474 50.1007 37.6025 47.3198L38.12 46.6197ZM66.9869 31.1533L62.034 36.0576C61.6939 36.394 61.3083 36.3049 61.1582 36.2509C61.0081 36.197 60.6546 36.0202 60.6065 35.5438L60.4612 34.0944C60.3849 33.3355 59.7061 32.7763 58.9376 32.858C56.1445 33.1598 48.0706 34.0319 45.71 34.2872C44.3882 34.4298 43.177 35.1251 42.3866 36.1943C41.6854 37.1433 36.6807 43.9163 35.3797 45.6776C34.1744 47.3091 31.9527 47.7535 30.2116 46.7126L27.7304 45.229C26.3638 44.4113 24.6441 44.6474 23.5482 45.8031L17.9801 51.6745L17.0338 49.9276L24.5458 42.1314C25.2161 41.4366 26.2885 41.3143 27.0976 41.8409L30.0546 43.7667C31.4427 44.6703 33.3145 44.3451 34.3164 43.026L41.6117 33.4172C41.6159 33.4119 41.6207 33.406 41.625 33.4001C41.6266 33.398 41.6282 33.3958 41.6298 33.3937C41.632 33.3905 41.6341 33.3884 41.6362 33.3852C41.6421 33.3782 41.6474 33.3718 41.6528 33.3649C41.6533 33.3643 41.6533 33.3643 41.6539 33.3638C42.0224 32.9077 42.5623 32.6097 43.1455 32.5419L58.7565 30.724C59.5063 30.6364 60.0474 29.964 59.972 29.2131L59.7317 26.8173C59.6837 26.3415 59.9955 26.0979 60.1317 26.0152C60.2685 25.9324 60.6284 25.7684 61.0284 26.0312L66.8566 29.854C67.3041 30.1472 67.3672 30.7768 66.9869 31.1533Z" fill="#3B1788"/>
<path d="M22.3294 36.0958H22.3326C23.0958 36.0958 23.7132 35.4773 23.7132 34.7142C23.7132 33.9505 23.0926 33.332 22.3294 33.332C21.5662 33.332 20.9473 33.9505 20.9473 34.7142C20.9473 35.4773 21.5662 36.0958 22.3294 36.0958Z" fill="#3B1788"/>
</g>
<defs>
<clipPath id="clip0">
<rect width="70" height="70" fill="white" transform="translate(0 11)"/>
</clipPath>
</defs>
</svg>
