<svg width="94" height="98" viewBox="0 0 94 98" fill="none" xmlns="http://www.w3.org/2000/svg">
<g filter="url(#filter0_d)">
<path d="M40.3028 59.3027L35.5586 47.3027L48.6749 40.0469L50.3493 40.605L51.1865 42.2794L50.0702 44.7911L47.8377 47.0236L47.2795 47.8608L47.8377 48.698H53.4191L56.2098 48.419L63.1865 43.3957L64.8609 42.8376L67.0935 43.3957L68.2098 46.1864L64.8609 49.5352L57.8842 55.1166L40.3028 59.3027Z" fill="white"/>
<path d="M55.9297 25.5135L56.2732 47.4956V48.5261L62.4556 44.0609V28.6048V26.2005L61.0817 24.1396H57.647L55.9297 25.5135Z" fill="white"/>
<path d="M47 32.2859L47.3615 52.72V53.6778L53.8694 49.5272V35.1595V32.9245L52.4232 31.0088H48.8077L47 32.2859Z" fill="white"/>
<path d="M38.0684 37.4724L38.4299 52.9528V53.6784L44.9378 50.534V39.6493V37.9562L43.4916 36.5049H39.8761L38.0684 37.4724Z" fill="white"/>
<path d="M28.108 49.2132L35.6643 47.1523L40.4729 59.1738V60.8912L39.099 63.6389L33.6035 65.3563H31.1992L29.1384 62.952L27.0776 56.0826L26.3906 51.9609L28.108 49.2132Z" fill="white"/>
<path d="M67.7386 43.0765C65.5329 40.8807 62.983 42.9359 62.983 42.9359V31.3764C62.983 30.9882 62.6684 30.6733 62.2802 30.6733C61.8917 30.6733 61.5771 30.9882 61.5771 31.3764V43.9251C61.5771 43.9251 58.2244 46.568 56.7834 47.214V26.4007C56.7834 25.4331 57.5704 24.6461 58.5379 24.6461H59.8226C60.7901 24.6461 61.5771 25.4331 61.5771 26.4007V28.498C61.5771 28.8865 61.8917 29.2011 62.2802 29.2011C62.6684 29.2011 62.983 28.8865 62.983 28.498V26.4007C62.983 24.6578 61.5654 23.2402 59.8226 23.2402H58.5379C56.7951 23.2402 55.3771 24.6578 55.3771 26.4007V47.7714C54.9578 47.8889 54.5275 47.9688 54.0902 48.0109V33.1877C54.0902 31.4361 52.6653 30.0111 50.9141 30.0111H49.6605C47.9093 30.0111 46.4844 31.4361 46.4844 33.1877V40.3515L45.1971 41.0349V38.6509C45.1971 37.0739 43.9143 35.7911 42.3377 35.7911H40.451C38.8741 35.7911 37.5916 37.0739 37.5916 38.6509V45.072L35.2958 46.2904L28.849 48.1328C27.7273 48.4533 26.7905 49.1879 26.2119 50.2008C25.6329 51.2142 25.4758 52.3941 25.7695 53.5231L26.4906 56.2976C26.588 56.6733 26.9718 56.8985 27.3479 56.8011C27.7236 56.7033 27.9492 56.3195 27.8514 55.9434L27.1304 53.1694C26.7122 51.5602 27.6368 49.9416 29.2357 49.4849L35.1299 47.8003L39.56 59.6239C39.8566 60.4156 39.8098 62.6744 37.4664 63.5068L33.0121 64.5187C31.4597 64.871 29.9301 63.9404 29.5294 62.3994L28.6253 58.92C28.5275 58.5443 28.1437 58.3187 27.768 58.4161C27.3919 58.5139 27.1666 58.8977 27.264 59.2738L28.1686 62.7535C28.6769 64.7084 30.4135 66 32.3467 66C33.7673 66 37.778 64.8779 37.778 64.8779C38.9986 64.6011 40.0394 63.8101 40.633 62.7085C41.123 61.7995 41.2684 60.7536 41.0582 59.7572L56.4684 55.9845C57.7429 55.6721 58.9528 55.0667 59.9665 54.2336L67.4658 48.0717C69.7521 46.044 68.411 43.7456 67.7386 43.0765ZM49.6605 31.4174H50.9141C51.89 31.4174 52.684 32.2117 52.684 33.1877V48.046L48.2473 48.0442C47.8397 48.0406 48.1217 47.7714 48.144 47.7531L49.4218 46.7182C50.6138 45.7525 51.3924 44.4099 51.7355 42.7272C51.9534 41.6597 51.5462 40.591 50.6735 39.9385C49.8583 39.3291 48.8098 39.2119 47.8906 39.6147V33.1877C47.8906 32.2117 48.6846 31.4174 49.6605 31.4174ZM38.9979 38.6509C38.9979 37.8496 39.6497 37.1973 40.451 37.1973H42.3377C43.139 37.1973 43.7912 37.8496 43.7912 38.6509V41.7812L38.9975 44.3257V38.6509H38.9979ZM66.5733 46.9855L59.0737 53.1474C58.2219 53.8476 57.2052 54.3563 56.1341 54.6185L40.6103 58.4194L36.4355 47.2781L48.3557 40.9507C48.8402 40.6932 49.3921 40.7361 49.8312 41.0646C50.2703 41.3931 50.4673 41.9094 50.3578 42.4463C50.0813 43.8009 49.4686 44.8706 48.5366 45.6254L47.2589 46.6607C46.7352 47.0847 46.5422 47.7692 46.7671 48.4046C46.9919 49.0396 47.5727 49.4505 48.2466 49.4505L53.3695 49.4527H53.3732C55.1969 49.4527 56.9496 48.8982 58.4416 47.849L64.167 43.8229C64.9686 43.2589 66.0478 43.3585 66.7326 44.0595C67.1271 44.4623 67.899 45.6594 66.5733 46.9855Z" fill="#3B1788"/>
<ellipse cx="33.9475" cy="59.8606" rx="2.06082" ry="2.06082" fill="#EDE7FF"/>
<path d="M36.8662 60.0741C36.8662 58.5466 35.6237 57.3037 34.0962 57.3037C32.5687 57.3037 31.3262 58.5466 31.3262 60.0741C31.3262 61.6012 32.5687 62.8441 34.0962 62.8441C35.6237 62.8441 36.8662 61.6012 36.8662 60.0741ZM32.7324 60.0741C32.7324 59.3219 33.344 58.71 34.0962 58.71C34.848 58.71 35.46 59.3219 35.46 60.0741C35.46 60.8259 34.8484 61.4379 34.0962 61.4379C33.344 61.4379 32.7324 60.8259 32.7324 60.0741Z" fill="#3B1788"/>
<path d="M38.4691 25.3274L26.4476 37.3489L25.7606 38.7228L27.1345 40.0967L28.8519 39.4097L39.156 29.1056L42.2472 30.4795H43.2776L50.147 23.9536L50.4905 26.3579L51.8644 27.3883L53.2383 26.3579V19.8319L52.5513 18.458H45.6819L44.6515 20.1754L45.6819 21.5493L47.7428 21.8927L42.2472 27.0448L38.4691 25.3274Z" fill="white"/>
<path d="M29.0388 40.0764L39.2598 29.7767L41.5589 30.9658C42.3825 31.3917 43.3849 31.2459 44.0528 30.6029L49.6163 25.2474C49.6163 25.2474 49.4633 27.998 51.7796 27.998C52.972 27.998 53.9424 27.0275 53.9424 25.8348L53.9424 20.1629C53.9424 20.1563 53.9421 20.1493 53.9421 20.1423C53.9344 18.6625 52.8522 18 51.7796 18L46.1571 18C44.9643 18 43.9942 18.9705 43.9942 20.1629C43.9942 22.5403 46.4138 22.3257 46.4138 22.3257L42.1694 26.4112L39.837 25.2049C38.9936 24.7684 37.9774 24.9284 37.3079 25.6022L25.9685 37.0292C25.1284 37.8758 25.1335 39.248 25.9802 40.0881C26.3882 40.4928 27.7812 41.334 29.0388 40.0764ZM26.9664 38.0198L38.3059 26.5928C38.4523 26.4456 38.6874 26.1878 39.191 26.454L41.9709 27.8918C42.2386 28.0302 42.5645 27.983 42.7817 27.7739L48.6455 22.1294C48.8521 21.9306 48.9172 21.6259 48.8099 21.36C48.7026 21.0938 48.4448 20.9198 48.1577 20.9198L46.1571 20.9198C45.74 20.9198 45.4005 20.5803 45.4005 20.1629C45.4005 19.7457 45.74 19.4063 46.1571 19.4063L51.7796 19.4063C51.9865 19.4063 52.5358 19.4063 52.5358 20.1585C52.5358 20.1647 52.5362 20.1709 52.5362 20.1775L52.5362 25.8348C52.5362 26.2519 52.1967 26.5914 51.7796 26.5914C51.3621 26.5914 51.0226 26.2519 51.0226 25.8348L51.0226 23.5946C51.0226 23.3127 50.8541 23.0578 50.5949 22.9475C50.3356 22.8369 50.0353 22.8926 49.832 23.0882L43.0776 29.5899C42.844 29.8148 42.4931 29.866 42.2053 29.717L39.4477 28.2906C39.1749 28.1496 38.842 28.202 38.6256 28.4199L28.0409 39.0858C27.5795 39.5472 27.1133 39.2316 26.9705 39.0898C26.6746 38.7958 26.6727 38.3157 26.9664 38.0198Z" fill="#3B1788"/>
</g>
<defs>
<filter id="filter0_d" x="-2" y="0" width="98" height="98" filterUnits="userSpaceOnUse" color-interpolation-filters="sRGB">
<feFlood flood-opacity="0" result="BackgroundImageFix"/>
<feColorMatrix in="SourceAlpha" type="matrix" values="0 0 0 0 0 0 0 0 0 0 0 0 0 0 0 0 0 0 127 0"/>
<feOffset dy="7"/>
<feGaussianBlur stdDeviation="12.5"/>
<feColorMatrix type="matrix" values="0 0 0 0 0.0810138 0 0 0 0 0.00659722 0 0 0 0 0.316667 0 0 0 0.15 0"/>
<feBlend mode="normal" in2="BackgroundImageFix" result="effect1_dropShadow"/>
<feBlend mode="normal" in="SourceGraphic" in2="effect1_dropShadow" result="shape"/>
</filter>
</defs>
</svg>
