<svg width="92" height="92" viewBox="0 0 92 92" fill="none" xmlns="http://www.w3.org/2000/svg">
<g filter="url(#filter0_d)">
<path d="M64 19.5H56V24.5H64L62.5 22L63.5 20.5L64 19.5Z" fill="white"/>
<path d="M50 30.5L56 27.5H56.5L56 30L50.5 33.5L49.5 38L48.5 42.5L48 45L46.5 47L43.5 51H42L44.5 45L45 41L45.5 38L46.5 34.5L47.5 32L47 31.5L45.5 29L46 28L48.5 27L50 30.5Z" fill="white"/>
<path d="M52 47.5H50V43.5L48.5 42.5V41L49.5 38.5L52.5 42L52 47.5Z" fill="#EDE7FF"/>
<path d="M62 59.5H30V56L30.5 55H37.5L38 53L38.5 51.5H46V47.5H54V43L54.5 41.5H60.5L62 42.5V59.5Z" fill="white"/>
<path d="M64.6281 23.646L62.8333 22.0657L64.6281 20.4856C64.9072 20.2395 65.0027 19.856 64.8716 19.508C64.7399 19.1597 64.4147 18.9347 64.0426 18.9347H56.6156V18.6156C56.6156 18.2756 56.3401 18 56.0001 18C55.6601 18 55.3845 18.2756 55.3845 18.6156V26.9174L50.329 29.6625C50.3012 29.4401 50.2345 29.2216 50.1291 29.0159L49.4168 27.6252C48.9278 26.6703 47.7531 26.2919 46.7988 26.7805L46.248 27.0625C45.7853 27.2996 45.4427 27.7021 45.2832 28.1968C45.1236 28.6913 45.1662 29.2184 45.4033 29.6808L46.1156 31.0718C46.2819 31.3964 46.5277 31.6534 46.8168 31.8335C46.4386 32.3426 46.2592 32.9688 46.0746 33.6192L45.942 34.089C45.8494 34.4162 46.0397 34.7565 46.3669 34.8487C46.4226 34.8648 46.479 34.8721 46.5345 34.8721C46.803 34.8721 47.0497 34.6952 47.1266 34.4238L47.2593 33.955C47.5291 33.0037 47.6947 32.4942 48.2222 32.2077L49.1678 31.6941L49.2844 31.6345C49.3232 31.6146 49.3594 31.5922 49.3962 31.5701L56.1356 27.9104C56.093 28.7528 55.6396 29.5488 54.893 30.0022L50.5104 32.665C50.5053 32.6679 50.5001 32.6707 50.4953 32.674L49.1312 33.5026C48.8409 33.6792 48.7483 34.0579 48.9249 34.3485C49.0912 34.6225 49.4373 34.7199 49.7196 34.5825L48.6846 37.7112L47.928 38.0214L45.8708 38.8644L46.4636 36.7688C46.5559 36.4416 46.3659 36.1013 46.0387 36.0087C45.7113 35.9158 45.3713 36.1064 45.2787 36.4336L44.342 39.7459C44.3299 39.7885 44.3219 39.8353 44.3199 39.8799L44.0748 44.3826C44.0674 44.5544 44.104 44.879 44.0245 45.0465L41.3021 50.774H39.3237C38.1647 50.774 37.222 51.7167 37.222 52.8754V54.6522C36.9567 54.5308 36.6622 54.4628 36.3517 54.4628H31.3276C30.1689 54.4628 29.2262 55.4052 29.2262 56.5642V58.7688H27.7484C27.4084 58.7688 27.1328 59.0444 27.1328 59.3844C27.1328 59.7243 27.4084 59.9999 27.7484 59.9999H64.042C64.382 59.9999 64.6576 59.7243 64.6576 59.3844C64.6576 59.0444 64.382 58.7688 64.042 58.7688H62.4411V42.9025C62.4411 41.7438 61.4984 40.8011 60.3397 40.8011H56.6156V30.0624C57.2981 29.1373 57.551 27.9248 57.2341 26.7725C57.1844 26.5915 57.0546 26.4428 56.8816 26.3694C56.7967 26.3332 56.7057 26.3172 56.6156 26.3207V25.1969H64.0423C64.4147 25.1969 64.7399 24.972 64.8713 24.624C65.0027 24.276 64.9072 23.8921 64.6281 23.646ZM46.455 28.575C46.5136 28.3933 46.6392 28.2452 46.8091 28.1584L47.3599 27.8764C47.4637 27.8232 47.5746 27.7979 47.6842 27.7979C47.9437 27.7979 48.1946 27.9399 48.3209 28.1863L49.0335 29.5773C49.1998 29.9022 49.0922 30.296 48.7964 30.495L48.5958 30.6036L48.1725 30.8206C47.8223 31 47.391 30.8609 47.2115 30.5104L46.4989 29.1197C46.412 28.9499 46.3963 28.7563 46.455 28.575ZM45.2181 50.9634C45.0089 50.8679 44.7814 50.8054 44.5423 50.7833L45.2181 49.8857V50.9634ZM48.1408 46.0034C48.4369 45.6486 48.5186 45.2343 48.5846 44.9004C48.6012 44.821 48.905 43.1618 48.905 43.1618C48.905 43.1618 49.1924 43.3409 49.2226 43.3537C49.2434 43.363 49.2581 43.3835 49.2604 43.4075L49.5952 46.8115H47.5323L48.1408 46.0034ZM51.7809 42.6058L51.2612 46.8086H50.8321L50.4857 43.287C50.4415 42.8359 50.1653 42.4421 49.7606 42.2463L49.1415 41.8537L49.5539 39.5681C49.5539 39.5681 51.2913 41.632 51.3317 41.6846C51.6912 42.1521 51.8142 42.3392 51.7809 42.6058ZM45.1319 45.5849C45.2562 45.2106 45.3139 44.8296 45.3043 44.4422L45.528 40.3355L48.375 39.1688L47.8575 42.0354C47.8559 42.0431 47.8543 42.0511 47.8534 42.0588L47.4253 44.4291C47.3695 44.6745 47.3208 45.0469 47.1676 45.2491L43.0081 50.774H42.6652L45.1319 45.5849ZM30.4573 56.5639C30.4573 56.0842 30.8476 55.6939 31.3276 55.6939H36.3517C36.8317 55.6939 37.2223 56.0842 37.2223 56.5639V58.7688H30.4573V56.5639ZM38.4531 56.5639V52.8754C38.4531 52.3954 38.8437 52.0051 39.3237 52.0051H44.3478C44.8278 52.0051 45.2181 52.3954 45.2181 52.8754V58.7688H38.4534L38.4531 56.5639ZM61.21 42.9025V58.7688H54.4453V55.0781C54.4453 54.7381 54.1698 54.4625 53.8298 54.4625C53.4895 54.4625 53.2139 54.7381 53.2139 55.0781V58.7688H46.4492V48.9126C46.4492 48.4329 46.8395 48.0426 47.3195 48.0426H52.3436C52.8236 48.0426 53.2139 48.4329 53.2139 48.9126V51.9984C53.2139 52.3383 53.4895 52.6139 53.8295 52.6139C54.1698 52.6139 54.445 52.3383 54.445 51.9984V42.9025C54.445 42.4225 54.8356 42.0322 55.3156 42.0322H55.9937C55.9956 42.0322 55.9978 42.0325 56.0001 42.0325C56.002 42.0325 56.0042 42.0322 56.0062 42.0322H60.3394C60.8194 42.0322 61.21 42.4228 61.21 42.9025ZM55.3156 40.8011C54.1569 40.8011 53.2142 41.7438 53.2142 42.9025V47.0009C52.9938 46.9003 52.7534 46.8365 52.5006 46.8179L53.0027 42.7574C53.1014 41.9659 52.6977 41.4413 52.3074 40.9338C52.2661 40.8799 49.8734 38.039 49.8734 38.039L51.3413 33.601L55.3845 31.1445V40.8011H55.3156ZM56.6156 23.9655V20.1661H63.1278L61.7253 21.4011C61.5343 21.5693 61.4247 21.8116 61.4247 22.066C61.4247 22.3204 61.5343 22.5627 61.7253 22.7309L63.1278 23.9658L56.6156 23.9655Z" fill="#3B1788"/>
</g>
<defs>
<filter id="filter0_d" x="0" y="0" width="92" height="92" filterUnits="userSpaceOnUse" color-interpolation-filters="sRGB">
<feFlood flood-opacity="0" result="BackgroundImageFix"/>
<feColorMatrix in="SourceAlpha" type="matrix" values="0 0 0 0 0 0 0 0 0 0 0 0 0 0 0 0 0 0 127 0"/>
<feOffset dy="7"/>
<feGaussianBlur stdDeviation="12.5"/>
<feColorMatrix type="matrix" values="0 0 0 0 0.0810138 0 0 0 0 0.00659722 0 0 0 0 0.316667 0 0 0 0.15 0"/>
<feBlend mode="normal" in2="BackgroundImageFix" result="effect1_dropShadow"/>
<feBlend mode="normal" in="SourceGraphic" in2="effect1_dropShadow" result="shape"/>
</filter>
</defs>
</svg>
