<svg width="92" height="92" viewBox="0 0 92 92" fill="none" xmlns="http://www.w3.org/2000/svg">
<g filter="url(#filter0_d)">
<path d="M55.5 47.5L58 45L56 41L38.5 44L41.5 46L43.5 49.5L44 52.5V55L45.5 55.5L46 58L48 59H50.5L51.5 58L52 56L53 55.5L53.5 54.5V51L55.5 47.5Z" fill="white"/>
<path d="M44 55.5V52.5H53.5V55L44 55.5Z" fill="#EDE7FF"/>
<path d="M46 58L45.5 55.5H52L51.5 58L49 59.5L46 58Z" fill="white"/>
<circle cx="48" cy="33" r="15" fill="white"/>
<path d="M39.3936 26.3558C38.1125 26.8397 37.1947 28.0685 37.1947 29.5166C37.1947 30.0742 37.3432 30.5932 37.583 31.0579C36.5669 31.4486 35.8398 32.4283 35.8398 33.581C35.8398 34.7341 36.5669 35.7135 37.583 36.1044C37.3432 36.5691 37.1947 37.0881 37.1947 37.6455C37.1947 39.0939 38.1125 40.3227 39.3936 40.8062C39.292 41.09 39.2269 41.3917 39.2269 41.7099C39.2269 43.2043 40.4421 44.4195 41.9365 44.4195C42.2739 44.4195 42.5937 44.3497 42.8918 44.2373C43.3307 45.1432 44.2512 45.7743 45.3235 45.7743C46.8179 45.7743 48.0332 44.5591 48.0332 43.0647V24.0973C48.0332 22.6033 46.8179 21.3877 45.3235 21.3877C44.2512 21.3877 43.3307 22.0191 42.8918 22.9248C42.5937 22.8123 42.2739 22.7425 41.9365 22.7425C40.4421 22.7425 39.2269 23.9581 39.2269 25.4521C39.2269 25.7707 39.292 26.072 39.3936 26.3558ZM41.9365 24.0973C42.6837 24.0973 43.2913 24.7049 43.2913 25.4521H44.6461C44.6461 24.8012 44.4057 24.2104 44.0216 23.7431C44.1788 23.1689 44.6997 22.7425 45.3235 22.7425C46.0707 22.7425 46.6783 23.3501 46.6783 24.0973V43.0647C46.6783 43.8119 46.0707 44.4195 45.3235 44.4195C44.6997 44.4195 44.1788 43.9935 44.0216 43.419C44.4057 42.9516 44.6461 42.3612 44.6461 41.7099H43.2913C43.2913 42.4571 42.6837 43.0647 41.9365 43.0647C41.1893 43.0647 40.5817 42.4571 40.5817 41.7099C40.5817 40.9627 41.1893 40.3551 41.9365 40.3551V39.0003C41.2766 39.0003 40.6793 39.247 40.2092 39.64C39.2662 39.4643 38.5495 38.6387 38.5495 37.6455C38.5495 36.5252 39.4614 35.6132 40.5817 35.6132C41.7023 35.6132 42.6139 36.5252 42.6139 37.6455H43.9687C43.9687 35.778 42.4495 34.2584 40.5817 34.2584C39.8163 34.2584 39.1171 34.5234 38.5495 34.9537V34.9358C37.8023 34.9358 37.1947 34.3282 37.1947 33.581C37.1947 32.8338 37.8023 32.2262 38.5495 32.2262V32.2087C39.1171 32.639 39.8163 32.9036 40.5817 32.9036C42.4495 32.9036 43.9687 31.3844 43.9687 29.5166H42.6139C42.6139 30.6372 41.7023 31.5488 40.5817 31.5488C39.4614 31.5488 38.5495 30.6372 38.5495 29.5166C38.5495 28.5236 39.2662 27.698 40.2092 27.5224C40.6793 27.9153 41.2766 28.1618 41.9365 28.1618V26.8069C41.1893 26.8069 40.5817 26.1993 40.5817 25.4521C40.5817 24.7049 41.1893 24.0973 41.9365 24.0973Z" fill="#3B1788"/>
<path d="M55.4834 22.7425C55.146 22.7425 54.8265 22.8123 54.5285 22.9248C54.0892 22.0191 53.1687 21.3877 52.0963 21.3877C50.6019 21.3877 49.3867 22.6033 49.3867 24.0973V43.0647C49.3867 44.5591 50.6019 45.7743 52.0963 45.7743C53.1687 45.7743 54.0892 45.1432 54.5285 44.2373C54.8265 44.3497 55.146 44.4195 55.4834 44.4195C56.9778 44.4195 58.193 43.2043 58.193 41.7099C58.193 41.3917 58.1282 41.09 58.0263 40.8062C59.3074 40.3227 60.2252 39.0939 60.2252 37.6455C60.2252 37.0881 60.077 36.5691 59.8372 36.1044C60.8533 35.7135 61.58 34.7341 61.58 33.581C61.58 32.4283 60.8533 31.4486 59.8372 31.0579C60.077 30.5932 60.2252 30.0742 60.2252 29.5166C60.2252 28.0685 59.3074 26.8397 58.0263 26.3558C58.1282 26.072 58.193 25.7707 58.193 25.4521C58.193 23.9581 56.9778 22.7425 55.4834 22.7425ZM58.8704 29.5166C58.8704 30.6372 57.9588 31.5488 56.8382 31.5488C55.7179 31.5488 54.806 30.6372 54.806 29.5166H53.4512C53.4512 31.3844 54.9707 32.9036 56.8382 32.9036C57.6036 32.9036 58.3028 32.639 58.8704 32.2087V32.2262C59.6176 32.2262 60.2252 32.8338 60.2252 33.581C60.2252 34.3282 59.6176 34.9358 58.8704 34.9358V34.9537C58.3028 34.5234 57.6036 34.2584 56.8382 34.2584C54.9707 34.2584 53.4512 35.778 53.4512 37.6455H54.806C54.806 36.5252 55.7179 35.6132 56.8382 35.6132C57.9588 35.6132 58.8704 36.5252 58.8704 37.6455C58.8704 38.6387 58.1536 39.4643 57.211 39.64C56.7406 39.247 56.1433 39.0003 55.4834 39.0003V40.3551C56.2306 40.3551 56.8382 40.9627 56.8382 41.7099C56.8382 42.4571 56.2306 43.0647 55.4834 43.0647C54.7362 43.0647 54.1286 42.4571 54.1286 41.7099H52.7738C52.7738 42.3612 53.0142 42.9516 53.3982 43.419C53.2411 43.9935 52.7202 44.4195 52.0963 44.4195C51.3491 44.4195 50.7415 43.8119 50.7415 43.0647V24.0973C50.7415 23.3501 51.3491 22.7425 52.0963 22.7425C52.7202 22.7425 53.2411 23.1689 53.3982 23.7431C53.0142 24.2104 52.7738 24.8012 52.7738 25.4521H54.1286C54.1286 24.7049 54.7362 24.0973 55.4834 24.0973C56.2306 24.0973 56.8382 24.7049 56.8382 25.4521C56.8382 26.1993 56.2306 26.8069 55.4834 26.8069V28.1618C56.1433 28.1618 56.7406 27.9153 57.211 27.5224C58.1536 27.698 58.8704 28.5236 58.8704 29.5166Z" fill="#3B1788"/>
<path d="M59.3759 22.2251C56.2105 19.2499 52.0647 17.7581 47.7138 18.032L47.7978 19.3838C51.7733 19.1367 55.5572 20.4962 58.4485 23.2121C61.341 25.9303 62.9343 29.6134 62.9343 33.5809C62.9343 38.3621 60.5511 42.7957 56.5591 45.4412C55.1822 46.3541 54.1402 47.6563 53.4982 49.1613H43.8912C43.2402 47.6454 42.1943 46.3339 40.815 45.4127C36.701 42.6631 34.337 38.0711 34.4908 33.1271L33.1367 33.0851C32.968 38.4991 35.5575 43.5287 40.0626 46.5386C41.0575 47.2038 41.852 48.1094 42.4057 49.1613H40.5799V50.5161H42.9462C43.0775 50.955 43.1827 51.4049 43.2359 51.8709H41.9347V53.2257H43.2895V55.2579C43.2895 55.6327 43.5931 55.9353 43.9669 55.9353H44.6443C44.6443 58.1769 46.4672 59.9998 48.7088 59.9998C50.9503 59.9998 52.7732 58.1769 52.7732 55.9353H53.4506C53.8247 55.9353 54.128 55.6327 54.128 55.2579V53.2257H55.4828V51.8709H54.1756C54.2236 51.4055 54.3192 50.9543 54.4479 50.5161H56.8376V49.1613H54.9824C55.5281 48.121 56.318 47.2266 57.308 46.5711C61.679 43.6722 64.2891 38.8166 64.2891 33.5809C64.2891 29.2985 62.498 25.159 59.3759 22.2251ZM48.7088 58.645C47.2144 58.645 45.9991 57.4297 45.9991 55.9353H51.4184C51.4184 57.4297 50.2031 58.645 48.7088 58.645ZM52.7732 54.5805H44.6443V53.2257H52.7732V54.5805ZM52.8215 51.8709H44.5901C44.5448 51.4098 44.4717 50.9567 44.3605 50.5161H53.0322C52.9243 50.956 52.8618 51.4111 52.8215 51.8709Z" fill="#3B1788"/>
<path d="M37.5 22C37.5 22.8284 36.8284 24 36 24C35.1716 24 34 22.8284 34 22C34 21.1716 35.1716 20.5 36 20.5C36.8284 20.5 37.5 21.1716 37.5 22Z" fill="white"/>
<path d="M33.5 28.5C33.5 29.3284 32.8284 30.5 32 30.5C31.1716 30.5 30 29.3284 30 28.5C30 27.6716 31.1716 27 32 27C32.8284 27 33.5 27.6716 33.5 28.5Z" fill="white"/>
<path d="M32.4508 22.7428C33.9452 22.7428 35.1605 23.9584 35.1605 25.4524C35.1605 25.8272 35.4641 26.1299 35.8379 26.1299C36.212 26.1299 36.5153 25.8272 36.5153 25.4524C36.5153 23.9584 37.7305 22.7428 39.2249 22.7428C39.599 22.7428 39.9023 22.4402 39.9023 22.0654C39.9023 21.691 39.599 21.388 39.2249 21.388C37.7305 21.388 36.5153 20.1728 36.5153 18.6784C36.5153 18.304 36.212 18.001 35.8379 18.001C35.4641 18.001 35.1605 18.304 35.1605 18.6784C35.1605 20.1728 33.9452 21.388 32.4508 21.388C32.0771 21.388 31.7734 21.691 31.7734 22.0654C31.7734 22.4402 32.0771 22.7428 32.4508 22.7428ZM35.8379 20.9226C36.1389 21.3751 36.5282 21.7648 36.9807 22.0654C36.5282 22.3664 36.1389 22.7557 35.8379 23.2082C35.5372 22.7557 35.1476 22.3664 34.6951 22.0654C35.1476 21.7648 35.5372 21.3751 35.8379 20.9226Z" fill="#3B1788"/>
<path d="M35.1624 29.5163C35.5365 29.5163 35.8398 29.2136 35.8398 28.8389C35.8398 28.4644 35.5365 28.1615 35.1624 28.1615C33.668 28.1615 32.4528 26.9462 32.4528 25.4518C32.4528 25.0774 32.1495 24.7744 31.7754 24.7744C31.4016 24.7744 31.098 25.0774 31.098 25.4518C31.098 26.9462 29.8827 28.1615 28.3883 28.1615C28.0146 28.1615 27.7109 28.4644 27.7109 28.8389C27.7109 29.2136 28.0146 29.5163 28.3883 29.5163C29.8827 29.5163 31.098 30.7318 31.098 32.2259C31.098 32.6007 31.4016 32.9033 31.7754 32.9033C32.1495 32.9033 32.4528 32.6007 32.4528 32.2259C32.4528 30.7318 33.668 29.5163 35.1624 29.5163ZM31.7754 29.9817C31.4747 29.5292 31.0851 29.1399 30.6326 28.8389C31.0851 28.5382 31.4741 28.1486 31.7754 27.6961C32.0764 28.1486 32.4657 28.5375 32.9182 28.8389C32.4657 29.1399 32.0764 29.5292 31.7754 29.9817Z" fill="#3B1788"/>
</g>
<defs>
<filter id="filter0_d" x="0" y="0" width="92" height="92" filterUnits="userSpaceOnUse" color-interpolation-filters="sRGB">
<feFlood flood-opacity="0" result="BackgroundImageFix"/>
<feColorMatrix in="SourceAlpha" type="matrix" values="0 0 0 0 0 0 0 0 0 0 0 0 0 0 0 0 0 0 127 0"/>
<feOffset dy="7"/>
<feGaussianBlur stdDeviation="12.5"/>
<feColorMatrix type="matrix" values="0 0 0 0 0.0810138 0 0 0 0 0.00659722 0 0 0 0 0.316667 0 0 0 0.15 0"/>
<feBlend mode="normal" in2="BackgroundImageFix" result="effect1_dropShadow"/>
<feBlend mode="normal" in="SourceGraphic" in2="effect1_dropShadow" result="shape"/>
</filter>
</defs>
</svg>
