<svg width="152" height="83" viewBox="0 0 152 83" fill="none" xmlns="http://www.w3.org/2000/svg">
<path d="M20.2157 65.2812L17.4351 67.9341C15.5436 65.9385 13.4157 64.9407 11.0512 64.9407C9.05568 64.9407 7.37222 65.6217 6.00087 66.9836C4.63897 68.3455 3.95802 70.0242 3.95802 72.0198C3.95802 73.4101 4.26066 74.6443 4.86595 75.7224C5.47124 76.8006 6.32716 77.6471 7.4337 78.2618C8.54024 78.8766 9.76973 79.1839 11.1222 79.1839C12.276 79.1839 13.3305 78.9711 14.2858 78.5455C15.241 78.1105 16.2908 77.3255 17.4351 76.1906L20.1306 78.9995C18.589 80.5033 17.1325 81.5483 15.7611 82.1347C14.3898 82.7116 12.8245 83.0001 11.0654 83.0001C7.82146 83.0001 5.16387 81.9739 3.09265 79.9216C1.03088 77.8599 0 75.2212 0 72.0056C0 69.9249 0.468153 68.076 1.40446 66.4587C2.35022 64.8414 3.69793 63.541 5.4476 62.5574C7.20672 61.5738 9.09824 61.082 11.1222 61.082C12.8435 61.082 14.4985 61.4462 16.0874 62.1744C17.6858 62.9026 19.0619 63.9382 20.2157 65.2812Z" fill="#CEC7DD"/>
<path d="M34.1462 61.082C37.097 61.082 39.6316 62.1507 41.7501 64.2882C43.8781 66.4256 44.9421 69.0312 44.9421 72.1049C44.9421 75.1503 43.8923 77.7275 41.7927 79.8365C39.7026 81.9456 37.1632 83.0001 34.1746 83.0001C31.0441 83.0001 28.4433 81.9172 26.372 79.7514C24.3008 77.5856 23.2652 75.0131 23.2652 72.034C23.2652 70.0384 23.7475 68.2036 24.7122 66.5296C25.6769 64.8556 27.001 63.5316 28.6844 62.5574C30.3773 61.5738 32.1979 61.082 34.1462 61.082ZM34.1037 64.9691C32.1743 64.9691 30.5523 65.6406 29.2377 66.9836C27.9231 68.3266 27.2658 70.0337 27.2658 72.1049C27.2658 74.4126 28.0933 76.2379 29.7484 77.5809C31.0347 78.6307 32.51 79.1556 34.1746 79.1556C36.0567 79.1556 37.6597 78.4746 38.9838 77.1127C40.3079 75.7508 40.9699 74.0721 40.9699 72.0765C40.9699 70.0904 40.3031 68.4117 38.9696 67.0403C37.6361 65.6595 36.0141 64.9691 34.1037 64.9691Z" fill="#CEC7DD"/>
<path d="M49.2684 82.4752V61.6069H52.5455C54.4464 61.6069 55.8367 61.7299 56.7163 61.9758C57.9647 62.3068 58.9577 62.9215 59.6954 63.82C60.4331 64.7185 60.802 65.7777 60.802 66.9978C60.802 67.7922 60.6317 68.5157 60.2913 69.1683C59.9603 69.8114 59.4164 70.4167 58.6598 70.9842C59.9271 71.58 60.854 72.3272 61.4404 73.2256C62.0267 74.1146 62.3199 75.1692 62.3199 76.3892C62.3199 77.562 62.0173 78.6307 61.412 79.5953C60.8067 80.56 60.0265 81.2835 59.0712 81.7659C58.116 82.2388 56.7967 82.4752 55.1132 82.4752H49.2684ZM53.2406 65.3947V69.7925H54.106C55.0707 69.7925 55.7847 69.5892 56.2481 69.1825C56.721 68.7758 56.9575 68.2225 56.9575 67.5227C56.9575 66.8701 56.7352 66.3547 56.2907 65.9764C55.8462 65.5886 55.17 65.3947 54.262 65.3947H53.2406ZM53.2406 73.3391V78.6874H54.2337C55.8793 78.6874 56.9858 78.4793 57.5533 78.0632C58.1302 77.6471 58.4187 77.0418 58.4187 76.2473C58.4187 75.3489 58.0829 74.6395 57.4114 74.1194C56.7399 73.5992 55.6239 73.3391 54.0634 73.3391H53.2406Z" fill="#CEC7DD"/>
<path d="M66.7172 61.6069H78.1089V65.494H70.661V69.2676H78.1089V73.0838H70.661V78.5739H78.1089V82.4752H66.7172V61.6069Z" fill="#CEC7DD"/>
<path d="M80.3498 61.6069H91.8834V65.5224H88.0814V82.4752H84.0524V65.5224H80.3498V61.6069Z" fill="#CEC7DD"/>
<path d="M95.174 61.6069H99.203V69.4804H106.183V61.6069H110.197V82.4752H106.183V73.3249H99.203V82.4752H95.174V61.6069Z" fill="#CEC7DD"/>
<path d="M130.753 61.6069V82.4752H126.781V69.4095L118.993 82.4752H115.531V61.6069H119.503V75.0982L127.405 61.6069H130.753Z" fill="#CEC7DD"/>
<path d="M136.129 61.6069H140.144V68.7853L145.804 61.6069H150.585L143.293 70.9132L151.294 82.4752H146.585L140.144 73.2114V82.4752H136.129V61.6069Z" fill="#CEC7DD"/>
<path d="M56.4745 11.7237C56.2154 11.5753 55.9531 11.487 55.7014 11.3763C55.4554 11.2682 55.2067 11.166 54.9594 11.0611C54.704 10.9528 54.4487 10.844 54.1932 10.7358C53.9379 10.6276 53.6822 10.5197 53.4267 10.4117C53.1711 10.3038 52.9155 10.1964 52.6598 10.0884C52.4123 9.98389 52.1646 9.87961 51.9173 9.77441C51.6623 9.66595 51.4077 9.55643 51.1348 9.43946C51.1703 9.39026 51.1919 9.34369 51.2274 9.31359C52.2487 8.44795 53.289 7.60769 54.4189 6.88597C54.9945 6.51831 55.6066 6.24001 56.2747 6.09269C56.8569 5.96433 57.442 5.9205 58.0271 6.06521C58.2109 6.11074 58.3915 6.1776 58.5654 6.25362C59.193 6.52773 59.8173 6.80996 60.443 7.08878C60.5298 7.12751 60.6176 7.16375 60.7216 7.20824C60.8009 7.14818 60.8843 7.08786 60.9648 7.02375C62.5015 5.80026 64.1673 4.79082 65.9577 3.9889C66.9719 3.53462 68.0142 3.15649 69.0832 2.85504C69.8091 2.6504 70.5442 2.48502 71.2865 2.34881C72.2264 2.17636 73.1746 2.07994 74.1255 2.00614C74.3845 1.98599 74.6454 1.98638 74.9056 1.98272C75.1743 1.97893 75.4433 1.98416 75.7122 1.98115C76.4507 1.97291 77.1841 2.04068 77.918 2.11526C78.5138 2.17584 79.1046 2.26704 79.6933 2.37184C80.077 2.44014 80.4585 2.52427 80.8377 2.61481C81.6895 2.81827 82.5283 3.06739 83.3512 3.36806C85.5914 4.18634 87.6615 5.31837 89.5561 6.77267C89.7693 6.93635 89.9806 7.10239 90.2019 7.27431C90.2753 7.24592 90.3478 7.22132 90.4175 7.19044C91.1469 6.86766 91.8789 6.55063 92.6041 6.21829C93.1852 5.9519 93.7923 5.90964 94.4114 5.98409C95.179 6.07633 95.8908 6.33841 96.554 6.73865C97.187 7.12057 97.7884 7.54816 98.3709 8.00218C98.871 8.39195 99.3596 8.79664 99.8524 9.19584C99.9117 9.24385 99.9655 9.29881 100.036 9.36384C99.9686 9.42782 99.8958 9.44862 99.8276 9.47741C98.4293 10.0658 97.031 10.6544 95.6329 11.2432C95.2734 11.3946 94.9139 11.5463 94.555 11.6991C94.5089 11.7187 94.4664 11.7468 94.4219 11.7713C94.8023 12.3767 95.1824 12.9674 95.5481 13.5671C95.9152 14.1691 96.2341 14.7978 96.5347 15.4358C96.8354 16.0736 97.105 16.7247 97.3464 17.3872C97.5879 18.0497 97.799 18.7222 97.9785 19.4043C98.158 20.0865 98.308 20.7756 98.4232 21.4718C98.5384 22.168 98.6121 22.8695 98.6843 23.5717C98.7568 24.276 98.7616 24.9801 98.77 25.6858C98.7784 26.3938 98.6963 27.0946 98.6328 27.7971C98.5699 28.4916 98.4658 29.1806 98.3348 29.8653C98.2025 30.5583 98.0389 31.2438 97.8448 31.9221C97.6507 32.6002 97.4253 33.2674 97.171 33.9251C96.9166 34.583 96.633 35.2275 96.3202 35.8595C96.0073 36.4917 95.6659 37.1078 95.2984 37.7095C94.9307 38.3114 94.5348 38.8942 94.114 39.4595C93.6931 40.025 93.2471 40.5699 92.7772 41.0953C92.3073 41.6209 91.8136 42.1227 91.2996 42.6043C90.7856 43.0859 90.2496 43.5418 89.6936 43.9739C80.7379 50.9341 68.1178 50.4334 59.7253 42.7756C55.4058 38.7391 52.8423 33.7939 52.2316 27.8887C51.6216 21.991 53.0674 16.6068 56.4745 11.7237ZM55.689 26.81C55.6756 26.9096 55.6616 26.9596 55.6633 27.0091C55.6745 27.34 55.6725 27.6725 55.7058 28.0012C55.7912 28.8431 55.9526 29.6721 56.1776 30.4878C56.526 31.7499 56.9962 32.9651 57.5692 34.1415C57.6401 34.2873 57.7362 34.3672 57.8827 34.4261C58.6957 34.7524 59.4877 35.1257 60.2695 35.5212C62.2864 36.5417 64.2099 37.7175 66.0492 39.0329C67.3006 39.9278 68.503 40.8851 69.6546 41.9069C70.8063 42.929 71.9008 44.0091 72.9292 45.1565C73.034 45.2733 73.143 45.3397 73.3033 45.3555C74.0114 45.4255 74.7197 45.4795 75.4315 45.4859C76.2739 45.4935 77.1125 45.4417 77.9499 45.3518C78.0899 45.3368 78.1869 45.2799 78.2807 45.1774C78.686 44.7352 79.0908 44.2919 79.5111 43.8642C81.3622 41.9801 83.3755 40.2895 85.5399 38.7797C87.0373 37.7352 88.5943 36.7899 90.2103 35.9439C91.14 35.4571 92.0856 35.0021 93.0642 34.6207C93.1848 34.5737 93.2671 34.5016 93.319 34.3795C93.404 34.1795 93.5076 33.9874 93.595 33.7883C94.0991 32.6388 94.5221 31.4618 94.8028 30.235C94.9722 29.4949 95.0949 28.7481 95.142 27.9901C95.1556 27.7729 95.1535 27.5546 95.1541 27.3369C95.1543 27.3005 95.1315 27.264 95.1199 27.2297C95.0934 27.2354 95.0827 27.2346 95.0768 27.2394C95.0503 27.2617 95.0241 27.2846 94.9996 27.309C94.3547 27.9526 93.6243 28.4785 92.8199 28.9012C91.5912 29.5469 90.277 29.9087 88.9061 30.0741C87.8415 30.2026 86.7789 30.1922 85.7175 30.021C85.1423 29.9281 84.5773 29.7993 84.0283 29.6072C82.2081 28.9704 80.6986 27.9117 79.6033 26.295C79.5765 26.2555 79.5326 26.2276 79.4882 26.1864C79.1568 26.4599 78.8355 26.7244 78.5146 26.9896C78.1865 27.2609 77.8586 27.5325 77.5309 27.8041C77.2098 28.0703 76.8915 28.3399 76.5673 28.6021C76.2383 28.8683 75.9232 29.1524 75.572 29.4125C75.244 29.1337 74.927 28.8643 74.61 28.5949C74.2921 28.3249 73.9744 28.0547 73.6566 27.7848C73.3319 27.5092 73.0102 27.2304 72.6818 26.9594C72.3623 26.6956 72.0596 26.4105 71.7146 26.1559C71.6679 26.2132 71.6296 26.2579 71.5938 26.3044C71.435 26.5113 71.2883 26.7288 71.1168 26.9244C69.8532 28.3652 68.2608 29.2481 66.4167 29.6939C65.8258 29.8367 65.2242 29.9103 64.6174 29.9553C63.721 30.0219 62.8314 29.9614 61.9462 29.8339C61.3114 29.7424 60.6867 29.5966 60.0724 29.4055C58.473 28.9078 57.0467 28.1145 55.843 26.9344C55.808 26.8995 55.7662 26.8716 55.689 26.81ZM95.7638 20.4621C95.7706 16.0328 92.2059 12.4093 87.7814 12.3759C83.3393 12.3424 79.6985 15.9335 79.6754 20.4174C79.6525 24.866 83.1983 28.5031 87.6458 28.5427C92.1786 28.583 95.769 24.898 95.7638 20.4621ZM55.4622 20.4573C55.4583 24.8683 58.9896 28.5104 63.4459 28.5429C67.962 28.5757 71.5719 24.9027 71.5514 20.4222C71.5308 15.959 67.9207 12.373 63.5021 12.3757C59.0577 12.3781 55.4611 16.0033 55.4622 20.4573ZM64.4919 8.80855C64.5629 8.84322 64.6373 8.88313 64.7144 8.91675C66.5898 9.73464 68.4647 10.5538 70.3415 11.3682C71.1606 11.7235 71.9852 12.0662 72.8048 12.4205C73.0733 12.5366 73.3526 12.5777 73.64 12.5901C73.9367 12.6029 74.2307 12.5714 74.5198 12.5149C74.8799 12.4445 75.2213 12.3199 75.5083 12.0764C75.5333 12.0552 75.567 12.0442 75.6036 12.0249C75.6704 12.0713 75.7351 12.1138 75.797 12.16C75.9588 12.2808 76.1379 12.3692 76.3274 12.4328C76.8464 12.607 77.3811 12.6384 77.921 12.5823C78.0567 12.5681 78.1933 12.526 78.3208 12.4748C78.691 12.3267 79.058 12.1706 79.4239 12.0122C81.0388 11.3127 82.6532 10.6119 84.2671 9.9101C85.0304 9.57815 85.7922 9.24294 86.5545 8.90916C86.6229 8.8792 86.6986 8.85958 86.7486 8.78055C86.7086 8.7443 86.68 8.71264 86.646 8.68844C86.3983 8.51246 86.1547 8.32993 85.9002 8.16429C84.4616 7.22734 82.8939 6.58596 81.2451 6.13587C80.341 5.88897 79.4239 5.70618 78.4951 5.5777C77.8155 5.48376 77.134 5.41428 76.4498 5.38562C75.6611 5.35265 74.8726 5.36364 74.084 5.42762C73.2184 5.49789 72.3597 5.6125 71.5078 5.77488C70.9036 5.89002 70.3061 6.0376 69.7138 6.2073C68.5011 6.55469 67.3342 7.01381 66.2247 7.61698C65.6673 7.92001 65.1335 8.26098 64.6257 8.64251C64.573 8.68216 64.4988 8.70649 64.4919 8.80855ZM75.603 27.5252C75.6632 27.47 75.7037 27.439 75.737 27.4015C75.9743 27.1354 76.2098 26.8677 76.4465 26.6012C77.1625 25.7949 77.8788 24.989 78.5949 24.1829C78.6295 24.1439 78.6634 24.1041 78.6972 24.0644C78.7477 24.0053 78.7516 23.9411 78.7239 23.8696C78.6561 23.6944 78.5431 23.5538 78.4032 23.4323C78.1694 23.2295 77.896 23.1008 77.6065 23.0028C77.0262 22.8064 76.4245 22.7359 75.8176 22.6987C75.3997 22.6732 74.9851 22.7218 74.5733 22.7804C74.1875 22.8353 73.8056 22.9171 73.4425 23.0681C73.2005 23.1687 72.9715 23.2899 72.779 23.472C72.6641 23.5807 72.5717 23.704 72.5105 23.8525C72.4722 23.9455 72.4846 24.0194 72.5509 24.0913C72.6215 24.1679 72.6888 24.2479 72.7581 24.326C73.531 25.1979 74.3037 26.0701 75.0771 26.9416C75.244 27.1295 75.4136 27.315 75.603 27.5252Z" fill="#CEC7DD"/>
<path d="M84.3959 16.4924C85.4664 16.3108 87.2237 16.8543 88.1299 18.4847C88.9943 20.0402 88.7212 21.9557 87.4847 23.2095C86.2284 24.4836 84.3164 24.7284 82.8106 23.9102C81.1368 23.0007 80.5795 21.1942 80.7701 20.0464C80.8267 19.9969 80.8836 20.0307 80.9408 20.0458C81.4193 20.172 81.9073 20.1935 82.3808 20.0642C83.4352 19.7765 84.1137 19.0891 84.4175 18.0314C84.4878 17.7867 84.5186 17.5387 84.5104 17.2839C84.5048 17.1089 84.4951 16.9369 84.443 16.7681C84.4155 16.6789 84.3988 16.5853 84.3959 16.4924Z" fill="#CEC7DD"/>
<path d="M66.9125 16.4746C66.8929 16.588 66.8862 16.6752 66.8622 16.7574C66.7443 17.1618 66.7551 17.5626 66.8691 17.9669C66.926 18.1685 66.9859 18.3677 67.0789 18.5551C67.5021 19.4077 68.1832 19.9309 69.1105 20.1048C69.5106 20.1798 69.9221 20.1633 70.3231 20.0593C70.3802 20.0445 70.4382 20.033 70.513 20.0161C70.5289 20.0739 70.5505 20.1201 70.5534 20.1676C70.6705 22.0718 69.4192 23.7651 67.6428 24.2466C66.0279 24.6844 64.3664 24.0482 63.4392 22.7766C62.839 21.9537 62.5711 21.0307 62.68 20.0224C62.8113 18.8058 63.3893 17.8325 64.399 17.1363C65.091 16.6591 65.862 16.4308 66.7038 16.4571C66.7632 16.4588 66.8224 16.4669 66.9125 16.4746Z" fill="#CEC7DD"/>
</svg>
