<svg width="24" height="18" viewBox="0 0 24 18" fill="none" xmlns="http://www.w3.org/2000/svg">
<path d="M1.33333 2.57143C2.06971 2.57143 2.66667 1.99579 2.66667 1.28571C2.66667 0.575634 2.06971 0 1.33333 0C0.596954 0 0 0.575634 0 1.28571C0 1.99579 0.596954 2.57143 1.33333 2.57143Z" fill="#3B1788"/>
<path d="M1.33333 10.2857C2.06971 10.2857 2.66667 9.71008 2.66667 9C2.66667 8.28992 2.06971 7.71429 1.33333 7.71429C0.596954 7.71429 0 8.28992 0 9C0 9.71008 0.596954 10.2857 1.33333 10.2857Z" fill="#3B1788"/>
<path d="M2.66667 16.7143C2.66667 17.4244 2.06971 18 1.33333 18C0.596954 18 0 17.4244 0 16.7143C0 16.0042 0.596954 15.4286 1.33333 15.4286C2.06971 15.4286 2.66667 16.0042 2.66667 16.7143Z" fill="#3B1788"/>
<path d="M6.66667 0C5.93029 0 5.33333 0.575634 5.33333 1.28571C5.33333 1.99579 5.93029 2.57143 6.66667 2.57143H22.6667C23.403 2.57143 24 1.99579 24 1.28571C24 0.575634 23.403 0 22.6667 0H6.66667Z" fill="#3B1788"/>
<path d="M5.33333 9C5.33333 8.28992 5.93029 7.71429 6.66667 7.71429H22.6667C23.403 7.71429 24 8.28992 24 9C24 9.71008 23.403 10.2857 22.6667 10.2857H6.66667C5.93029 10.2857 5.33333 9.71008 5.33333 9Z" fill="#3B1788"/>
<path d="M6.66667 15.4286C5.93029 15.4286 5.33333 16.0042 5.33333 16.7143C5.33333 17.4244 5.93029 18 6.66667 18H22.6667C23.403 18 24 17.4244 24 16.7143C24 16.0042 23.403 15.4286 22.6667 15.4286H6.66667Z" fill="#3B1788"/>
</svg>
